<svg version="1.1" viewBox="0.0 0.0 960.0 540.0" fill="none" stroke="none" stroke-linecap="square" stroke-miterlimit="10" xmlns:xlink="http://www.w3.org/1999/xlink" xmlns="http://www.w3.org/2000/svg"><clipPath id="g3cb07a7c6d6_2_2.0"><path d="m0 0l960.0 0l0 540.0l-960.0 0l0 -540.0z" clip-rule="nonzero"/></clipPath><g clip-path="url(#g3cb07a7c6d6_2_2.0)"><path fill="#ffffff" d="m0 0l960.0 0l0 540.0l-960.0 0z" fill-rule="evenodd"/><path fill="#05070d" d="m0 0l959.76 0l0 540.0l-959.76 0z" fill-rule="evenodd"/><path stroke="#05070d" stroke-width="1.3333333333333333" stroke-linejoin="round" stroke-linecap="butt" d="m0 0l959.76 0l0 540.0l-959.76 0z" fill-rule="evenodd"/><path fill="#000000" fill-opacity="0.0" d="m39.6 25.2l880.56 0l0 43.2l-880.56 0z" fill-rule="evenodd"/><path fill="#00e6ff" d="m49.303123 35.62625l10.046875 0q3.671875 0 5.8125 0.515625q2.15625 0.5 3.140625 1.765625q0.984375 1.25 0.984375 3.484375l0 4.75q0 2.484375 -1.0625 3.875q-1.0625 1.390625 -3.359375 1.96875q-2.296875 0.578125 -6.203125 0.578125l-3.328125 0l0 8.15625l-6.03125 0l0 -25.09375zm9.859375 12.796875q2.359375 0 3.328125 -0.546875q0.96875 -0.5625 0.96875 -1.921875l0 -4.015625q0 -1.25 -0.9375 -1.625q-0.890625 -0.390625 -3.4375 -0.390625l-3.75 0l0 8.5l3.828125 0zm14.143707 -6.40625l5.375 0l0 3.28125q0 -0.890625 0.734375 -1.734375q0.734375 -0.859375 1.875 -1.390625q1.140625 -0.546875 2.265625 -0.546875l2.015625 0l0 4.671875l-1.9375 0q-2.390625 0 -3.53125 0.734375q-1.140625 0.734375 -1.140625 2.4375l0 11.25l-5.65625 0l0 -18.703125zm24.315277 19.09375q-1.734375 0 -2.859375 -0.125q-1.125 -0.109375 -2.390625 -0.453125q-1.390625 -0.390625 -2.25 -1.109375q-0.84375 -0.71875 -1.421875 -2.03125q-0.578125 -1.265625 -0.578125 -3.09375l0 -5.515625q0 -1.859375 0.578125 -3.25q0.578125 -1.390625 1.5 -2.171875q0.8125 -0.65625 2.140625 -1.09375q1.34375 -0.453125 2.625 -0.5625q1.46875 -0.078125 2.65625 -0.078125q1.78125 0 2.84375 0.09375q1.0625 0.09375 2.34375 0.484375q1.390625 0.421875 2.25 1.15625q0.875 0.734375 1.5 2.09375q0.578125 1.390625 0.578125 3.328125l0 5.515625q0 1.75 -0.5625 3.0625q-0.5625 1.3125 -1.453125 2.046875q-0.765625 0.65625 -2.109375 1.0625q-1.328125 0.40625 -2.609375 0.515625q-1.15625 0.125 -2.78125 0.125zm0 -3.515625q1.59375 0 2.40625 -0.25q0.8125 -0.265625 1.140625 -0.796875q0.328125 -0.546875 0.328125 -1.59375l0 -7.0625q0 -1.546875 -0.8125 -2.15625q-0.8125 -0.625 -3.0625 -0.625q-2.234375 0 -3.046875 0.625q-0.8125 0.609375 -0.8125 2.15625l0 7.0625q0 1.046875 0.328125 1.59375q0.328125 0.53125 1.140625 0.796875q0.8125 0.25 2.390625 0.25zm11.446991 -15.578125l5.984375 0l4.109375 12.9375l3.9375 -12.9375l5.6875076 0l-6.8906326 18.703125l-5.71875 0l-7.109375 -18.703125zm31.589684 19.09375q-9.9375 0 -9.9375 -6.078125l0 -6.71875q0 -3.515625 2.25 -5.09375q2.265625 -1.59375 6.984375 -1.59375q4.4375 0 6.5 1.53125q2.078125 1.515625 2.078125 5.15625l0 4.5625l-12.140625 0l0 1.703125q0 1.625 1.15625 2.328125q1.171875 0.6875 4.1875 0.6875q2.78125 0 6.265625 -0.8125l0 3.59375q-3.453125 0.734375 -7.34375 0.734375zm2.5 -11.453125l0 -2.703125q0 -0.921875 -0.75 -1.375q-0.75 -0.46875 -2.53125 -0.46875q-2.046875 0 -2.75 0.453125q-0.734375 0.5 -0.734375 1.390625l0 2.703125l6.765625 0zm9.702591 -7.640625l5.578125 0l0 2.28125q0.65625 -2.671875 5.984375 -2.671875q3.59375 0 5.046875 1.296875q1.453125 1.296875 1.453125 4.078125l0 13.71875l-5.65625 0l0 -12.984375q0 -1.09375 -0.21875 -1.625q-0.203125 -0.546875 -0.84375 -0.765625q-0.625 -0.234375 -1.9375 -0.234375q-1.671875 0 -2.453125 0.21875q-0.765625 0.203125 -1.03125 0.75q-0.265625 0.53125 -0.265625 1.65625l0 12.984375l-5.65625 0l0 -18.703125zm28.297333 19.09375q-2.625 0 -3.921875 -0.484375q-1.296875 -0.484375 -1.828125 -1.734375q-0.515625 -1.265625 -0.515625 -3.78125q0 -2.234375 0.5625 -3.515625q0.5625 -1.28125 1.8125 -1.828125q1.265625 -0.5625 3.46875 -0.5625l6.34375 0l0 -1.28125q0 -1.203125 -0.328125 -1.78125q-0.328125 -0.578125 -1.203125 -0.796875q-0.875 -0.234375 -2.609375 -0.234375q-2.390625 0 -6.578125 0.453125l0 -3.546875q3.0625 -0.390625 7.15625 -0.390625q3.59375 0 5.546875 0.546875q1.953125 0.53125 2.796875 1.84375q0.859375 1.3125 0.859375 3.828125l0 12.875l-5.53125 0l0 -1.703125q-0.65625 1.125 -1.78125 1.59375q-1.109375 0.5 -4.25 0.5zm2.203125 -3.515625q1.703125 0 2.4375 -0.125q0.546875 -0.078125 0.75 -0.234375q0.21875 -0.15625 0.375 -0.5q0.15625 -0.265625 0.15625 -0.8125l0 -3.625l-3.875 0q-1.3125 0 -1.859375 0.171875q-0.53125 0.171875 -0.734375 0.703125q-0.1875 0.515625 -0.1875 1.828125q0 1.265625 0.1875 1.78125q0.203125 0.5 0.765625 0.65625q0.5625 0.15625 1.984375 0.15625zm14.302124 -15.578125l5.578125 0l0 2.28125q0.65625 -2.671875 5.984375 -2.671875q3.59375 0 5.046875 1.296875q1.453125 1.296875 1.453125 4.078125l0 13.71875l-5.65625 0l0 -12.984375q0 -1.09375 -0.21875 -1.625q-0.203125 -0.546875 -0.84375 -0.765625q-0.625 -0.234375 -1.9375 -0.234375q-1.671875 0 -2.453125 0.21875q-0.765625 0.203125 -1.03125 0.75q-0.265625 0.53125 -0.265625 1.65625l0 12.984375l-5.65625 0l0 -18.703125zm32.125458 19.09375q-1.46875 0 -2.328125 -0.0625q-0.84375 -0.0625 -2.078125 -0.21875q-1.234375 -0.140625 -2.03125 -0.53125q-0.78125 -0.390625 -1.640625 -1.15625q-1.578125 -1.328125 -1.578125 -4.484375l0 -6.234375q0 -2.546875 1.15625 -4.25q0.421875 -0.609375 1.25 -1.125q0.84375 -0.53125 1.6875 -0.84375q0.6875 -0.234375 1.84375 -0.390625q1.171875 -0.15625 2.0625 -0.1875l2.046875 0q2.15625 0 5.6875 0.6875l0 3.71875q-3.984375 -0.921875 -6.109375 -0.921875q-3.90625 0 -3.90625 2.625l0 6.875q0 2.984375 4.28125 2.984375q2.09375 0 6.0 -0.859375l0 3.71875q-3.515625 0.65625 -6.34375 0.65625zm18.913559 0q-9.9375 0 -9.9375 -6.078125l0 -6.71875q0 -3.515625 2.25 -5.09375q2.265625 -1.59375 6.984375 -1.59375q4.4375 0 6.5 1.53125q2.0781097 1.515625 2.0781097 5.15625l0 4.5625l-12.14061 0l0 1.703125q0 1.625 1.15625 2.328125q1.171875 0.6875 4.1875 0.6875q2.78125 0 6.2656097 -0.8125l0 3.59375q-3.4531097 0.734375 -7.3437347 0.734375zm2.5 -11.453125l0 -2.703125q0 -0.921875 -0.75 -1.375q-0.75 -0.46875 -2.53125 -0.46875q-2.046875 0 -2.75 0.453125q-0.734375 0.5 -0.734375 1.390625l0 2.703125l6.765625 0zm18.827896 -14.03125l10.046875 0q3.671875 0 5.8125 0.515625q2.15625 0.5 3.140625 1.765625q0.984375 1.25 0.984375 3.484375l0 4.75q0 2.484375 -1.0625 3.875q-1.0625 1.390625 -3.359375 1.96875q-2.296875 0.578125 -6.203125 0.578125l-3.328125 0l0 8.15625l-6.03125 0l0 -25.09375zm9.859375 12.796875q2.359375 0 3.328125 -0.546875q0.96875 -0.5625 0.96875 -1.921875l0 -4.015625q0 -1.25 -0.9375 -1.625q-0.890625 -0.390625 -3.4375 -0.390625l-3.75 0l0 8.5l3.828125 0zm14.299957 -13.171875l5.640625 0l0 4.5625l-5.640625 0l0 -4.5625zm0 6.765625l5.640625 0l0 18.703125l-5.640625 0l0 -18.703125zm10.744812 0l5.34375 0l0 1.84375q0.5 -1.234375 1.96875 -1.734375q1.46875 -0.5 4.359375 -0.5q2.4375 0 3.921875 0.390625q1.5 0.375 2.265625 1.234375q0.734375 0.84375 1.0 1.875q0.28125 1.015625 0.28125 2.796875l0 6.140625q0 2.796875 -0.8125 4.3125q-0.8125 1.5 -2.5 2.125q-1.671875 0.609375 -4.578125 0.609375q-2.78125 0 -4.015625 -0.46875q-1.234375 -0.46875 -1.578125 -1.8125l0 9.9375l-5.65625 0l0 -26.75zm9.515625 15.578125q1.65625 0 2.5 -0.234375q0.859375 -0.234375 1.171875 -0.8125q0.3125 -0.578125 0.3125 -1.75l0 -6.90625q0 -1.28125 -0.28125 -1.84375q-0.265625 -0.5625 -1.078125 -0.75q-0.8125 -0.1875 -2.671875 -0.1875q-1.578125 0 -2.40625 0.265625q-0.828125 0.265625 -1.125 0.84375q-0.28125 0.578125 -0.28125 1.671875l0 6.90625q0 1.171875 0.28125 1.75q0.296875 0.578125 1.109375 0.8125q0.8125 0.234375 2.46875 0.234375zm23.432281 3.515625q-9.9375 0 -9.9375 -6.078125l0 -6.71875q0 -3.515625 2.25 -5.09375q2.265625 -1.59375 6.984375 -1.59375q4.4375 0 6.5 1.53125q2.078125 1.515625 2.078125 5.15625l0 4.5625l-12.140625 0l0 1.703125q0 1.625 1.15625 2.328125q1.171875 0.6875 4.1875 0.6875q2.78125 0 6.265625 -0.8125l0 3.59375q-3.453125 0.734375 -7.34375 0.734375zm2.5 -11.453125l0 -2.703125q0 -0.921875 -0.75 -1.375q-0.75 -0.46875 -2.53125 -0.46875q-2.046875 0 -2.75 0.453125q-0.734375 0.5 -0.734375 1.390625l0 2.703125l6.765625 0zm9.858826 -16.0l5.640625 0l0 27.0625l-5.640625 0l0 -27.0625zm10.901062 1.59375l5.640625 0l0 4.5625l-5.640625 0l0 -4.5625zm0 6.765625l5.640625 0l0 18.703125l-5.640625 0l0 -18.703125zm10.744812 0l5.578125 0l0 2.28125q0.65625 -2.671875 5.984375 -2.671875q3.59375 0 5.046875 1.296875q1.453125 1.296875 1.453125 4.078125l0 13.71875l-5.65625 0l0 -12.984375q0 -1.09375 -0.21875 -1.625q-0.203125 -0.546875 -0.84375 -0.765625q-0.625 -0.234375 -1.9375 -0.234375q-1.671875 0 -2.453125 0.21875q-0.765625 0.203125 -1.03125 0.75q-0.265625 0.53125 -0.265625 1.65625l0 12.984375l-5.65625 0l0 -18.703125zm32.406708 19.09375q-9.9375 0 -9.9375 -6.078125l0 -6.71875q0 -3.515625 2.25 -5.09375q2.265625 -1.59375 6.984375 -1.59375q4.4375 0 6.5 1.53125q2.078125 1.515625 2.078125 5.15625l0 4.5625l-12.140625 0l0 1.703125q0 1.625 1.15625 2.328125q1.171875 0.6875 4.1875 0.6875q2.78125 0 6.265625 -0.8125l0 3.59375q-3.453125 0.734375 -7.34375 0.734375zm2.5 -11.453125l0 -2.703125q0 -0.921875 -0.75 -1.375q-0.75 -0.46875 -2.53125 -0.46875q-2.046875 0 -2.75 0.453125q-0.734375 0.5 -0.734375 1.390625l0 2.703125l6.765625 0zm18.749786 -14.40625l5.640625 0l0 4.5625l-5.640625 0l0 -4.5625zm0 6.765625l5.640625 0l0 18.703125l-5.640625 0l0 -18.703125zm10.744812 0l5.578125 0l0 2.28125q0.65625 -2.671875 5.984375 -2.671875q3.59375 0 5.046875 1.296875q1.453125 1.296875 1.453125 4.078125l0 13.71875l-5.65625 0l0 -12.984375q0 -1.09375 -0.21875 -1.625q-0.203125 -0.546875 -0.84375 -0.765625q-0.625 -0.234375 -1.9375 -0.234375q-1.671875 0 -2.453125 0.21875q-0.765625 0.203125 -1.03125 0.75q-0.265625 0.53125 -0.265625 1.65625l0 12.984375l-5.65625 0l0 -18.703125zm43.219513 19.09375q-1.703125 0 -3.03125 -0.15625q-1.328125 -0.15625 -2.921875 -0.578125q-1.78125 -0.46875 -2.9375 -1.21875q-1.15625 -0.75 -1.9375 -2.109375q-0.796875 -1.359375 -0.796875 -3.203125l0 -11.015625q0 -7.578125 11.625 -7.578125q2.984375 0 7.96875 0.84375l0 4.53125q-4.484375 -1.09375 -7.890625 -1.09375q-1.421875 0 -2.21875 0.078125q-0.796875 0.078125 -1.640625 0.390625q-1.828125 0.625 -1.828125 2.75l0 10.65625q0 3.40625 6.234375 3.40625q2.671875 0 7.5 -1.125l0 4.5625q-4.140625 0.859375 -8.125 0.859375zm11.984039 -25.484375l6.03125 0l0 25.09375l-6.03125 0l0 -25.09375zm21.645355 -0.375l3.375 0l-12.5312195 25.859375l-3.359375 0l12.5155945 -25.859375zm17.551453 25.859375q-1.703125 0 -3.03125 -0.15625q-1.328125 -0.15625 -2.921875 -0.578125q-1.78125 -0.46875 -2.9375 -1.21875q-1.15625 -0.75 -1.9375 -2.109375q-0.796875 -1.359375 -0.796875 -3.203125l0 -11.015625q0 -7.578125 11.625 -7.578125q2.984375 0 7.96875 0.84375l0 4.53125q-4.484375 -1.09375 -7.890625 -1.09375q-1.421875 0 -2.21875 0.078125q-0.796875 0.078125 -1.640625 0.390625q-1.828125 0.625 -1.828125 2.75l0 10.65625q0 3.40625 6.234375 3.40625q2.671875 0 7.5 -1.125l0 4.5625q-4.140625 0.859375 -8.125 0.859375zm11.984009 -25.484375l10.671875 0q4.40625 0 6.953125 0.6875q2.5625 0.671875 3.75 2.34375q1.203125 1.65625 1.203125 4.59375l0 10.203125q0 2.859375 -1.125 4.421875q-1.109375 1.5625 -3.671875 2.203125q-2.546875 0.640625 -7.078125 0.640625l-10.703125 0l0 -25.09375zm10.4375 20.796875q2.46875 0 3.71875 -0.203125q1.265625 -0.21875 1.828125 -0.828125q0.5625 -0.625 0.5625 -1.9375l0 -10.328125q0 -1.765625 -1.421875 -2.484375q-1.40625 -0.71875 -4.484375 -0.71875l-4.609375 0l0 16.5l4.40625 0z" fill-rule="nonzero"/><path fill="#000000" fill-opacity="0.0" d="m39.6 77.76l880.56 0" fill-rule="evenodd"/><path stroke="#7aa7ff" stroke-width="1.3333333333333333" stroke-linejoin="round" stroke-linecap="butt" stroke-opacity="0.34901962" d="m39.6 77.76l880.56 0" fill-rule="evenodd"/><g filter="url(#shadowFilter-g3cb07a7c6d6_2_2.1)"><use xlink:href="#g3cb07a7c6d6_2_2.1" transform="matrix(1.0 0.0 0.0 1.0 1.8856180831641252 1.8856180831641014)"/></g><defs><filter id="shadowFilter-g3cb07a7c6d6_2_2.1" filterUnits="userSpaceOnUse"><feGaussianBlur in="SourceAlpha" stdDeviation="1.7777777" result="blur"/><feComponentTransfer in="blur" color-interpolation-filters="sRGB"><feFuncR type="linear" slope="0" intercept="0.0"/><feFuncG type="linear" slope="0" intercept="0.0"/><feFuncB type="linear" slope="0" intercept="0.0"/><feFuncA type="linear" slope="0.34901962" intercept="0"/></feComponentTransfer></filter></defs><g id="g3cb07a7c6d6_2_2.1"><path fill="#08101e" fill-opacity="0.6" d="m38.16 201.60065l0 0c0 -17.894379 14.506264 -32.40065 32.400646 -32.40065l439.55872 0c8.59317 0 16.834442 3.4136353 22.910736 9.489929c6.076294 6.076309 9.489929 14.317535 9.489929 22.91072l0 129.5987c0 17.89441 -14.506287 32.400665 -32.400665 32.400665l-439.55872 0l0 0c-17.894382 0 -32.400646 -14.506256 -32.400646 -32.400665z" fill-rule="evenodd"/><path stroke="#7aa7ff" stroke-width="1.3333333333333333" stroke-linejoin="round" stroke-linecap="butt" stroke-opacity="0.4" d="m38.16 201.60065l0 0c0 -17.894379 14.506264 -32.40065 32.400646 -32.40065l439.55872 0c8.59317 0 16.834442 3.4136353 22.910736 9.489929c6.076294 6.076309 9.489929 14.317535 9.489929 22.91072l0 129.5987c0 17.89441 -14.506287 32.400665 -32.400665 32.400665l-439.55872 0l0 0c-17.894382 0 -32.400646 -14.506256 -32.400646 -32.400665z" fill-rule="evenodd"/></g><path fill="#000000" fill-opacity="0.0" d="m54.0 182.16l472.68 0l0 25.199997l-472.68 0z" fill-rule="evenodd"/><path fill="#7aa7ff" d="m62.078125 188.75563l4.1875 0q1.25 0 1.859375 0.109375q0.609375 0.09375 1.09375 0.421875q0.484375 0.328125 0.796875 0.875q0.328125 0.546875 0.328125 1.234375q0 0.734375 -0.40625 1.359375q-0.390625 0.609375 -1.0625 0.90625q0.953125 0.28125 1.46875 0.953125q0.515625 0.671875 0.515625 1.578125q0 0.71875 -0.328125 1.40625q-0.328125 0.671875 -0.90625 1.078125q-0.578125 0.390625 -1.421875 0.484375q-0.53125 0.0625 -2.5625 0.078125l-3.5625 0l0 -10.484375zm2.109375 1.734375l0 2.4375l1.390625 0q1.234375 0 1.546875 -0.046875q0.53125 -0.0625 0.84375 -0.375q0.3125 -0.3125 0.3125 -0.8125q0 -0.484375 -0.265625 -0.78125q-0.265625 -0.3125 -0.796875 -0.375q-0.3125 -0.046875 -1.8125 -0.046875l-1.21875 0zm0 4.171875l0 2.8125l1.96875 0q1.140625 0 1.453125 -0.0625q0.46875 -0.09375 0.765625 -0.421875q0.296875 -0.328125 0.296875 -0.890625q0 -0.46875 -0.234375 -0.796875q-0.21875 -0.328125 -0.65625 -0.484375q-0.4375 -0.15625 -1.875 -0.15625l-1.71875 0zm8.443649 -5.90625l2.125 0l0 5.671875q0 1.359375 0.078125 1.75q0.140625 0.65625 0.640625 1.046875q0.515625 0.390625 1.40625 0.390625q0.90625 0 1.359375 -0.375q0.453125 -0.375 0.546875 -0.90625q0.09375 -0.53125 0.09375 -1.78125l0 -5.796875l2.125 0l0 5.5q0 1.890625 -0.171875 2.671875q-0.171875 0.78125 -0.640625 1.328125q-0.453125 0.53125 -1.234375 0.84375q-0.765625 0.3125 -2.015625 0.3125q-1.5 0 -2.28125 -0.34375q-0.78125 -0.34375 -1.234375 -0.890625q-0.4375 -0.5625 -0.578125 -1.171875q-0.21875 -0.90625 -0.21875 -2.65625l0 -5.59375zm10.537399 10.484375l0 -10.484375l2.125 0l0 10.484375l-2.125 0zm4.1969757 0l0 -10.40625l2.109375 0l0 8.640625l5.28125 0l0 1.765625l-7.390625 0zm8.890121 -10.484375l3.875 0q1.296875 0 1.984375 0.1875q0.921875 0.28125 1.578125 0.984375q0.671875 0.6875 1.015625 1.6875q0.34375 1.0 0.34375 2.484375q0 1.296875 -0.328125 2.234375q-0.390625 1.140625 -1.125 1.84375q-0.546875 0.546875 -1.484375 0.84375q-0.703125 0.21875 -1.875 0.21875l-3.984375 0l0 -10.484375zm2.109375 1.765625l0 6.953125l1.59375 0q0.875 0 1.28125 -0.109375q0.515625 -0.125 0.84375 -0.421875q0.34375 -0.3125 0.5625 -1.015625q0.21875 -0.703125 0.21875 -1.921875q0 -1.21875 -0.21875 -1.859375q-0.21875 -0.65625 -0.609375 -1.015625q-0.375 -0.375 -0.96875 -0.5q-0.453125 -0.109375 -1.75 -0.109375l-0.953125 0zm8.240524 5.921875l0 -2.015625l3.953125 0l0 2.015625l-3.953125 0zm7.4743958 2.796875l0 -8.71875l-3.109375 0l0 -1.765625l8.34375 0l0 1.765625l-3.109375 0l0 8.71875l-2.125 0zm6.5307465 0l0 -10.484375l2.125 0l0 10.484375l-2.125 0zm4.1032257 0l0 -10.484375l3.171875 0l1.90625 7.15625l1.890625 -7.15625l3.171875 0l0 10.484375l-1.96875 0l0 -8.265625l-2.078125 8.265625l-2.046875 0l-2.078125 -8.265625l0 8.265625l-1.96875 0zm12.240021 0l0 -10.484375l7.78125 0l0 1.765625l-5.65625 0l0 2.328125l5.265625 0l0 1.765625l-5.265625 0l0 2.859375l5.859375 0l0 1.765625l-7.984375 0zm16.206955 0l0 -8.71875l-3.109375 0l0 -1.765625l8.34375 0l0 1.765625l-3.109375 0l0 8.71875l-2.125 0zm6.6088715 0l0 -10.484375l4.453125 0q1.6875 0 2.4375 0.28125q0.765625 0.28125 1.21875 1.0q0.46875 0.71875 0.46875 1.65625q0 1.171875 -0.703125 1.953125q-0.6875 0.765625 -2.0625 0.96875q0.6875 0.390625 1.125 0.875q0.453125 0.484375 1.203125 1.703125l1.28125 2.046875l-2.53125 0l-1.53125 -2.28125q-0.8125 -1.21875 -1.109375 -1.53125q-0.296875 -0.328125 -0.640625 -0.4375q-0.34375 -0.125 -1.0625 -0.125l-0.4375 0l0 4.375l-2.109375 0zm2.109375 -6.046875l1.578125 0q1.515625 0 1.890625 -0.125q0.390625 -0.140625 0.59375 -0.453125q0.21875 -0.3125 0.21875 -0.78125q0 -0.53125 -0.28125 -0.859375q-0.28125 -0.328125 -0.796875 -0.421875q-0.25 -0.03125 -1.546875 -0.03125l-1.65625 0l0 2.671875zm8.443649 -4.4375l2.125 0l0 5.671875q0 1.359375 0.078125 1.75q0.140625 0.65625 0.640625 1.046875q0.515625 0.390625 1.40625 0.390625q0.90625 0 1.359375 -0.375q0.453125 -0.375 0.546875 -0.90625q0.09375 -0.53125 0.09375 -1.78125l0 -5.796875l2.125 0l0 5.5q0 1.890625 -0.171875 2.671875q-0.171875 0.78125 -0.640625 1.328125q-0.453125 0.53125 -1.234375 0.84375q-0.765625 0.3125 -2.015625 0.3125q-1.5 0 -2.28125 -0.34375q-0.78125 -0.34375 -1.234375 -0.890625q-0.4375 -0.5625 -0.578125 -1.171875q-0.21875 -0.90625 -0.21875 -2.65625l0 -5.59375zm10.068649 7.078125l2.0625 -0.203125q0.1875 1.03125 0.75 1.515625q0.578125 0.484375 1.53125 0.484375q1.03125 0 1.546875 -0.421875q0.515625 -0.4375 0.515625 -1.015625q0 -0.375 -0.21875 -0.625q-0.21875 -0.265625 -0.75 -0.46875q-0.375 -0.125 -1.703125 -0.453125q-1.703125 -0.421875 -2.390625 -1.03125q-0.96875 -0.875 -0.96875 -2.125q0 -0.796875 0.453125 -1.484375q0.453125 -0.703125 1.3125 -1.0625q0.859375 -0.375 2.0625 -0.375q1.984375 0 2.96875 0.875q1.0 0.859375 1.0625 2.296875l-2.125 0.09375q-0.140625 -0.796875 -0.59375 -1.15625q-0.4375 -0.359375 -1.328125 -0.359375q-0.921875 0 -1.453125 0.390625q-0.328125 0.234375 -0.328125 0.640625q0 0.375 0.3125 0.640625q0.40625 0.34375 1.9375 0.703125q1.546875 0.359375 2.28125 0.75q0.75 0.390625 1.171875 1.078125q0.421875 0.671875 0.421875 1.65625q0 0.90625 -0.5 1.703125q-0.5 0.78125 -1.421875 1.171875q-0.921875 0.375 -2.28125 0.375q-1.984375 0 -3.0625 -0.921875q-1.0625 -0.921875 -1.265625 -2.671875zm12.666229 3.40625l0 -8.71875l-3.109375 0l0 -1.765625l8.34375 0l0 1.765625l-3.109375 0l0 8.71875l-2.125 0z" fill-rule="nonzero"/><g filter="url(#shadowFilter-g3cb07a7c6d6_2_2.2)"><use xlink:href="#g3cb07a7c6d6_2_2.2" transform="matrix(1.0 0.0 0.0 1.0 1.8856180831641014 1.8856180831641014)"/></g><defs><filter id="shadowFilter-g3cb07a7c6d6_2_2.2" filterUnits="userSpaceOnUse"><feGaussianBlur in="SourceAlpha" stdDeviation="1.7777777" result="blur"/><feComponentTransfer in="blur" color-interpolation-filters="sRGB"><feFuncR type="linear" slope="0" intercept="0.0"/><feFuncG type="linear" slope="0" intercept="0.0"/><feFuncB type="linear" slope="0" intercept="0.0"/><feFuncA type="linear" slope="0.34901962" intercept="0"/></feComponentTransfer></filter></defs><g id="g3cb07a7c6d6_2_2.2"><path fill="#08101e" fill-opacity="0.6" d="m543.6 190.08041l0 0c0 -11.531937 9.348511 -20.880417 20.880432 -20.880417l83.519165 0l0 0c5.537842 0 10.848877 2.1999054 14.764709 6.115738c3.9158325 3.9158325 6.1157227 9.226852 6.1157227 14.764679l0 152.63916c0 11.531952 -9.348511 20.880432 -20.880432 20.880432l-83.519165 0c-11.531921 0 -20.880432 -9.34848 -20.880432 -20.880432z" fill-rule="evenodd"/><path stroke="#6f2dbd" stroke-width="1.3333333333333333" stroke-linejoin="round" stroke-linecap="butt" stroke-opacity="0.4" d="m543.6 190.08041l0 0c0 -11.531937 9.348511 -20.880417 20.880432 -20.880417l83.519165 0l0 0c5.537842 0 10.848877 2.1999054 14.764709 6.115738c3.9158325 3.9158325 6.1157227 9.226852 6.1157227 14.764679l0 152.63916c0 11.531952 -9.348511 20.880432 -20.880432 20.880432l-83.519165 0c-11.531921 0 -20.880432 -9.34848 -20.880432 -20.880432z" fill-rule="evenodd"/></g><path fill="#000000" fill-opacity="0.0" d="m559.44 182.16l93.599976 0l0 46.800003l-93.599976 0z" fill-rule="evenodd"/><path fill="#6f2dbd" d="m567.315 196.68l0 -8.59375l6.375 0l0 1.453125l-4.640625 0l0 1.90625l4.3125 0l0 1.453125l-4.3125 0l0 2.328125l4.796875 0l0 1.453125l-6.53125 0zm10.191406 0l-3.0625 -8.59375l1.875 0l2.171875 6.359375l2.109375 -6.359375l1.84375 0l-3.078125 8.59375l-1.859375 0zm5.7695312 0l0 -8.59375l1.734375 0l0 8.59375l-1.734375 0zm3.3808594 -8.59375l3.15625 0q1.078125 0 1.640625 0.171875q0.75 0.21875 1.28125 0.796875q0.546875 0.5625 0.828125 1.390625q0.28125 0.8125 0.28125 2.015625q0 1.0625 -0.25 1.828125q-0.328125 0.9375 -0.921875 1.515625q-0.453125 0.453125 -1.21875 0.6875q-0.578125 0.1875 -1.546875 0.1875l-3.25 0l0 -8.59375zm1.734375 1.453125l0 5.6875l1.28125 0q0.734375 0 1.0625 -0.078125q0.421875 -0.109375 0.6875 -0.359375q0.28125 -0.25 0.453125 -0.828125q0.1875 -0.578125 0.1875 -1.578125q0 -0.984375 -0.1875 -1.515625q-0.171875 -0.546875 -0.484375 -0.84375q-0.3125 -0.296875 -0.796875 -0.40625q-0.375 -0.078125 -1.4375 -0.078125l-0.765625 0zm6.9316406 7.140625l0 -8.59375l6.375 0l0 1.453125l-4.640625 0l0 1.90625l4.3125 0l0 1.453125l-4.3125 0l0 2.328125l4.796875 0l0 1.453125l-6.53125 0zm8.019531 0l0 -8.59375l1.6875 0l3.515625 5.734375l0 -5.734375l1.609375 0l0 8.59375l-1.734375 0l-3.46875 -5.609375l0 5.609375l-1.609375 0zm14.150391 -3.15625l1.671875 0.53125q-0.375 1.40625 -1.28125 2.09375q-0.90625 0.671875 -2.28125 0.671875q-1.71875 0 -2.828125 -1.15625q-1.09375 -1.171875 -1.09375 -3.203125q0 -2.140625 1.109375 -3.328125q1.109375 -1.1875 2.921875 -1.1875q1.578125 0 2.5625 0.921875q0.578125 0.5625 0.875 1.59375l-1.71875 0.40625q-0.15625 -0.671875 -0.640625 -1.046875q-0.484375 -0.390625 -1.171875 -0.390625q-0.953125 0 -1.546875 0.6875q-0.59375 0.671875 -0.59375 2.21875q0 1.625 0.578125 2.3125q0.59375 0.6875 1.53125 0.6875q0.6875 0 1.1875 -0.4375q0.5 -0.4375 0.71875 -1.375zm3.1660156 3.15625l0 -8.59375l6.375 0l0 1.453125l-4.640625 0l0 1.90625l4.3125 0l0 1.453125l-4.3125 0l0 2.328125l4.796875 0l0 1.453125l-6.53125 0z" fill-rule="nonzero"/><path fill="#6f2dbd" d="m567.315 211.08l0 -8.59375l3.65625 0q1.375 0 2.0 0.234375q0.625 0.234375 1.0 0.828125q0.375 0.59375 0.375 1.34375q0 0.96875 -0.578125 1.609375q-0.5625 0.625 -1.6875 0.78125q0.5625 0.328125 0.921875 0.734375q0.375 0.390625 0.984375 1.390625l1.0625 1.671875l-2.078125 0l-1.25 -1.875q-0.671875 -1.0 -0.921875 -1.25q-0.25 -0.265625 -0.53125 -0.359375q-0.265625 -0.109375 -0.859375 -0.109375l-0.359375 0l0 3.59375l-1.734375 0zm1.734375 -4.953125l1.28125 0q1.25 0 1.5625 -0.109375q0.3125 -0.109375 0.484375 -0.359375q0.1875 -0.265625 0.1875 -0.65625q0 -0.421875 -0.234375 -0.6875q-0.234375 -0.265625 -0.65625 -0.34375q-0.21875 -0.03125 -1.265625 -0.03125l-1.359375 0l0 2.1875zm6.9316406 4.953125l0 -8.59375l6.375 0l0 1.453125l-4.640625 0l0 1.90625l4.3125 0l0 1.453125l-4.3125 0l0 2.328125l4.796875 0l0 1.453125l-6.53125 0zm9.941406 0l0 -7.140625l-2.546875 0l0 -1.453125l6.8125 0l0 1.453125l-2.53125 0l0 7.140625l-1.734375 0zm5.392578 0l0 -8.59375l6.375 0l0 1.453125l-4.640625 0l0 1.90625l4.3125 0l0 1.453125l-4.3125 0l0 2.328125l4.796875 0l0 1.453125l-6.53125 0zm8.019531 0l0 -8.59375l1.6875 0l3.515625 5.734375l0 -5.734375l1.609375 0l0 8.59375l-1.734375 0l-3.46875 -5.609375l0 5.609375l-1.609375 0zm10.587891 0l0 -7.140625l-2.546875 0l0 -1.453125l6.8125 0l0 1.453125l-2.53125 0l0 7.140625l-1.734375 0zm5.345703 0l0 -8.59375l1.734375 0l0 8.59375l-1.734375 0zm3.0214844 -4.25q0 -1.3125 0.40625 -2.203125q0.28125 -0.65625 0.78125 -1.171875q0.515625 -0.515625 1.125 -0.765625q0.796875 -0.34375 1.84375 -0.34375q1.90625 0 3.046875 1.1875q1.140625 1.171875 1.140625 3.265625q0 2.078125 -1.140625 3.25q-1.125 1.171875 -3.015625 1.171875q-1.921875 0 -3.0625 -1.15625q-1.125 -1.171875 -1.125 -3.234375zm1.796875 -0.046875q0 1.453125 0.671875 2.203125q0.671875 0.75 1.703125 0.75q1.046875 0 1.703125 -0.734375q0.671875 -0.75 0.671875 -2.25q0 -1.46875 -0.65625 -2.1875q-0.640625 -0.734375 -1.71875 -0.734375q-1.0625 0 -1.71875 0.734375q-0.65625 0.734375 -0.65625 2.21875zm7.9121094 4.296875l0 -8.59375l1.6875 0l3.515625 5.734375l0 -5.734375l1.609375 0l0 8.59375l-1.734375 0l-3.46875 -5.609375l0 5.609375l-1.609375 0z" fill-rule="nonzero"/><g filter="url(#shadowFilter-g3cb07a7c6d6_2_2.3)"><use xlink:href="#g3cb07a7c6d6_2_2.3" transform="matrix(1.0 0.0 0.0 1.0 1.8856180831641014 1.8856180831641014)"/></g><defs><filter id="shadowFilter-g3cb07a7c6d6_2_2.3" filterUnits="userSpaceOnUse"><feGaussianBlur in="SourceAlpha" stdDeviation="1.7777777" result="blur"/><feComponentTransfer in="blur" color-interpolation-filters="sRGB"><feFuncR type="linear" slope="0" intercept="0.0"/><feFuncG type="linear" slope="0" intercept="0.0"/><feFuncB type="linear" slope="0" intercept="0.0"/><feFuncA type="linear" slope="0.34901962" intercept="0"/></feComponentTransfer></filter></defs><g id="g3cb07a7c6d6_2_2.3"><path fill="#08101e" fill-opacity="0.6" d="m669.96 201.60065l0 0c0 -17.894379 14.506226 -32.40065 32.400635 -32.40065l186.83868 0c8.593201 0 16.834412 3.4136353 22.910706 9.489929c6.076294 6.076309 9.489929 14.317535 9.489929 22.91072l0 129.5987c0 17.89441 -14.506226 32.400665 -32.400635 32.400665l-186.83868 0l0 0c-17.89441 0 -32.400635 -14.506256 -32.400635 -32.400665z" fill-rule="evenodd"/><path stroke="#00e6ff" stroke-width="1.3333333333333333" stroke-linejoin="round" stroke-linecap="butt" stroke-opacity="0.4" d="m669.96 201.60065l0 0c0 -17.894379 14.506226 -32.40065 32.400635 -32.40065l186.83868 0c8.593201 0 16.834412 3.4136353 22.910706 9.489929c6.076294 6.076309 9.489929 14.317535 9.489929 22.91072l0 129.5987c0 17.89441 -14.506226 32.400665 -32.400635 32.400665l-186.83868 0l0 0c-17.89441 0 -32.400635 -14.506256 -32.400635 -32.400665z" fill-rule="evenodd"/></g><path fill="#000000" fill-opacity="0.0" d="m685.8 182.16l219.96002 0l0 46.800003l-219.96002 0z" fill-rule="evenodd"/><path fill="#00e6ff" d="m693.76874 188.41313l3.515625 0q1.1875 0 1.8125 0.1875q0.84375 0.25 1.4375 0.890625q0.609375 0.625 0.921875 1.546875q0.3125 0.90625 0.3125 2.25q0 1.171875 -0.296875 2.015625q-0.359375 1.046875 -1.03125 1.6875q-0.5 0.5 -1.34375 0.765625q-0.640625 0.203125 -1.703125 0.203125l-3.625 0l0 -9.546875zm1.921875 1.625l0 6.3125l1.4375 0q0.8125 0 1.171875 -0.09375q0.46875 -0.109375 0.765625 -0.390625q0.3125 -0.28125 0.5 -0.921875q0.203125 -0.640625 0.203125 -1.75q0 -1.109375 -0.203125 -1.6875q-0.1875 -0.59375 -0.546875 -0.921875q-0.34375 -0.34375 -0.875 -0.453125q-0.40625 -0.09375 -1.59375 -0.09375l-0.859375 0zm7.703308 7.921875l0 -9.546875l7.078125 0l0 1.625l-5.15625 0l0 2.109375l4.796875 0l0 1.609375l-4.796875 0l0 2.59375l5.328125 0l0 1.609375l-7.25 0zm8.889709 0l0 -9.546875l3.09375 0q1.75 0 2.296875 0.15625q0.8125 0.203125 1.359375 0.921875q0.5625 0.71875 0.5625 1.859375q0 0.875 -0.328125 1.484375q-0.3125 0.59375 -0.8125 0.9375q-0.484375 0.34375 -0.984375 0.453125q-0.703125 0.140625 -2.0 0.140625l-1.265625 0l0 3.59375l-1.921875 0zm1.921875 -7.921875l0 2.703125l1.0625 0q1.140625 0 1.515625 -0.140625q0.390625 -0.15625 0.609375 -0.46875q0.21875 -0.328125 0.21875 -0.75q0 -0.515625 -0.3125 -0.859375q-0.296875 -0.34375 -0.765625 -0.421875q-0.34375 -0.0625 -1.390625 -0.0625l-0.9375 0zm7.0147705 7.921875l0 -9.46875l1.9375 0l0 7.859375l4.78125 0l0 1.609375l-6.71875 0zm7.7038574 -4.71875q0 -1.453125 0.4375 -2.4375q0.328125 -0.734375 0.890625 -1.3125q0.5625 -0.578125 1.234375 -0.859375q0.890625 -0.375 2.046875 -0.375q2.109375 0 3.375 1.3125q1.265625 1.296875 1.265625 3.640625q0 2.296875 -1.25 3.609375q-1.25 1.296875 -3.359375 1.296875q-2.125 0 -3.390625 -1.296875q-1.25 -1.296875 -1.25 -3.578125zm1.984375 -0.0625q0 1.625 0.75 2.46875q0.75 0.828125 1.90625 0.828125q1.140625 0 1.875 -0.828125q0.75 -0.828125 0.75 -2.484375q0 -1.640625 -0.71875 -2.453125q-0.71875 -0.8125 -1.90625 -0.8125q-1.203125 0 -1.9375 0.828125q-0.71875 0.8125 -0.71875 2.453125zm11.273315 4.78125l0 -4.015625l-3.484375 -5.53125l2.25 0l2.25 3.78125l2.203125 -3.78125l2.21875 0l-3.515625 5.546875l0 4.0l-1.921875 0zm11.929993 -1.375l0 -2.484375l-2.5 0l0 -1.703125l2.5 0l0 -2.484375l1.671875 0l0 2.484375l2.5 0l0 1.703125l-2.5 0l0 2.484375l-1.671875 0z" fill-rule="nonzero"/><path fill="#00e6ff" d="m693.3781 209.24126q0 -1.453125 0.4375 -2.4375q0.328125 -0.734375 0.890625 -1.3125q0.5625 -0.578125 1.234375 -0.859375q0.890625 -0.375 2.046875 -0.375q2.109375 0 3.375 1.3125q1.265625 1.296875 1.265625 3.640625q0 2.296875 -1.25 3.609375q-1.25 1.296875 -3.359375 1.296875q-2.125 0 -3.390625 -1.296875q-1.25 -1.296875 -1.25 -3.578125zm1.984375 -0.0625q0 1.625 0.75 2.46875q0.75 0.828125 1.90625 0.828125q1.140625 0 1.875 -0.828125q0.75 -0.828125 0.75 -2.484375q0 -1.640625 -0.71875 -2.453125q-0.71875 -0.8125 -1.90625 -0.8125q-1.203125 0 -1.9375 0.828125q-0.71875 0.8125 -0.71875 2.453125zm8.773315 4.78125l0 -9.546875l3.09375 0q1.75 0 2.296875 0.15625q0.8125 0.203125 1.359375 0.921875q0.5625 0.71875 0.5625 1.859375q0 0.875 -0.328125 1.484375q-0.3125 0.59375 -0.8125 0.9375q-0.484375 0.34375 -0.984375 0.453125q-0.703125 0.140625 -2.0 0.140625l-1.265625 0l0 3.59375l-1.921875 0zm1.921875 -7.921875l0 2.703125l1.0625 0q1.140625 0 1.515625 -0.140625q0.390625 -0.15625 0.609375 -0.46875q0.21875 -0.328125 0.21875 -0.75q0 -0.515625 -0.3125 -0.859375q-0.296875 -0.34375 -0.765625 -0.421875q-0.34375 -0.0625 -1.390625 -0.0625l-0.9375 0zm6.9678955 7.921875l0 -9.546875l7.078125 0l0 1.625l-5.15625 0l0 2.109375l4.796875 0l0 1.609375l-4.796875 0l0 2.59375l5.328125 0l0 1.609375l-7.25 0zm8.889709 0l0 -9.546875l4.0625 0q1.53125 0 2.21875 0.265625q0.703125 0.25 1.109375 0.90625q0.421875 0.65625 0.421875 1.515625q0 1.0625 -0.640625 1.765625q-0.625 0.703125 -1.875 0.890625q0.625 0.359375 1.03125 0.796875q0.40625 0.4375 1.09375 1.546875l1.15625 1.859375l-2.296875 0l-1.390625 -2.078125q-0.75 -1.109375 -1.03125 -1.390625q-0.265625 -0.296875 -0.578125 -0.40625q-0.296875 -0.109375 -0.953125 -0.109375l-0.390625 0l0 3.984375l-1.9375 0zm1.9375 -5.5l1.421875 0q1.390625 0 1.734375 -0.109375q0.34375 -0.125 0.53125 -0.40625q0.203125 -0.296875 0.203125 -0.71875q0 -0.484375 -0.265625 -0.78125q-0.25 -0.296875 -0.71875 -0.375q-0.234375 -0.03125 -1.40625 -0.03125l-1.5 0l0 2.421875zm16.297058 5.5l-2.09375 0l-0.84375 -2.171875l-3.8125 0l-0.78125 2.171875l-2.046875 0l3.71875 -9.546875l2.03125 0l3.828125 9.546875zm-3.546875 -3.78125l-1.3125 -3.53125l-1.296875 3.53125l2.609375 0zm5.729309 3.78125l0 -7.921875l-2.84375 0l0 -1.625l7.59375 0l0 1.625l-2.828125 0l0 7.921875l-1.921875 0zm5.9226074 0l0 -9.546875l1.9375 0l0 9.546875l-1.9375 0zm3.374878 -4.71875q0 -1.453125 0.4375 -2.4375q0.328125 -0.734375 0.890625 -1.3125q0.5625 -0.578125 1.234375 -0.859375q0.890625 -0.375 2.046875 -0.375q2.109375 0 3.375 1.3125q1.265625 1.296875 1.265625 3.640625q0 2.296875 -1.25 3.609375q-1.25 1.296875 -3.359375 1.296875q-2.125 0 -3.390625 -1.296875q-1.25 -1.296875 -1.25 -3.578125zm1.984375 -0.0625q0 1.625 0.75 2.46875q0.75 0.828125 1.90625 0.828125q1.140625 0 1.875 -0.828125q0.75 -0.828125 0.75 -2.484375q0 -1.640625 -0.71875 -2.453125q-0.71875 -0.8125 -1.90625 -0.8125q-1.203125 0 -1.9375 0.828125q-0.71875 0.8125 -0.71875 2.453125zm8.78894 4.78125l0 -9.546875l1.875 0l3.90625 6.375l0 -6.375l1.796875 0l0 9.546875l-1.9375 0l-3.84375 -6.21875l0 6.21875l-1.796875 0zm9.125122 -3.109375l1.875 -0.171875q0.171875 0.9375 0.6875 1.390625q0.515625 0.4375 1.390625 0.4375q0.9375 0 1.40625 -0.390625q0.46875 -0.40625 0.46875 -0.921875q0 -0.34375 -0.203125 -0.578125q-0.1875 -0.234375 -0.6875 -0.421875q-0.34375 -0.109375 -1.546875 -0.40625q-1.546875 -0.390625 -2.171875 -0.953125q-0.875 -0.78125 -0.875 -1.921875q0 -0.71875 0.40625 -1.359375q0.421875 -0.640625 1.1875 -0.96875q0.78125 -0.328125 1.890625 -0.328125q1.796875 0 2.703125 0.796875q0.90625 0.78125 0.953125 2.09375l-1.921875 0.078125q-0.125 -0.734375 -0.53125 -1.046875q-0.40625 -0.328125 -1.234375 -0.328125q-0.828125 0 -1.3125 0.34375q-0.296875 0.21875 -0.296875 0.59375q0 0.34375 0.28125 0.578125q0.359375 0.3125 1.765625 0.640625q1.40625 0.328125 2.078125 0.6875q0.6875 0.359375 1.0625 0.96875q0.375 0.609375 0.375 1.515625q0 0.828125 -0.453125 1.546875q-0.453125 0.703125 -1.296875 1.0625q-0.828125 0.34375 -2.0625 0.34375q-1.8125 0 -2.78125 -0.828125q-0.96875 -0.84375 -1.15625 -2.453125z" fill-rule="nonzero"/><g filter="url(#shadowFilter-g3cb07a7c6d6_2_2.4)"><use xlink:href="#g3cb07a7c6d6_2_2.4" transform="matrix(1.0 0.0 0.0 1.0 1.4142135623730951 1.4142135623730951)"/></g><defs><filter id="shadowFilter-g3cb07a7c6d6_2_2.4" filterUnits="userSpaceOnUse"><feGaussianBlur in="SourceAlpha" stdDeviation="1.7777777" result="blur"/><feComponentTransfer in="blur" color-interpolation-filters="sRGB"><feFuncR type="linear" slope="0" intercept="0.47843137"/><feFuncG type="linear" slope="0" intercept="0.654902"/><feFuncB type="linear" slope="0" intercept="1.0"/><feFuncA type="linear" slope="0.14117648" intercept="0"/></feComponentTransfer></filter></defs><g id="g3cb07a7c6d6_2_2.4"><path fill="#08101e" fill-opacity="0.81960785" d="m39.6 245.40022l0 0c0 -6.296173 5.1040573 -11.400223 11.40023 -11.400223l99.59955 0c3.023529 0 5.923218 1.2010956 8.0611725 3.3390503c2.1379547 2.1379547 3.3390503 5.0376434 3.3390503 8.0611725l0 45.599564c0 6.2961426 -5.1040497 11.4002075 -11.400223 11.4002075l-99.59955 0c-6.296173 0 -11.40023 -5.104065 -11.40023 -11.4002075z" fill-rule="evenodd"/><path stroke="#7aa7ff" stroke-width="1.6666666666666667" stroke-linejoin="round" stroke-linecap="butt" stroke-opacity="0.8509804" d="m39.6 245.40022l0 0c0 -6.296173 5.1040573 -11.400223 11.40023 -11.400223l99.59955 0c3.023529 0 5.923218 1.2010956 8.0611725 3.3390503c2.1379547 2.1379547 3.3390503 5.0376434 3.3390503 8.0611725l0 45.599564c0 6.2961426 -5.1040497 11.4002075 -11.400223 11.4002075l-99.59955 0c-6.296173 0 -11.40023 -5.104065 -11.40023 -11.4002075z" fill-rule="evenodd"/></g><path fill="#000000" fill-opacity="0.0" d="m48.24 241.2l105.119995 0l0 54.000015l-105.119995 0z" fill-rule="evenodd"/><path fill="#e6ecf1" d="m81.62005 264.04l-4.4375 -12.406265l2.71875 0l3.140625 9.187515l3.046875 -9.187515l2.65625 0l-4.453125 12.406265l-2.671875 0zm12.632599 -2.859375l2.359375 0.390625q-0.453125 1.3125 -1.4375 2.0q-0.984375 0.671875 -2.46875 0.671875q-2.34375 0 -3.46875 -1.53125q-0.890625 -1.234375 -0.890625 -3.09375q0 -2.234375 1.171875 -3.5q1.171875 -1.2656403 2.953125 -1.2656403q2.0 0 3.15625 1.3281403q1.171875 1.3125 1.109375 4.046875l-5.953125 0q0.03125 1.0625 0.578125 1.65625q0.546875 0.578125 1.375 0.578125q0.546875 0 0.921875 -0.296875q0.390625 -0.3125 0.59375 -0.984375zm0.125 -2.40625q-0.015625 -1.03125 -0.53125 -1.5625q-0.5 -0.546875 -1.234375 -0.546875q-0.78125 0 -1.28125 0.578125q-0.515625 0.5625 -0.5 1.53125l3.546875 0zm6.574585 5.265625l-2.375 0l0 -8.98439l2.203125 0l0 1.2812653q0.578125 -0.90626526 1.03125 -1.1875153q0.453125 -0.296875 1.015625 -0.296875q0.8125 0 1.578125 0.453125l-0.734375 2.0625153q-0.609375 -0.390625 -1.125 -0.390625q-0.5 0 -0.84375 0.28125q-0.34375 0.28125 -0.546875 1.0q-0.203125 0.71875 -0.203125 3.0l0 2.78125zm4.4777985 -10.20314l0 -2.203125l2.375 0l0 2.203125l-2.375 0zm0 10.20314l0 -8.98439l2.375 0l0 8.98439l-2.375 0zm3.7674408 -8.98439l1.3125 0l0 -0.671875q0 -1.140625 0.234375 -1.6875q0.25 -0.5625 0.890625 -0.90625q0.65625 -0.359375 1.65625 -0.359375q1.015625 0 1.984375 0.296875l-0.328125 1.65625q-0.5625 -0.125 -1.09375 -0.125q-0.515625 0 -0.734375 0.234375q-0.21875 0.234375 -0.21875 0.921875l0 0.640625l1.765625 0l0 1.8750153l-1.765625 0l0 7.109375l-2.390625 0l0 -7.109375l-1.3125 0l0 -1.8750153zm5.692276 0l2.515625 0l2.15625 6.3750153l2.09375 -6.3750153l2.46875 0l-3.171875 8.64064l-0.5625 1.578125q-0.3125 0.78125 -0.609375 1.1875q-0.28125 0.421875 -0.65625 0.671875q-0.359375 0.265625 -0.90625 0.40625q-0.53125 0.140625 -1.203125 0.140625q-0.6875 0 -1.34375 -0.140625l-0.21875 -1.859375q0.5625 0.109375 1.015625 0.109375q0.828125 0 1.21875 -0.484375q0.40625 -0.484375 0.609375 -1.234375l-3.40625 -9.01564z" fill-rule="nonzero"/><path fill="#e6ecf1" d="m82.19264 284.84l0 -12.40625l2.375 0l0 4.46875q1.109375 -1.25 2.609375 -1.25q1.640625 0 2.71875 1.1875q1.078125 1.1875 1.078125 3.421875q0 2.296875 -1.109375 3.546875q-1.09375 1.234375 -2.65625 1.234375q-0.765625 0 -1.515625 -0.375q-0.75 -0.390625 -1.296875 -1.140625l0 1.3125l-2.203125 0zm2.359375 -4.6875q0 1.390625 0.4375 2.0625q0.625 0.953125 1.640625 0.953125q0.796875 0 1.34375 -0.671875q0.5625 -0.671875 0.5625 -2.125q0 -1.53125 -0.5625 -2.21875q-0.5625 -0.6875 -1.4375 -0.6875q-0.84375 0 -1.421875 0.671875q-0.5625 0.65625 -0.5625 2.015625zm10.100342 -1.5625l-2.15625 -0.390625q0.375 -1.296875 1.25 -1.921875q0.890625 -0.625 2.640625 -0.625q1.59375 0 2.375 0.375q0.78125 0.375 1.09375 0.953125q0.3125 0.578125 0.3125 2.125l-0.015625 2.78125q0 1.1875 0.109375 1.75q0.109375 0.5625 0.421875 1.203125l-2.34375 0q-0.09375 -0.234375 -0.234375 -0.703125q-0.0625 -0.203125 -0.078125 -0.28125q-0.609375 0.59375 -1.3125 0.890625q-0.6875 0.296875 -1.46875 0.296875q-1.390625 0 -2.1875 -0.75q-0.796875 -0.75 -0.796875 -1.90625q0 -0.765625 0.359375 -1.359375q0.359375 -0.59375 1.015625 -0.90625q0.65625 -0.328125 1.890625 -0.5625q1.671875 -0.3125 2.3125 -0.578125l0 -0.234375q0 -0.6875 -0.34375 -0.984375q-0.328125 -0.296875 -1.28125 -0.296875q-0.625 0 -0.984375 0.25q-0.359375 0.25 -0.578125 0.875zm3.1875 1.9375q-0.453125 0.15625 -1.453125 0.375q-0.984375 0.203125 -1.296875 0.40625q-0.453125 0.328125 -0.453125 0.828125q0 0.5 0.359375 0.875q0.375 0.359375 0.953125 0.359375q0.640625 0 1.234375 -0.421875q0.421875 -0.328125 0.5625 -0.796875q0.09375 -0.296875 0.09375 -1.15625l0 -0.46875zm3.84021 1.75l2.390625 -0.359375q0.140625 0.6875 0.609375 1.046875q0.46875 0.359375 1.3125 0.359375q0.921875 0 1.375 -0.34375q0.3125 -0.234375 0.3125 -0.625q0 -0.28125 -0.15625 -0.453125q-0.1875 -0.171875 -0.796875 -0.3125q-2.875 -0.640625 -3.65625 -1.15625q-1.0625 -0.734375 -1.0625 -2.03125q0 -1.15625 0.921875 -1.953125q0.921875 -0.796875 2.859375 -0.796875q1.84375 0 2.734375 0.609375q0.90625 0.59375 1.25 1.765625l-2.25 0.421875q-0.140625 -0.53125 -0.546875 -0.8125q-0.390625 -0.28125 -1.140625 -0.28125q-0.9375 0 -1.34375 0.265625q-0.28125 0.1875 -0.28125 0.484375q0 0.25 0.25 0.4375q0.3125 0.234375 2.203125 0.671875q1.90625 0.421875 2.671875 1.046875q0.734375 0.640625 0.734375 1.765625q0 1.234375 -1.03125 2.125q-1.03125 0.890625 -3.046875 0.890625q-1.84375 0 -2.921875 -0.734375q-1.0625 -0.75 -1.390625 -2.03125zm15.683952 -0.296875l2.359375 0.390625q-0.453125 1.3125 -1.4375 2.0q-0.984375 0.671875 -2.46875 0.671875q-2.34375 0 -3.46875 -1.53125q-0.8906174 -1.234375 -0.8906174 -3.09375q0 -2.234375 1.1718674 -3.5q1.171875 -1.265625 2.953125 -1.265625q2.0 0 3.15625 1.328125q1.171875 1.3125 1.109375 4.046875l-5.953125 0q0.03125 1.0625 0.578125 1.65625q0.546875 0.578125 1.375 0.578125q0.546875 0 0.921875 -0.296875q0.390625 -0.3125 0.59375 -0.984375zm0.125 -2.40625q-0.015625 -1.03125 -0.53125 -1.5625q-0.5 -0.546875 -1.234375 -0.546875q-0.78125 0 -1.28125 0.578125q-0.515625 0.5625 -0.5 1.53125l3.546875 0z" fill-rule="nonzero"/><g filter="url(#shadowFilter-g3cb07a7c6d6_2_2.5)"><use xlink:href="#g3cb07a7c6d6_2_2.5" transform="matrix(1.0 0.0 0.0 1.0 1.4142135623730951 1.4142135623730951)"/></g><defs><filter id="shadowFilter-g3cb07a7c6d6_2_2.5" filterUnits="userSpaceOnUse"><feGaussianBlur in="SourceAlpha" stdDeviation="1.7777777" result="blur"/><feComponentTransfer in="blur" color-interpolation-filters="sRGB"><feFuncR type="linear" slope="0" intercept="0.47843137"/><feFuncG type="linear" slope="0" intercept="0.654902"/><feFuncB type="linear" slope="0" intercept="1.0"/><feFuncA type="linear" slope="0.14117648" intercept="0"/></feComponentTransfer></filter></defs><g id="g3cb07a7c6d6_2_2.5"><path fill="#08101e" fill-opacity="0.81960785" d="m165.96 245.40022l0 0c0 -6.296173 5.1040497 -11.400223 11.400223 -11.400223l99.59955 0c3.023529 0 5.923218 1.2010956 8.061188 3.3390503c2.1379395 2.1379547 3.3390198 5.0376434 3.3390198 8.0611725l0 45.599564c0 6.2961426 -5.1040344 11.4002075 -11.4002075 11.4002075l-99.59955 0c-6.296173 0 -11.400223 -5.104065 -11.400223 -11.4002075z" fill-rule="evenodd"/><path stroke="#7aa7ff" stroke-width="1.6666666666666667" stroke-linejoin="round" stroke-linecap="butt" stroke-opacity="0.8509804" d="m165.96 245.40022l0 0c0 -6.296173 5.1040497 -11.400223 11.400223 -11.400223l99.59955 0c3.023529 0 5.923218 1.2010956 8.061188 3.3390503c2.1379395 2.1379547 3.3390198 5.0376434 3.3390198 8.0611725l0 45.599564c0 6.2961426 -5.1040344 11.4002075 -11.4002075 11.4002075l-99.59955 0c-6.296173 0 -11.400223 -5.104065 -11.400223 -11.4002075z" fill-rule="evenodd"/></g><path fill="#000000" fill-opacity="0.0" d="m174.6 241.2l105.119995 0l0 54.000015l-105.119995 0z" fill-rule="evenodd"/><path fill="#e6ecf1" d="m206.76968 262.03375l4.96875 0q1.46875 0 2.1875 0.125q0.71875 0.125 1.28125 0.515625q0.578125 0.390625 0.953125 1.046875q0.390625 0.640625 0.390625 1.4375q0 0.875 -0.46875 1.609375q-0.46875 0.71875 -1.265625 1.078125q1.125 0.328125 1.734375 1.125q0.609375 0.796875 0.609375 1.875q0 0.84375 -0.390625 1.640625q-0.390625 0.796875 -1.078125 1.28125q-0.671875 0.484375 -1.671875 0.59375q-0.625 0.0625 -3.03125 0.078125l-4.21875 0l0 -12.40625zm2.515625 2.0625l0 2.875l1.640625 0q1.453125 0 1.8125 -0.046875q0.640625 -0.078125 1.0 -0.4375q0.375 -0.375 0.375 -0.96875q0 -0.578125 -0.3125 -0.9375q-0.3125 -0.359375 -0.9375 -0.4375q-0.375 -0.046875 -2.140625 -0.046875l-1.4375 0zm0 4.9375l0 3.3125l2.3125 0q1.359375 0 1.71875 -0.078125q0.5625 -0.09375 0.90625 -0.484375q0.34375 -0.390625 0.34375 -1.0625q0 -0.546875 -0.265625 -0.9375q-0.265625 -0.390625 -0.78125 -0.5625q-0.515625 -0.1875 -2.21875 -0.1875l-2.015625 0zm15.888824 5.40625l0 -1.34375q-0.484375 0.71875 -1.296875 1.140625q-0.796875 0.40625 -1.671875 0.40625q-0.90625 0 -1.625 -0.390625q-0.71875 -0.40625 -1.046875 -1.125q-0.328125 -0.71875 -0.328125 -1.984375l0 -5.6875l2.390625 0l0 4.125q0 1.890625 0.125 2.328125q0.125 0.421875 0.46875 0.671875q0.359375 0.25 0.890625 0.25q0.609375 0 1.09375 -0.328125q0.484375 -0.34375 0.65625 -0.828125q0.171875 -0.5 0.171875 -2.421875l0 -3.796875l2.375 0l0 8.984375l-2.203125 0zm4.678467 -10.203125l0 -2.203125l2.375 0l0 2.203125l-2.375 0zm0 10.203125l0 -8.984375l2.375 0l0 8.984375l-2.375 0zm4.814316 0l0 -12.40625l2.375 0l0 12.40625l-2.375 0zm13.048691 0l-2.203125 0l0 -1.3125q-0.5625 0.765625 -1.3125 1.140625q-0.734375 0.375 -1.5 0.375q-1.546875 0 -2.65625 -1.25q-1.109375 -1.25 -1.109375 -3.484375q0 -2.28125 1.078125 -3.46875q1.078125 -1.1875 2.71875 -1.1875q1.5 0 2.609375 1.25l0 -4.46875l2.375 0l0 12.40625zm-6.34375 -4.6875q0 1.4375 0.390625 2.078125q0.578125 0.9375 1.609375 0.9375q0.828125 0 1.390625 -0.703125q0.578125 -0.703125 0.578125 -2.078125q0 -1.546875 -0.5625 -2.234375q-0.546875 -0.6875 -1.421875 -0.6875q-0.84375 0 -1.421875 0.671875q-0.5625 0.671875 -0.5625 2.015625z" fill-rule="nonzero"/><g filter="url(#shadowFilter-g3cb07a7c6d6_2_2.6)"><use xlink:href="#g3cb07a7c6d6_2_2.6" transform="matrix(1.0 0.0 0.0 1.0 1.4142135623730951 1.4142135623730951)"/></g><defs><filter id="shadowFilter-g3cb07a7c6d6_2_2.6" filterUnits="userSpaceOnUse"><feGaussianBlur in="SourceAlpha" stdDeviation="1.7777777" result="blur"/><feComponentTransfer in="blur" color-interpolation-filters="sRGB"><feFuncR type="linear" slope="0" intercept="0.47843137"/><feFuncG type="linear" slope="0" intercept="0.654902"/><feFuncB type="linear" slope="0" intercept="1.0"/><feFuncA type="linear" slope="0.14117648" intercept="0"/></feComponentTransfer></filter></defs><g id="g3cb07a7c6d6_2_2.6"><path fill="#08101e" fill-opacity="0.81960785" d="m292.32 245.40022l0 0c0 -6.296173 5.1040344 -11.400223 11.4002075 -11.400223l99.59955 0c3.023529 0 5.923218 1.2010956 8.061188 3.3390503c2.13797 2.1379547 3.3390503 5.0376434 3.3390503 8.0611725l0 45.599564c0 6.2961426 -5.104065 11.4002075 -11.400238 11.4002075l-99.59955 0c-6.296173 0 -11.4002075 -5.104065 -11.4002075 -11.4002075z" fill-rule="evenodd"/><path stroke="#7aa7ff" stroke-width="1.6666666666666667" stroke-linejoin="round" stroke-linecap="butt" stroke-opacity="0.8509804" d="m292.32 245.40022l0 0c0 -6.296173 5.1040344 -11.400223 11.4002075 -11.400223l99.59955 0c3.023529 0 5.923218 1.2010956 8.061188 3.3390503c2.13797 2.1379547 3.3390503 5.0376434 3.3390503 8.0611725l0 45.599564c0 6.2961426 -5.104065 11.4002075 -11.400238 11.4002075l-99.59955 0c-6.296173 0 -11.4002075 -5.104065 -11.4002075 -11.4002075z" fill-rule="evenodd"/></g><path fill="#000000" fill-opacity="0.0" d="m300.96 241.2l105.119995 0l0 54.000015l-105.119995 0z" fill-rule="evenodd"/><path fill="#e6ecf1" d="m327.70242 260.82062l0 -1.765625l4.5625 0l0 4.171875q-0.671875 0.65625 -1.9375 1.140625q-1.25 0.484375 -2.546875 0.484375q-1.65625 0 -2.875 -0.6875q-1.21875 -0.6875 -1.84375 -1.96875q-0.609375 -1.28125 -0.609375 -2.796875q0 -1.640625 0.6875 -2.90625q0.6875 -1.2812347 2.015625 -1.9531097q1.0 -0.53125 2.5 -0.53125q1.953125 0 3.046875 0.828125q1.109375 0.8125 1.421875 2.2656097l-2.109375 0.390625q-0.21875 -0.78125 -0.828125 -1.21875q-0.609375 -0.45310974 -1.53125 -0.45310974q-1.390625 0 -2.203125 0.89060974q-0.8125 0.875 -0.8125 2.59375q0 1.875 0.828125 2.8125q0.828125 0.9375 2.171875 0.9375q0.671875 0 1.328125 -0.265625q0.671875 -0.265625 1.15625 -0.640625l0 -1.328125l-2.421875 0zm10.900085 1.4375l2.0 0.34375q-0.375 1.09375 -1.21875 1.671875q-0.828125 0.578125 -2.078125 0.578125q-1.984375 0 -2.9375 -1.296875q-0.75 -1.03125 -0.75 -2.625q0 -1.875 0.984375 -2.9375q0.984375 -1.078125 2.5 -1.078125q1.6875 0 2.671875 1.125q0.984375 1.109375 0.9375 3.421875l-5.03125 0q0.015625 0.890625 0.484375 1.390625q0.46875 0.5 1.15625 0.5q0.46875 0 0.78125 -0.25q0.328125 -0.265625 0.5 -0.84375zm0.109375 -2.03125q-0.015625 -0.875 -0.453125 -1.328125q-0.421875 -0.453125 -1.03125 -0.453125q-0.671875 0 -1.09375 0.484375q-0.421875 0.46875 -0.421875 1.296875l3.0 0zm10.557373 4.453125l-2.015625 0l0 -3.875q0 -1.234375 -0.125 -1.59375q-0.125 -0.359375 -0.421875 -0.5625q-0.296875 -0.203125 -0.703125 -0.203125q-0.515625 0 -0.9375 0.296875q-0.40625 0.28125 -0.5625 0.75q-0.15625 0.46875 -0.15625 1.75l0 3.4375l-2.015625 0l0 -7.59375l1.875 0l0 1.109375q1.0 -1.28125 2.5 -1.28125q0.671875 0 1.21875 0.234375q0.546875 0.234375 0.828125 0.609375q0.296875 0.375 0.40625 0.84375q0.109375 0.46875 0.109375 1.359375l0 4.71875zm6.436981 -2.421875l2.0 0.34375q-0.375 1.09375 -1.21875 1.671875q-0.828125 0.578125 -2.078125 0.578125q-1.984375 0 -2.9375 -1.296875q-0.75 -1.03125 -0.75 -2.625q0 -1.875 0.984375 -2.9375q0.984375 -1.078125 2.5 -1.078125q1.6875 0 2.671875 1.125q0.984375 1.109375 0.9375 3.421875l-5.03125 0q0.015625 0.890625 0.484375 1.390625q0.46875 0.5 1.15625 0.5q0.46875 0 0.78125 -0.25q0.328125 -0.265625 0.5 -0.84375zm0.109375 -2.03125q-0.015625 -0.875 -0.453125 -1.328125q-0.421875 -0.453125 -1.03125 -0.453125q-0.671875 0 -1.09375 0.484375q-0.421875 0.46875 -0.421875 1.296875l3.0 0zm5.572998 4.453125l-2.015625 0l0 -7.59375l1.859375 0l0 1.078125q0.484375 -0.765625 0.859375 -1.0q0.390625 -0.25 0.875 -0.25q0.6875 0 1.328125 0.375l-0.625 1.75q-0.5 -0.328125 -0.9375 -0.328125q-0.421875 0 -0.71875 0.234375q-0.296875 0.234375 -0.46875 0.84375q-0.15625 0.609375 -0.15625 2.546875l0 2.34375zm5.2817383 -5.28125l-1.828125 -0.328125q0.296875 -1.109375 1.046875 -1.625q0.765625 -0.53125 2.234375 -0.53125q1.359375 0 2.015625 0.3125q0.65625 0.3125 0.921875 0.8125q0.265625 0.484375 0.265625 1.796875l-0.015625 2.34375q0 1.0 0.09375 1.484375q0.09375 0.46875 0.359375 1.015625l-1.984375 0q-0.078125 -0.203125 -0.203125 -0.59375q-0.046875 -0.171875 -0.0625 -0.234375q-0.515625 0.5 -1.109375 0.75q-0.578125 0.25 -1.25 0.25q-1.171875 0 -1.859375 -0.640625q-0.671875 -0.640625 -0.671875 -1.609375q0 -0.640625 0.3125 -1.140625q0.3125 -0.515625 0.859375 -0.78125q0.5625 -0.265625 1.609375 -0.46875q1.40625 -0.265625 1.953125 -0.484375l0 -0.203125q0 -0.578125 -0.296875 -0.828125q-0.28125 -0.25 -1.078125 -0.25q-0.53125 0 -0.84375 0.21875q-0.296875 0.203125 -0.46875 0.734375zm2.6875 1.625q-0.390625 0.140625 -1.234375 0.328125q-0.828125 0.171875 -1.09375 0.34375q-0.390625 0.265625 -0.390625 0.703125q0 0.421875 0.3125 0.734375q0.3125 0.296875 0.8125 0.296875q0.53125 0 1.03125 -0.359375q0.359375 -0.265625 0.484375 -0.65625q0.078125 -0.265625 0.078125 -0.984375l0 -0.40625zm7.432373 -3.9375l0 1.59375l-1.375 0l0 3.0625q0 0.9375 0.03125 1.09375q0.046875 0.140625 0.1875 0.25q0.140625 0.09375 0.34375 0.09375q0.28125 0 0.8125 -0.1875l0.171875 1.5625q-0.703125 0.296875 -1.59375 0.296875q-0.546875 0 -0.984375 -0.171875q-0.421875 -0.1875 -0.640625 -0.46875q-0.203125 -0.296875 -0.28125 -0.796875q-0.0625 -0.359375 -0.0625 -1.421875l0 -3.3125l-0.921875 0l0 -1.59375l0.921875 0l0 -1.5156097l2.015625 -1.171875l0 2.6874847l1.375 0zm5.8025208 5.171875l2.0 0.34375q-0.375 1.09375 -1.21875 1.671875q-0.828125 0.578125 -2.078125 0.578125q-1.984375 0 -2.9375 -1.296875q-0.75 -1.03125 -0.75 -2.625q0 -1.875 0.984375 -2.9375q0.984375 -1.078125 2.5 -1.078125q1.6875 0 2.671875 1.125q0.984375 1.109375 0.9375 3.421875l-5.03125 0q0.015625 0.890625 0.484375 1.390625q0.46875 0.5 1.15625 0.5q0.46875 0 0.78125 -0.25q0.328125 -0.265625 0.5 -0.84375zm0.109375 -2.03125q-0.015625 -0.875 -0.453125 -1.328125q-0.421875 -0.453125 -1.03125 -0.453125q-0.671875 0 -1.09375 0.484375q-0.421875 0.46875 -0.421875 1.296875l3.0 0z" fill-rule="nonzero"/><path fill="#e6ecf1" d="m332.06686 278.87375l2.0625 -0.203125q0.1875 1.03125 0.75 1.515625q0.578125 0.484375 1.53125 0.484375q1.03125 0 1.546875 -0.421875q0.515625 -0.4375 0.515625 -1.015625q0 -0.375 -0.21875 -0.625q-0.21875 -0.265625 -0.75 -0.46875q-0.375 -0.125 -1.703125 -0.453125q-1.703125 -0.421875 -2.390625 -1.03125q-0.96875 -0.875 -0.96875 -2.125q0 -0.796875 0.453125 -1.484375q0.453125 -0.703125 1.3125 -1.0625q0.859375 -0.375 2.0625 -0.375q1.984375 0 2.96875 0.875q1.0 0.859375 1.0625 2.296875l-2.125 0.09375q-0.140625 -0.796875 -0.59375 -1.15625q-0.4375 -0.359375 -1.328125 -0.359375q-0.921875 0 -1.453125 0.390625q-0.328125 0.234375 -0.328125 0.640625q0 0.375 0.3125 0.640625q0.40625 0.34375 1.9375 0.703125q1.546875 0.359375 2.28125 0.75q0.75 0.390625 1.171875 1.078125q0.421875 0.671875 0.421875 1.65625q0 0.90625 -0.5 1.703125q-0.5 0.78125 -1.421875 1.171875q-0.921875 0.375 -2.28125 0.375q-1.984375 0 -3.0625 -0.921875q-1.0625 -0.921875 -1.265625 -2.671875zm10.322479 -7.078125l4.1875 0q1.25 0 1.859375 0.109375q0.609375 0.09375 1.09375 0.421875q0.484375 0.328125 0.796875 0.875q0.328125 0.546875 0.328125 1.234375q0 0.734375 -0.40625 1.359375q-0.390625 0.609375 -1.0625 0.90625q0.953125 0.28125 1.46875 0.953125q0.515625 0.671875 0.515625 1.578125q0 0.71875 -0.328125 1.40625q-0.328125 0.671875 -0.90625 1.078125q-0.578125 0.390625 -1.421875 0.484375q-0.53125 0.0625 -2.5625 0.078125l-3.5625 0l0 -10.484375zm2.109375 1.734375l0 2.4375l1.390625 0q1.234375 0 1.546875 -0.046875q0.53125 -0.0625 0.84375 -0.375q0.3125 -0.3125 0.3125 -0.8125q0 -0.484375 -0.265625 -0.78125q-0.265625 -0.3125 -0.796875 -0.375q-0.3125 -0.046875 -1.8125 -0.046875l-1.21875 0zm0 4.171875l0 2.8125l1.96875 0q1.140625 0 1.453125 -0.0625q0.46875 -0.09375 0.765625 -0.421875q0.296875 -0.328125 0.296875 -0.890625q0 -0.46875 -0.234375 -0.796875q-0.21875 -0.328125 -0.65625 -0.484375q-0.4375 -0.15625 -1.875 -0.15625l-1.71875 0zm8.037415 -0.609375q0 -1.59375 0.46875 -2.6875q0.359375 -0.796875 0.984375 -1.4375q0.625 -0.640625 1.359375 -0.9375q0.984375 -0.421875 2.25 -0.421875q2.328125 0 3.71875 1.4375q1.390625 1.4375 1.390625 4.0q0 2.546875 -1.390625 3.984375q-1.375 1.421875 -3.6875 1.421875q-2.328125 0 -3.71875 -1.421875q-1.375 -1.421875 -1.375 -3.9375zm2.171875 -0.0625q0 1.78125 0.828125 2.703125q0.828125 0.921875 2.09375 0.921875q1.265625 0 2.078125 -0.90625q0.8125 -0.921875 0.8125 -2.75q0 -1.796875 -0.796875 -2.6875q-0.78125 -0.890625 -2.09375 -0.890625q-1.3125 0 -2.125 0.90625q-0.796875 0.890625 -0.796875 2.703125zm9.618835 5.25l0 -10.484375l3.171875 0l1.90625 7.15625l1.890625 -7.15625l3.171875 0l0 10.484375l-1.96875 0l0 -8.265625l-2.078125 8.265625l-2.046875 0l-2.078125 -8.265625l0 8.265625l-1.96875 0z" fill-rule="nonzero"/><g filter="url(#shadowFilter-g3cb07a7c6d6_2_2.7)"><use xlink:href="#g3cb07a7c6d6_2_2.7" transform="matrix(1.0 0.0 0.0 1.0 1.4142135623730951 1.4142135623730951)"/></g><defs><filter id="shadowFilter-g3cb07a7c6d6_2_2.7" filterUnits="userSpaceOnUse"><feGaussianBlur in="SourceAlpha" stdDeviation="1.7777777" result="blur"/><feComponentTransfer in="blur" color-interpolation-filters="sRGB"><feFuncR type="linear" slope="0" intercept="0.47843137"/><feFuncG type="linear" slope="0" intercept="0.654902"/><feFuncB type="linear" slope="0" intercept="1.0"/><feFuncA type="linear" slope="0.14117648" intercept="0"/></feComponentTransfer></filter></defs><g id="g3cb07a7c6d6_2_2.7"><path fill="#08101e" fill-opacity="0.81960785" d="m418.68 245.40022l0 0c0 -6.296173 5.104065 -11.400223 11.400238 -11.400223l99.59952 0c3.0235596 0 5.923218 1.2010956 8.061218 3.3390503c2.1379395 2.1379547 3.3390503 5.0376434 3.3390503 8.0611725l0 45.599564c0 6.2961426 -5.104065 11.4002075 -11.400269 11.4002075l-99.59952 0c-6.296173 0 -11.400238 -5.104065 -11.400238 -11.4002075z" fill-rule="evenodd"/><path stroke="#7aa7ff" stroke-width="1.6666666666666667" stroke-linejoin="round" stroke-linecap="butt" stroke-opacity="0.8509804" d="m418.68 245.40022l0 0c0 -6.296173 5.104065 -11.400223 11.400238 -11.400223l99.59952 0c3.0235596 0 5.923218 1.2010956 8.061218 3.3390503c2.1379395 2.1379547 3.3390503 5.0376434 3.3390503 8.0611725l0 45.599564c0 6.2961426 -5.104065 11.4002075 -11.400269 11.4002075l-99.59952 0c-6.296173 0 -11.400238 -5.104065 -11.400238 -11.4002075z" fill-rule="evenodd"/></g><path fill="#000000" fill-opacity="0.0" d="m427.32 241.2l105.119995 0l0 54.000015l-105.119995 0z" fill-rule="evenodd"/><path fill="#e6ecf1" d="m467.78354 274.44l-2.734375 0l-1.078125 -2.8125l-4.953125 0l-1.03125 2.8125l-2.65625 0l4.828125 -12.40625l2.65625 0l4.96875 12.40625zm-4.625 -4.90625l-1.703125 -4.609375l-1.671875 4.609375l3.375 0zm10.045074 -4.078125l0 1.890625l-1.625 0l0 3.625q0 1.09375 0.046875 1.28125q0.046875 0.1875 0.203125 0.3125q0.171875 0.109375 0.421875 0.109375q0.328125 0 0.953125 -0.234375l0.203125 1.84375q-0.828125 0.359375 -1.875 0.359375q-0.65625 0 -1.171875 -0.21875q-0.515625 -0.21875 -0.765625 -0.546875q-0.234375 -0.34375 -0.3125 -0.9375q-0.078125 -0.40625 -0.078125 -1.671875l0 -3.921875l-1.09375 0l0 -1.890625l1.09375 0l0 -1.78125l2.375 -1.390625l0 3.171875l1.625 0zm5.7703857 0l0 1.890625l-1.625 0l0 3.625q0 1.09375 0.046875 1.28125q0.046875 0.1875 0.203125 0.3125q0.171875 0.109375 0.421875 0.109375q0.328125 0 0.953125 -0.234375l0.203125 1.84375q-0.828125 0.359375 -1.875 0.359375q-0.65625 0 -1.171875 -0.21875q-0.515625 -0.21875 -0.765625 -0.546875q-0.234375 -0.34375 -0.3125 -0.9375q-0.078125 -0.40625 -0.078125 -1.671875l0 -3.921875l-1.09375 0l0 -1.890625l1.09375 0l0 -1.78125l2.375 -1.390625l0 3.171875l1.625 0zm6.8641663 6.125l2.359375 0.390625q-0.453125 1.3125 -1.4375 2.0q-0.984375 0.671875 -2.46875 0.671875q-2.34375 0 -3.46875 -1.53125q-0.890625 -1.234375 -0.890625 -3.09375q0 -2.234375 1.171875 -3.5q1.171875 -1.265625 2.953125 -1.265625q2.0 0 3.15625 1.328125q1.171875 1.3125 1.109375 4.046875l-5.953125 0q0.03125 1.0625 0.578125 1.65625q0.546875 0.578125 1.375 0.578125q0.546875 0 0.921875 -0.296875q0.390625 -0.3125 0.59375 -0.984375zm0.125 -2.40625q-0.015625 -1.03125 -0.53125 -1.5625q-0.5 -0.546875 -1.234375 -0.546875q-0.78125 0 -1.28125 0.578125q-0.515625 0.5625 -0.5 1.53125l3.546875 0zm3.46521 2.703125l2.390625 -0.359375q0.140625 0.6875 0.609375 1.046875q0.46875 0.359375 1.3125 0.359375q0.921875 0 1.375 -0.34375q0.3125 -0.234375 0.3125 -0.625q0 -0.28125 -0.15625 -0.453125q-0.1875 -0.171875 -0.796875 -0.3125q-2.875 -0.640625 -3.65625 -1.15625q-1.0625 -0.734375 -1.0625 -2.03125q0 -1.15625 0.921875 -1.953125q0.921875 -0.796875 2.859375 -0.796875q1.84375 0 2.734375 0.609375q0.90625 0.59375 1.25 1.765625l-2.25 0.421875q-0.140625 -0.53125 -0.546875 -0.8125q-0.390625 -0.28125 -1.140625 -0.28125q-0.9375 0 -1.34375 0.265625q-0.28125 0.1875 -0.28125 0.484375q0 0.25 0.25 0.4375q0.3125 0.234375 2.203125 0.671875q1.90625 0.421875 2.671875 1.046875q0.734375 0.640625 0.734375 1.765625q0 1.234375 -1.03125 2.125q-1.03125 0.890625 -3.046875 0.890625q-1.84375 0 -2.921875 -0.734375q-1.0625 -0.75 -1.390625 -2.03125zm14.59021 -6.421875l0 1.890625l-1.625 0l0 3.625q0 1.09375 0.046875 1.28125q0.046875 0.1875 0.203125 0.3125q0.171875 0.109375 0.421875 0.109375q0.328125 0 0.953125 -0.234375l0.203125 1.84375q-0.828125 0.359375 -1.875 0.359375q-0.65625 0 -1.171875 -0.21875q-0.515625 -0.21875 -0.765625 -0.546875q-0.234375 -0.34375 -0.3125 -0.9375q-0.078125 -0.40625 -0.078125 -1.671875l0 -3.921875l-1.09375 0l0 -1.890625l1.09375 0l0 -1.78125l2.375 -1.390625l0 3.171875l1.625 0z" fill-rule="nonzero"/><g filter="url(#shadowFilter-g3cb07a7c6d6_2_2.8)"><use xlink:href="#g3cb07a7c6d6_2_2.8" transform="matrix(1.0 0.0 0.0 1.0 1.4142135623730951 1.4142135623730951)"/></g><defs><filter id="shadowFilter-g3cb07a7c6d6_2_2.8" filterUnits="userSpaceOnUse"><feGaussianBlur in="SourceAlpha" stdDeviation="1.7777777" result="blur"/><feComponentTransfer in="blur" color-interpolation-filters="sRGB"><feFuncR type="linear" slope="0" intercept="0.47843137"/><feFuncG type="linear" slope="0" intercept="0.654902"/><feFuncB type="linear" slope="0" intercept="1.0"/><feFuncA type="linear" slope="0.14117648" intercept="0"/></feComponentTransfer></filter></defs><g id="g3cb07a7c6d6_2_2.8"><path fill="#08101e" fill-opacity="0.81960785" d="m545.04 245.40022l0 0c0 -6.296173 5.104065 -11.400223 11.400269 -11.400223l99.59955 0c3.0234985 0 5.923218 1.2010956 8.061157 3.3390503c2.1379395 2.1379547 3.3390503 5.0376434 3.3390503 8.0611725l0 45.599564c0 6.2961426 -5.104065 11.4002075 -11.4002075 11.4002075l-99.59955 0c-6.2962036 0 -11.400269 -5.104065 -11.400269 -11.4002075z" fill-rule="evenodd"/><path stroke="#7aa7ff" stroke-width="1.6666666666666667" stroke-linejoin="round" stroke-linecap="butt" stroke-opacity="0.8509804" d="m545.04 245.40022l0 0c0 -6.296173 5.104065 -11.400223 11.400269 -11.400223l99.59955 0c3.0234985 0 5.923218 1.2010956 8.061157 3.3390503c2.1379395 2.1379547 3.3390503 5.0376434 3.3390503 8.0611725l0 45.599564c0 6.2961426 -5.104065 11.4002075 -11.4002075 11.4002075l-99.59955 0c-6.2962036 0 -11.400269 -5.104065 -11.400269 -11.4002075z" fill-rule="evenodd"/></g><path fill="#000000" fill-opacity="0.0" d="m553.68 241.2l105.119995 0l0 54.000015l-105.119995 0z" fill-rule="evenodd"/><path fill="#e6ecf1" d="m588.0394 261.27374l2.0625 -0.203125q0.1875 1.03125 0.75 1.515625q0.578125 0.484375 1.53125 0.484375q1.03125 0 1.546875 -0.421875q0.515625 -0.4375 0.515625 -1.015625q0 -0.375 -0.21875 -0.625q-0.21875 -0.265625 -0.75 -0.46875q-0.375 -0.125 -1.703125 -0.453125q-1.703125 -0.421875 -2.390625 -1.03125q-0.96875 -0.875 -0.96875 -2.125q0 -0.796875 0.453125 -1.4843597q0.453125 -0.703125 1.3125 -1.0625q0.859375 -0.375 2.0625 -0.375q1.984375 0 2.96875 0.875q1.0 0.859375 1.0625 2.2968597l-2.125 0.09375q-0.140625 -0.796875 -0.59375 -1.15625q-0.4375 -0.35935974 -1.328125 -0.35935974q-0.921875 0 -1.453125 0.39060974q-0.328125 0.234375 -0.328125 0.640625q0 0.375 0.3125 0.640625q0.40625 0.34375 1.9375 0.703125q1.546875 0.359375 2.28125 0.75q0.75 0.390625 1.171875 1.078125q0.421875 0.671875 0.421875 1.65625q0 0.90625 -0.5 1.703125q-0.5 0.78125 -1.421875 1.171875q-0.921875 0.375 -2.28125 0.375q-1.984375 0 -3.0625 -0.921875q-1.0625 -0.921875 -1.265625 -2.671875zm13.775635 -4.1875l0 1.59375l-1.375 0l0 3.0625q0 0.9375 0.03125 1.09375q0.046875 0.140625 0.1875 0.25q0.140625 0.09375 0.34375 0.09375q0.28125 0 0.8125 -0.1875l0.171875 1.5625q-0.703125 0.296875 -1.59375 0.296875q-0.546875 0 -0.984375 -0.171875q-0.421875 -0.1875 -0.640625 -0.46875q-0.203125 -0.296875 -0.28125 -0.796875q-0.0625 -0.359375 -0.0625 -1.421875l0 -3.3125l-0.921875 0l0 -1.59375l0.921875 0l0 -1.5156097l2.015625 -1.171875l0 2.6874847l1.375 0zm0.94311523 3.6875q0 -1.0 0.484375 -1.9375q0.5 -0.9375 1.40625 -1.421875q0.90625 -0.5 2.015625 -0.5q1.71875 0 2.828125 1.125q1.109375 1.109375 1.109375 2.8125q0 1.734375 -1.125 2.875q-1.109375 1.125 -2.796875 1.125q-1.046875 0 -2.0 -0.46875q-0.9375 -0.46875 -1.4375 -1.375q-0.484375 -0.921875 -0.484375 -2.234375zm2.046875 0.109375q0 1.125 0.53125 1.734375q0.546875 0.59375 1.34375 0.59375q0.78125 0 1.3125 -0.59375q0.53125 -0.609375 0.53125 -1.75q0 -1.125 -0.53125 -1.71875q-0.53125 -0.609375 -1.3125 -0.609375q-0.796875 0 -1.34375 0.609375q-0.53125 0.59375 -0.53125 1.734375zm9.296387 3.796875l-2.015625 0l0 -7.59375l1.859375 0l0 1.078125q0.484375 -0.765625 0.859375 -1.0q0.390625 -0.25 0.875 -0.25q0.6875 0 1.328125 0.375l-0.625 1.75q-0.5 -0.328125 -0.9375 -0.328125q-0.421875 0 -0.71875 0.234375q-0.296875 0.234375 -0.46875 0.84375q-0.15625 0.609375 -0.15625 2.546875l0 2.34375zm8.172363 -2.421875l2.0 0.34375q-0.375 1.09375 -1.21875 1.671875q-0.828125 0.578125 -2.078125 0.578125q-1.984375 0 -2.9375 -1.296875q-0.75 -1.03125 -0.75 -2.625q0 -1.875 0.984375 -2.9375q0.984375 -1.078125 2.5 -1.078125q1.6875 0 2.671875 1.125q0.984375 1.109375 0.9375 3.421875l-5.03125 0q0.015625 0.890625 0.484375 1.390625q0.46875 0.5 1.15625 0.5q0.46875 0 0.78125 -0.25q0.328125 -0.265625 0.5 -0.84375zm0.109375 -2.03125q-0.015625 -0.875 -0.453125 -1.328125q-0.421875 -0.453125 -1.03125 -0.453125q-0.671875 0 -1.09375 0.484375q-0.421875 0.46875 -0.421875 1.296875l3.0 0z" fill-rule="nonzero"/><path fill="#e6ecf1" d="m580.3267 279.85812l2.0 0.34375q-0.375 1.09375 -1.21875 1.671875q-0.828125 0.578125 -2.078125 0.578125q-1.984375 0 -2.9375 -1.296875q-0.75 -1.03125 -0.75 -2.625q0 -1.875 0.984375 -2.9375q0.984375 -1.078125 2.5 -1.078125q1.6875 0 2.671875 1.125q0.984375 1.109375 0.9375 3.421875l-5.03125 0q0.015625 0.890625 0.484375 1.390625q0.46875 0.5 1.15625 0.5q0.46875 0 0.78125 -0.25q0.328125 -0.265625 0.5 -0.84375zm0.109375 -2.03125q-0.015625 -0.875 -0.453125 -1.328125q-0.421875 -0.453125 -1.03125 -0.453125q-0.671875 0 -1.09375 0.484375q-0.421875 0.46875 -0.421875 1.296875l3.0 0zm5.729248 4.453125l-3.0625 -7.59375l2.109375 0l1.4375 3.875l0.40625 1.296875q0.171875 -0.5 0.21875 -0.65625q0.09375 -0.328125 0.203125 -0.640625l1.453125 -3.875l2.0625 0l-3.015625 7.59375l-1.8125 0zm6.057373 -8.625l0 -1.859375l2.015625 0l0 1.859375l-2.015625 0zm0 8.625l0 -7.59375l2.015625 0l0 7.59375l-2.015625 0zm11.04071 0l-1.859375 0l0 -1.109375q-0.46875 0.640625 -1.109375 0.96875q-0.625 0.3125 -1.265625 0.3125q-1.3125 0 -2.25 -1.046875q-0.9375 -1.0625 -0.9375 -2.953125q0 -1.9375 0.90625 -2.9375q0.921875 -1.0 2.3125 -1.0q1.265625 0 2.203125 1.046875l0 -3.765625l2.0 0l0 10.484375zm-5.359375 -3.96875q0 1.21875 0.328125 1.765625q0.5 0.78125 1.359375 0.78125q0.703125 0 1.1875 -0.578125q0.484375 -0.59375 0.484375 -1.765625q0 -1.3125 -0.46875 -1.890625q-0.46875 -0.578125 -1.203125 -0.578125q-0.71875 0 -1.203125 0.578125q-0.484375 0.5625 -0.484375 1.6875zm11.749512 1.546875l2.0 0.34375q-0.375 1.09375 -1.21875 1.671875q-0.828125 0.578125 -2.078125 0.578125q-1.984375 0 -2.9375 -1.296875q-0.75 -1.03125 -0.75 -2.625q0 -1.875 0.984375 -2.9375q0.984375 -1.078125 2.5 -1.078125q1.6875 0 2.671875 1.125q0.984375 1.109375 0.9375 3.421875l-5.03125 0q0.015625 0.890625 0.484375 1.390625q0.46875 0.5 1.15625 0.5q0.46875 0 0.78125 -0.25q0.328125 -0.265625 0.5 -0.84375zm0.109375 -2.03125q-0.015625 -0.875 -0.453125 -1.328125q-0.421875 -0.453125 -1.03125 -0.453125q-0.671875 0 -1.09375 0.484375q-0.421875 0.46875 -0.421875 1.296875l3.0 0zm10.557373 4.453125l-2.015625 0l0 -3.875q0 -1.234375 -0.125 -1.59375q-0.125 -0.359375 -0.421875 -0.5625q-0.296875 -0.203125 -0.703125 -0.203125q-0.515625 0 -0.9375 0.296875q-0.40625 0.28125 -0.5625 0.75q-0.15625 0.46875 -0.15625 1.75l0 3.4375l-2.015625 0l0 -7.59375l1.875 0l0 1.109375q1.0 -1.28125 2.5 -1.28125q0.671875 0 1.21875 0.234375q0.546875 0.234375 0.828125 0.609375q0.296875 0.375 0.40625 0.84375q0.109375 0.46875 0.109375 1.359375l0 4.71875zm8.655701 -5.359375l-1.96875 0.359375q-0.109375 -0.59375 -0.46875 -0.890625q-0.34375 -0.296875 -0.90625 -0.296875q-0.75 0 -1.203125 0.515625q-0.453125 0.515625 -0.453125 1.734375q0 1.359375 0.453125 1.921875q0.453125 0.546875 1.21875 0.546875q0.578125 0 0.9375 -0.328125q0.375 -0.328125 0.515625 -1.109375l1.984375 0.328125q-0.3125 1.359375 -1.1875 2.0625q-0.875 0.6875 -2.328125 0.6875q-1.671875 0 -2.671875 -1.046875q-0.984375 -1.0625 -0.984375 -2.921875q0 -1.875 0.984375 -2.921875q1.0 -1.046875 2.703125 -1.046875q1.390625 0 2.203125 0.59375q0.828125 0.59375 1.171875 1.8125zm5.932373 2.9375l2.0 0.34375q-0.375 1.09375 -1.21875 1.671875q-0.828125 0.578125 -2.078125 0.578125q-1.984375 0 -2.9375 -1.296875q-0.75 -1.03125 -0.75 -2.625q0 -1.875 0.984375 -2.9375q0.984375 -1.078125 2.5 -1.078125q1.6875 0 2.671875 1.125q0.984375 1.109375 0.9375 3.421875l-5.03125 0q0.015625 0.890625 0.484375 1.390625q0.46875 0.5 1.15625 0.5q0.46875 0 0.78125 -0.25q0.328125 -0.265625 0.5 -0.84375zm0.109375 -2.03125q-0.015625 -0.875 -0.453125 -1.328125q-0.421875 -0.453125 -1.03125 -0.453125q-0.671875 0 -1.09375 0.484375q-0.421875 0.46875 -0.421875 1.296875l3.0 0z" fill-rule="nonzero"/><g filter="url(#shadowFilter-g3cb07a7c6d6_2_2.9)"><use xlink:href="#g3cb07a7c6d6_2_2.9" transform="matrix(1.0 0.0 0.0 1.0 1.8856180831641014 1.8856180831641396)"/></g><defs><filter id="shadowFilter-g3cb07a7c6d6_2_2.9" filterUnits="userSpaceOnUse"><feGaussianBlur in="SourceAlpha" stdDeviation="2.6666667" result="blur"/><feComponentTransfer in="blur" color-interpolation-filters="sRGB"><feFuncR type="linear" slope="0" intercept="0.0"/><feFuncG type="linear" slope="0" intercept="0.9019608"/><feFuncB type="linear" slope="0" intercept="1.0"/><feFuncA type="linear" slope="0.21960784" intercept="0"/></feComponentTransfer></filter></defs><g id="g3cb07a7c6d6_2_2.9"><path fill="#0b1630" fill-opacity="0.9019608" d="m671.4 245.40022l0 0c0 -6.296173 5.104004 -11.400223 11.4002075 -11.400223l99.59955 0c3.0234985 0 5.923218 1.2010956 8.061157 3.3390503c2.1380005 2.1379547 3.3390503 5.0376434 3.3390503 8.0611725l0 45.599564c0 6.2961426 -5.104065 11.4002075 -11.4002075 11.4002075l-99.59955 0c-6.2962036 0 -11.4002075 -5.104065 -11.4002075 -11.4002075z" fill-rule="evenodd"/><path stroke="#00e6ff" stroke-width="3.0" stroke-linejoin="round" stroke-linecap="butt" d="m671.4 245.40022l0 0c0 -6.296173 5.104004 -11.400223 11.4002075 -11.400223l99.59955 0c3.0234985 0 5.923218 1.2010956 8.061157 3.3390503c2.1380005 2.1379547 3.3390503 5.0376434 3.3390503 8.0611725l0 45.599564c0 6.2961426 -5.104065 11.4002075 -11.4002075 11.4002075l-99.59955 0c-6.2962036 0 -11.4002075 -5.104065 -11.4002075 -11.4002075z" fill-rule="evenodd"/></g><path fill="#000000" fill-opacity="0.0" d="m680.04 241.2l105.119995 0l0 54.000015l-105.119995 0z" fill-rule="evenodd"/><path fill="#e6ecf1" d="m703.30914 264.04l-4.4375 -12.406265l2.71875 0l3.140625 9.187515l3.046875 -9.187515l2.65625 0l-4.453125 12.406265l-2.671875 0zm12.632629 -2.859375l2.359375 0.390625q-0.453125 1.3125 -1.4375 2.0q-0.984375 0.671875 -2.46875 0.671875q-2.34375 0 -3.46875 -1.53125q-0.890625 -1.234375 -0.890625 -3.09375q0 -2.234375 1.171875 -3.5q1.171875 -1.2656403 2.953125 -1.2656403q2.0 0 3.15625 1.3281403q1.171875 1.3125 1.109375 4.046875l-5.953125 0q0.03125 1.0625 0.578125 1.65625q0.546875 0.578125 1.375 0.578125q0.546875 0 0.921875 -0.296875q0.390625 -0.3125 0.59375 -0.984375zm0.125 -2.40625q-0.015625 -1.03125 -0.53125 -1.5625q-0.5 -0.546875 -1.234375 -0.546875q-0.78125 0 -1.28125 0.578125q-0.515625 0.5625 -0.5 1.53125l3.546875 0zm6.574585 5.265625l-2.375 0l0 -8.98439l2.203125 0l0 1.2812653q0.578125 -0.90626526 1.03125 -1.1875153q0.453125 -0.296875 1.015625 -0.296875q0.8125 0 1.578125 0.453125l-0.734375 2.0625153q-0.609375 -0.390625 -1.125 -0.390625q-0.5 0 -0.84375 0.28125q-0.34375 0.28125 -0.546875 1.0q-0.203125 0.71875 -0.203125 3.0l0 2.78125zm4.477783 -10.20314l0 -2.203125l2.375 0l0 2.203125l-2.375 0zm0 10.20314l0 -8.98439l2.375 0l0 8.98439l-2.375 0zm3.767456 -8.98439l1.3125 0l0 -0.671875q0 -1.140625 0.234375 -1.6875q0.25 -0.5625 0.890625 -0.90625q0.65625 -0.359375 1.65625 -0.359375q1.015625 0 1.984375 0.296875l-0.328125 1.65625q-0.5625 -0.125 -1.09375 -0.125q-0.515625 0 -0.734375 0.234375q-0.21875 0.234375 -0.21875 0.921875l0 0.640625l1.765625 0l0 1.8750153l-1.765625 0l0 7.109375l-2.390625 0l0 -7.109375l-1.3125 0l0 -1.8750153zm5.6922607 0l2.515625 0l2.15625 6.3750153l2.09375 -6.3750153l2.46875 0l-3.171875 8.64064l-0.5625 1.578125q-0.3125 0.78125 -0.609375 1.1875q-0.28125 0.421875 -0.65625 0.671875q-0.359375 0.265625 -0.90625 0.40625q-0.53125 0.140625 -1.203125 0.140625q-0.6875 0 -1.34375 -0.140625l-0.21875 -1.859375q0.5625 0.109375 1.015625 0.109375q0.828125 0 1.21875 -0.484375q0.40625 -0.484375 0.609375 -1.234375l-3.40625 -9.01564zm17.342041 2.7343903l-2.15625 -0.390625q0.375 -1.296875 1.25 -1.9218903q0.890625 -0.625 2.640625 -0.625q1.59375 0 2.375 0.375q0.78125 0.375 1.09375 0.95314026q0.3125 0.578125 0.3125 2.125l-0.015625 2.78125q0 1.1875 0.109375 1.75q0.109375 0.5625 0.421875 1.203125l-2.34375 0q-0.09375 -0.234375 -0.234375 -0.703125q-0.0625 -0.203125 -0.078125 -0.28125q-0.609375 0.59375 -1.3125 0.890625q-0.6875 0.296875 -1.46875 0.296875q-1.390625 0 -2.1875 -0.75q-0.796875 -0.75 -0.796875 -1.90625q0 -0.765625 0.359375 -1.359375q0.359375 -0.59375 1.015625 -0.90625q0.65625 -0.328125 1.890625 -0.5625q1.671875 -0.3125 2.3125 -0.578125l0 -0.234375q0 -0.6875 -0.34375 -0.984375q-0.328125 -0.296875 -1.28125 -0.296875q-0.625 0 -0.984375 0.25q-0.359375 0.25 -0.578125 0.875zm3.1875 1.9375q-0.453125 0.15625 -1.453125 0.375q-0.984375 0.203125 -1.296875 0.40625q-0.453125 0.328125 -0.453125 0.828125q0 0.5 0.359375 0.875q0.375 0.359375 0.953125 0.359375q0.640625 0 1.234375 -0.421875q0.421875 -0.328125 0.5625 -0.796875q0.09375 -0.296875 0.09375 -1.15625l0 -0.46875zm8.793335 -4.6718903l0 1.8906403l-1.625 0l0 3.625q0 1.09375 0.046875 1.28125q0.046875 0.1875 0.203125 0.3125q0.171875 0.109375 0.421875 0.109375q0.328125 0 0.953125 -0.234375l0.203125 1.84375q-0.828125 0.359375 -1.875 0.359375q-0.65625 0 -1.171875 -0.21875q-0.515625 -0.21875 -0.765625 -0.546875q-0.234375 -0.34375 -0.3125 -0.9375q-0.078125 -0.40625 -0.078125 -1.671875l0 -3.921875l-1.09375 0l0 -1.8906403l1.09375 0l0 -1.78125l2.375 -1.390625l0 3.171875l1.625 0z" fill-rule="nonzero"/><path fill="#e6ecf1" d="m714.1631 284.84l-2.203125 0l0 -1.3125q-0.5625 0.765625 -1.3125 1.140625q-0.734375 0.375 -1.5 0.375q-1.546875 0 -2.65625 -1.25q-1.109375 -1.25 -1.109375 -3.484375q0 -2.28125 1.078125 -3.46875q1.078125 -1.1875 2.71875 -1.1875q1.5 0 2.609375 1.25l0 -4.46875l2.375 0l0 12.40625zm-6.34375 -4.6875q0 1.4375 0.390625 2.078125q0.578125 0.9375 1.609375 0.9375q0.828125 0 1.390625 -0.703125q0.578125 -0.703125 0.578125 -2.078125q0 -1.546875 -0.5625 -2.234375q-0.546875 -0.6875 -1.421875 -0.6875q-0.84375 0 -1.421875 0.671875q-0.5625 0.671875 -0.5625 2.015625zm13.897217 1.828125l2.359375 0.390625q-0.453125 1.3125 -1.4375 2.0q-0.984375 0.671875 -2.46875 0.671875q-2.34375 0 -3.46875 -1.53125q-0.890625 -1.234375 -0.890625 -3.09375q0 -2.234375 1.171875 -3.5q1.171875 -1.265625 2.953125 -1.265625q2.0 0 3.15625 1.328125q1.171875 1.3125 1.109375 4.046875l-5.953125 0q0.03125 1.0625 0.578125 1.65625q0.546875 0.578125 1.375 0.578125q0.546875 0 0.921875 -0.296875q0.390625 -0.3125 0.59375 -0.984375zm0.125 -2.40625q-0.015625 -1.03125 -0.53125 -1.5625q-0.5 -0.546875 -1.234375 -0.546875q-0.78125 0 -1.28125 0.578125q-0.515625 0.5625 -0.5 1.53125l3.546875 0zm4.230835 -3.71875l2.21875 0l0 1.3125q0.4375 -0.671875 1.171875 -1.09375q0.734375 -0.421875 1.625 -0.421875q1.578125 0 2.65625 1.234375q1.09375 1.21875 1.09375 3.40625q0 2.25 -1.109375 3.5q-1.09375 1.25 -2.65625 1.25q-0.734375 0 -1.34375 -0.296875q-0.609375 -0.296875 -1.28125 -1.015625l0 4.53125l-2.375 0l0 -12.40625zm2.359375 4.34375q0 1.515625 0.59375 2.234375q0.609375 0.71875 1.46875 0.71875q0.828125 0 1.375 -0.65625q0.546875 -0.671875 0.546875 -2.1875q0 -1.40625 -0.5625 -2.09375q-0.5625 -0.6875 -1.40625 -0.6875q-0.875 0 -1.453125 0.671875q-0.5625 0.671875 -0.5625 2.0zm8.303467 4.640625l0 -12.40625l2.375 0l0 12.40625l-2.375 0zm4.25177 -4.625q0 -1.171875 0.578125 -2.28125q0.59375 -1.109375 1.65625 -1.6875q1.078125 -0.59375 2.40625 -0.59375q2.03125 0 3.328125 1.328125q1.3125 1.3125 1.3125 3.34375q0 2.03125 -1.328125 3.375q-1.3125 1.34375 -3.296875 1.34375q-1.234375 0 -2.359375 -0.546875q-1.125 -0.5625 -1.71875 -1.640625q-0.578125 -1.09375 -0.578125 -2.640625zm2.4375 0.125q0 1.34375 0.640625 2.0625q0.640625 0.703125 1.5625 0.703125q0.9375 0 1.5625 -0.703125q0.625 -0.71875 0.625 -2.078125q0 -1.3125 -0.625 -2.015625q-0.625 -0.71875 -1.5625 -0.71875q-0.921875 0 -1.5625 0.71875q-0.640625 0.703125 -0.640625 2.03125zm7.584717 -4.484375l2.515625 0l2.15625 6.375l2.09375 -6.375l2.46875 0l-3.171875 8.640625l-0.5625 1.578125q-0.3125 0.78125 -0.609375 1.1875q-0.28125 0.421875 -0.65625 0.671875q-0.359375 0.265625 -0.90625 0.40625q-0.53125 0.140625 -1.203125 0.140625q-0.6875 0 -1.34375 -0.140625l-0.21875 -1.859375q0.5625 0.109375 1.015625 0.109375q0.828125 0 1.21875 -0.484375q0.40625 -0.484375 0.609375 -1.234375l-3.40625 -9.015625z" fill-rule="nonzero"/><g filter="url(#shadowFilter-g3cb07a7c6d6_2_2.10)"><use xlink:href="#g3cb07a7c6d6_2_2.10" transform="matrix(1.0 0.0 0.0 1.0 1.4142135623730951 1.4142135623730951)"/></g><defs><filter id="shadowFilter-g3cb07a7c6d6_2_2.10" filterUnits="userSpaceOnUse"><feGaussianBlur in="SourceAlpha" stdDeviation="1.7777777" result="blur"/><feComponentTransfer in="blur" color-interpolation-filters="sRGB"><feFuncR type="linear" slope="0" intercept="0.47843137"/><feFuncG type="linear" slope="0" intercept="0.654902"/><feFuncB type="linear" slope="0" intercept="1.0"/><feFuncA type="linear" slope="0.14117648" intercept="0"/></feComponentTransfer></filter></defs><g id="g3cb07a7c6d6_2_2.10"><path fill="#08101e" fill-opacity="0.81960785" d="m797.76 245.40022l0 0c0 -6.296173 5.104065 -11.400223 11.4002075 -11.400223l99.59955 0c3.0235596 0 5.923218 1.2010956 8.061157 3.3390503c2.1380005 2.1379547 3.3390503 5.0376434 3.3390503 8.0611725l0 45.599564c0 6.2961426 -5.104004 11.4002075 -11.4002075 11.4002075l-99.59955 0c-6.2961426 0 -11.4002075 -5.104065 -11.4002075 -11.4002075z" fill-rule="evenodd"/><path stroke="#7aa7ff" stroke-width="1.6666666666666667" stroke-linejoin="round" stroke-linecap="butt" stroke-opacity="0.8509804" d="m797.76 245.40022l0 0c0 -6.296173 5.104065 -11.400223 11.4002075 -11.400223l99.59955 0c3.0235596 0 5.923218 1.2010956 8.061157 3.3390503c2.1380005 2.1379547 3.3390503 5.0376434 3.3390503 8.0611725l0 45.599564c0 6.2961426 -5.104004 11.4002075 -11.4002075 11.4002075l-99.59955 0c-6.2961426 0 -11.4002075 -5.104065 -11.4002075 -11.4002075z" fill-rule="evenodd"/></g><path fill="#000000" fill-opacity="0.0" d="m806.4 241.2l105.119995 0l0 54.000015l-105.119995 0z" fill-rule="evenodd"/><path fill="#e6ecf1" d="m826.2386 264.68l0 -10.48436l4.453125 0q1.6875 0 2.4375 0.28125q0.765625 0.28125 1.21875 1.0q0.46875 0.71873474 0.46875 1.6562347q0 1.171875 -0.703125 1.953125q-0.6875 0.765625 -2.0625 0.96875q0.6875 0.390625 1.125 0.875q0.453125 0.484375 1.203125 1.703125l1.28125 2.046875l-2.53125 0l-1.53125 -2.28125q-0.8125 -1.21875 -1.109375 -1.53125q-0.296875 -0.328125 -0.640625 -0.4375q-0.34375 -0.125 -1.0625 -0.125l-0.4375 0l0 4.375l-2.109375 0zm2.109375 -6.046875l1.578125 0q1.515625 0 1.890625 -0.125q0.390625 -0.140625 0.59375 -0.453125q0.21875 -0.3125 0.21875 -0.78125q0 -0.53125 -0.28125 -0.859375q-0.28125 -0.328125 -0.796875 -0.42185974q-0.25 -0.03125 -1.546875 -0.03125l-1.65625 0l0 2.6718597zm12.849915 3.625l2.0 0.34375q-0.375 1.09375 -1.21875 1.671875q-0.828125 0.578125 -2.078125 0.578125q-1.984375 0 -2.9375 -1.296875q-0.75 -1.03125 -0.75 -2.625q0 -1.875 0.984375 -2.9375q0.984375 -1.078125 2.5 -1.078125q1.6875 0 2.671875 1.125q0.984375 1.109375 0.9375 3.421875l-5.03125 0q0.015625 0.890625 0.484375 1.390625q0.46875 0.5 1.15625 0.5q0.46875 0 0.78125 -0.25q0.328125 -0.265625 0.5 -0.84375zm0.109375 -2.03125q-0.015625 -0.875 -0.453125 -1.328125q-0.421875 -0.453125 -1.03125 -0.453125q-0.671875 0 -1.09375 0.484375q-0.421875 0.46875 -0.421875 1.296875l3.0 0zm8.635437 4.453125l0 -1.140625q-0.40625 0.609375 -1.09375 0.96875q-0.671875 0.34375 -1.421875 0.34375q-0.765625 0 -1.375 -0.328125q-0.609375 -0.34375 -0.875 -0.953125q-0.265625 -0.609375 -0.265625 -1.6875l0 -4.796875l2.0 0l0 3.484375q0 1.609375 0.109375 1.96875q0.109375 0.359375 0.40625 0.578125q0.296875 0.203125 0.75 0.203125q0.515625 0 0.921875 -0.28125q0.40625 -0.28125 0.546875 -0.703125q0.15625 -0.421875 0.15625 -2.046875l0 -3.203125l2.015625 0l0 7.59375l-1.875 0zm3.2495117 -2.171875l2.015625 -0.296875q0.125 0.578125 0.515625 0.890625q0.40625 0.296875 1.109375 0.296875q0.78125 0 1.171875 -0.28125q0.265625 -0.203125 0.265625 -0.546875q0 -0.21875 -0.140625 -0.375q-0.15625 -0.140625 -0.671875 -0.265625q-2.4375 -0.53125 -3.078125 -0.984375q-0.90625 -0.609375 -0.90625 -1.703125q0 -0.984375 0.78125 -1.65625q0.78125 -0.671875 2.421875 -0.671875q1.546875 0 2.3125 0.515625q0.765625 0.5 1.046875 1.484375l-1.90625 0.359375q-0.109375 -0.453125 -0.453125 -0.6875q-0.34375 -0.234375 -0.96875 -0.234375q-0.796875 0 -1.140625 0.21875q-0.234375 0.15625 -0.234375 0.40625q0 0.21875 0.203125 0.375q0.28125 0.203125 1.875 0.5625q1.609375 0.359375 2.25 0.890625q0.625 0.546875 0.625 1.5q0 1.046875 -0.875 1.796875q-0.859375 0.75 -2.578125 0.75q-1.546875 0 -2.453125 -0.625q-0.90625 -0.640625 -1.1875 -1.71875zm13.260498 -0.25l2.0 0.34375q-0.375 1.09375 -1.21875 1.671875q-0.828125 0.578125 -2.078125 0.578125q-1.984375 0 -2.9375 -1.296875q-0.75 -1.03125 -0.75 -2.625q0 -1.875 0.984375 -2.9375q0.984375 -1.078125 2.5 -1.078125q1.6875 0 2.671875 1.125q0.984375 1.109375 0.9375 3.421875l-5.03125 0q0.015625 0.890625 0.484375 1.390625q0.46875 0.5 1.15625 0.5q0.46875 0 0.78125 -0.25q0.328125 -0.265625 0.5 -0.84375zm0.109375 -2.03125q-0.015625 -0.875 -0.453125 -1.328125q-0.421875 -0.453125 -1.03125 -0.453125q-0.671875 0 -1.09375 0.484375q-0.421875 0.46875 -0.421875 1.296875l3.0 0zm6.8324585 -3.140625l1.109375 0l0 -0.578125q0 -0.95310974 0.203125 -1.4218597q0.21875 -0.484375 0.765625 -0.78125q0.546875 -0.296875 1.375 -0.296875q0.859375 0 1.6875 0.265625l-0.28125 1.390625q-0.46875 -0.109375 -0.921875 -0.109375q-0.4375 0 -0.625 0.203125q-0.1875 0.203125 -0.1875 0.78123474l0 0.546875l1.5 0l0 1.578125l-1.5 0l0 6.015625l-2.015625 0l0 -6.015625l-1.109375 0l0 -1.578125zm5.30249 3.6875q0 -1.0 0.484375 -1.9375q0.5 -0.9375 1.40625 -1.421875q0.90625 -0.5 2.015625 -0.5q1.71875 0 2.828125 1.125q1.109375 1.109375 1.109375 2.8125q0 1.734375 -1.125 2.875q-1.109375 1.125 -2.796875 1.125q-1.046875 0 -2.0 -0.46875q-0.9375 -0.46875 -1.4375 -1.375q-0.484375 -0.921875 -0.484375 -2.234375zm2.046875 0.109375q0 1.125 0.53125 1.734375q0.546875 0.59375 1.34375 0.59375q0.78125 0 1.3125 -0.59375q0.53125 -0.609375 0.53125 -1.75q0 -1.125 -0.53125 -1.71875q-0.53125 -0.609375 -1.3125 -0.609375q-0.796875 0 -1.34375 0.609375q-0.53125 0.59375 -0.53125 1.734375zm9.296387 3.796875l-2.015625 0l0 -7.59375l1.859375 0l0 1.078125q0.484375 -0.765625 0.859375 -1.0q0.390625 -0.25 0.875 -0.25q0.6875 0 1.328125 0.375l-0.625 1.75q-0.5 -0.328125 -0.9375 -0.328125q-0.421875 0 -0.71875 0.234375q-0.296875 0.234375 -0.46875 0.84375q-0.15625 0.609375 -0.15625 2.546875l0 2.34375z" fill-rule="nonzero"/><path fill="#e6ecf1" d="m823.0603 280.10812l2.015625 -0.296875q0.125 0.578125 0.515625 0.890625q0.40625 0.296875 1.109375 0.296875q0.78125 0 1.171875 -0.28125q0.265625 -0.203125 0.265625 -0.546875q0 -0.21875 -0.140625 -0.375q-0.15625 -0.140625 -0.671875 -0.265625q-2.4375 -0.53125 -3.078125 -0.984375q-0.90625 -0.609375 -0.90625 -1.703125q0 -0.984375 0.78125 -1.65625q0.78125 -0.671875 2.421875 -0.671875q1.546875 0 2.3125 0.515625q0.765625 0.5 1.046875 1.484375l-1.90625 0.359375q-0.109375 -0.453125 -0.453125 -0.6875q-0.34375 -0.234375 -0.96875 -0.234375q-0.796875 0 -1.140625 0.21875q-0.234375 0.15625 -0.234375 0.40625q0 0.21875 0.203125 0.375q0.28125 0.203125 1.875 0.5625q1.609375 0.359375 2.25 0.890625q0.625 0.546875 0.625 1.5q0 1.046875 -0.875 1.796875q-0.859375 0.75 -2.578125 0.75q-1.546875 0 -2.453125 -0.625q-0.90625 -0.640625 -1.1875 -1.71875zm15.479248 -3.1875l-1.96875 0.359375q-0.109375 -0.59375 -0.46875 -0.890625q-0.34375 -0.296875 -0.90625 -0.296875q-0.75 0 -1.203125 0.515625q-0.453125 0.515625 -0.453125 1.734375q0 1.359375 0.453125 1.921875q0.453125 0.546875 1.21875 0.546875q0.578125 0 0.9375 -0.328125q0.375 -0.328125 0.515625 -1.109375l1.984375 0.328125q-0.3125 1.359375 -1.1875 2.0625q-0.875 0.6875 -2.328125 0.6875q-1.671875 0 -2.671875 -1.046875q-0.984375 -1.0625 -0.984375 -2.921875q0 -1.875 0.984375 -2.921875q1.0 -1.046875 2.703125 -1.046875q1.390625 0 2.203125 0.59375q0.828125 0.59375 1.171875 1.8125zm3.041748 0.078125l-1.828125 -0.328125q0.296875 -1.109375 1.046875 -1.625q0.765625 -0.53125 2.234375 -0.53125q1.359375 0 2.015625 0.3125q0.65625 0.3125 0.921875 0.8125q0.265625 0.484375 0.265625 1.796875l-0.015625 2.34375q0 1.0 0.09375 1.484375q0.09375 0.46875 0.359375 1.015625l-1.984375 0q-0.078125 -0.203125 -0.203125 -0.59375q-0.046875 -0.171875 -0.0625 -0.234375q-0.515625 0.5 -1.109375 0.75q-0.578125 0.25 -1.25 0.25q-1.171875 0 -1.859375 -0.640625q-0.671875 -0.640625 -0.671875 -1.609375q0 -0.640625 0.3125 -1.140625q0.3125 -0.515625 0.859375 -0.78125q0.5625 -0.265625 1.609375 -0.46875q1.40625 -0.265625 1.953125 -0.484375l0 -0.203125q0 -0.578125 -0.296875 -0.828125q-0.28125 -0.25 -1.078125 -0.25q-0.53125 0 -0.84375 0.21875q-0.296875 0.203125 -0.46875 0.734375zm2.6875 1.625q-0.390625 0.140625 -1.234375 0.328125q-0.828125 0.171875 -1.09375 0.34375q-0.390625 0.265625 -0.390625 0.703125q0 0.421875 0.3125 0.734375q0.3125 0.296875 0.8125 0.296875q0.53125 0 1.03125 -0.359375q0.359375 -0.265625 0.484375 -0.65625q0.078125 -0.265625 0.078125 -0.984375l0 -0.40625zm10.869812 3.65625l-2.015625 0l0 -3.875q0 -1.234375 -0.125 -1.59375q-0.125 -0.359375 -0.421875 -0.5625q-0.296875 -0.203125 -0.703125 -0.203125q-0.515625 0 -0.9375 0.296875q-0.40625 0.28125 -0.5625 0.75q-0.15625 0.46875 -0.15625 1.75l0 3.4375l-2.015625 0l0 -7.59375l1.875 0l0 1.109375q1.0 -1.28125 2.5 -1.28125q0.671875 0 1.21875 0.234375q0.546875 0.234375 0.828125 0.609375q0.296875 0.375 0.40625 0.84375q0.109375 0.46875 0.109375 1.359375l0 4.71875zm0.9682617 0.171875l2.59375 -10.84375l1.515625 0l-2.640625 10.84375l-1.46875 0zm6.6500854 -5.453125l-1.828125 -0.328125q0.296875 -1.109375 1.046875 -1.625q0.765625 -0.53125 2.234375 -0.53125q1.359375 0 2.015625 0.3125q0.65625 0.3125 0.921875 0.8125q0.265625 0.484375 0.265625 1.796875l-0.015625 2.34375q0 1.0 0.09375 1.484375q0.09375 0.46875 0.359375 1.015625l-1.984375 0q-0.078125 -0.203125 -0.203125 -0.59375q-0.046875 -0.171875 -0.0625 -0.234375q-0.515625 0.5 -1.109375 0.75q-0.578125 0.25 -1.25 0.25q-1.171875 0 -1.859375 -0.640625q-0.671875 -0.640625 -0.671875 -1.609375q0 -0.640625 0.3125 -1.140625q0.3125 -0.515625 0.859375 -0.78125q0.5625 -0.265625 1.609375 -0.46875q1.40625 -0.265625 1.953125 -0.484375l0 -0.203125q0 -0.578125 -0.296875 -0.828125q-0.28125 -0.25 -1.078125 -0.25q-0.53125 0 -0.84375 0.21875q-0.296875 0.203125 -0.46875 0.734375zm2.6875 1.625q-0.390625 0.140625 -1.234375 0.328125q-0.828125 0.171875 -1.09375 0.34375q-0.390625 0.265625 -0.390625 0.703125q0 0.421875 0.3125 0.734375q0.3125 0.296875 0.8125 0.296875q0.53125 0 1.03125 -0.359375q0.359375 -0.265625 0.484375 -0.65625q0.078125 -0.265625 0.078125 -0.984375l0 -0.40625zm8.947998 3.65625l0 -1.140625q-0.40625 0.609375 -1.09375 0.96875q-0.671875 0.34375 -1.421875 0.34375q-0.765625 0 -1.375 -0.328125q-0.609375 -0.34375 -0.875 -0.953125q-0.265625 -0.609375 -0.265625 -1.6875l0 -4.796875l2.0 0l0 3.484375q0 1.609375 0.109375 1.96875q0.109375 0.359375 0.40625 0.578125q0.296875 0.203125 0.75 0.203125q0.515625 0 0.921875 -0.28125q0.40625 -0.28125 0.546875 -0.703125q0.15625 -0.421875 0.15625 -2.046875l0 -3.203125l2.015625 0l0 7.59375l-1.875 0zm10.921387 0l-1.859375 0l0 -1.109375q-0.46875 0.640625 -1.109375 0.96875q-0.625 0.3125 -1.265625 0.3125q-1.3125 0 -2.25 -1.046875q-0.9375 -1.0625 -0.9375 -2.953125q0 -1.9375 0.90625 -2.9375q0.921875 -1.0 2.3125 -1.0q1.265625 0 2.203125 1.046875l0 -3.765625l2.0 0l0 10.484375zm-5.359375 -3.96875q0 1.21875 0.328125 1.765625q0.5 0.78125 1.359375 0.78125q0.703125 0 1.1875 -0.578125q0.484375 -0.59375 0.484375 -1.765625q0 -1.3125 -0.46875 -1.890625q-0.46875 -0.578125 -1.203125 -0.578125q-0.71875 0 -1.203125 0.578125q-0.484375 0.5625 -0.484375 1.6875zm7.3432617 -4.65625l0 -1.859375l2.015625 0l0 1.859375l-2.015625 0zm0 8.625l0 -7.59375l2.015625 0l0 7.59375l-2.015625 0zm7.5563354 -7.59375l0 1.59375l-1.375 0l0 3.0625q0 0.9375 0.03125 1.09375q0.046875 0.140625 0.1875 0.25q0.140625 0.09375 0.34375 0.09375q0.28125 0 0.8125 -0.1875l0.171875 1.5625q-0.703125 0.296875 -1.59375 0.296875q-0.546875 0 -0.984375 -0.171875q-0.421875 -0.1875 -0.640625 -0.46875q-0.203125 -0.296875 -0.28125 -0.796875q-0.0625 -0.359375 -0.0625 -1.421875l0 -3.3125l-0.921875 0l0 -1.59375l0.921875 0l0 -1.515625l2.015625 -1.171875l0 2.6875l1.375 0z" fill-rule="nonzero"/><path fill="#000000" fill-opacity="0.0" d="m163.32 268.2l1.3199921 0" fill-rule="evenodd"/><path stroke="#7aa7ff" stroke-width="1.7979002624671916" stroke-linejoin="round" stroke-linecap="butt" stroke-opacity="0.81960785" d="m163.32 268.2l1.3199921 0" fill-rule="evenodd"/><path fill="#7aa7ff" fill-opacity="0.81960785" stroke="#7aa7ff" stroke-width="1.7979002624671916" stroke-linecap="butt" stroke-opacity="0.81960785" d="m164.64 271.16965l8.159042 -2.969635l-8.159042 -2.9696655z" fill-rule="evenodd"/><path fill="#000000" fill-opacity="0.0" d="m289.68 268.2l1.3200073 0" fill-rule="evenodd"/><path stroke="#7aa7ff" stroke-width="1.7979002624671916" stroke-linejoin="round" stroke-linecap="butt" stroke-opacity="0.81960785" d="m289.68 268.2l1.3200073 0" fill-rule="evenodd"/><path fill="#7aa7ff" fill-opacity="0.81960785" stroke="#7aa7ff" stroke-width="1.7979002624671916" stroke-linecap="butt" stroke-opacity="0.81960785" d="m291.0 271.16965l8.159058 -2.969635l-8.159058 -2.9696655z" fill-rule="evenodd"/><path fill="#000000" fill-opacity="0.0" d="m416.04 268.2l1.3199768 0" fill-rule="evenodd"/><path stroke="#7aa7ff" stroke-width="1.7979002624671916" stroke-linejoin="round" stroke-linecap="butt" stroke-opacity="0.81960785" d="m416.03998 268.2l1.3200073 0" fill-rule="evenodd"/><path fill="#7aa7ff" fill-opacity="0.81960785" stroke="#7aa7ff" stroke-width="1.7979002624671916" stroke-linecap="butt" stroke-opacity="0.81960785" d="m417.36 271.16965l8.159058 -2.969635l-8.159058 -2.9696655z" fill-rule="evenodd"/><path fill="#000000" fill-opacity="0.0" d="m542.4 268.2l1.3199463 0" fill-rule="evenodd"/><path stroke="#7aa7ff" stroke-width="1.7979002624671916" stroke-linejoin="round" stroke-linecap="butt" stroke-opacity="0.81960785" d="m542.4 268.2l1.3199463 0" fill-rule="evenodd"/><path fill="#7aa7ff" fill-opacity="0.81960785" stroke="#7aa7ff" stroke-width="1.7979002624671916" stroke-linecap="butt" stroke-opacity="0.81960785" d="m543.72 271.16965l8.159058 -2.969635l-8.159058 -2.9696655z" fill-rule="evenodd"/><path fill="#000000" fill-opacity="0.0" d="m668.76 268.2l1.3200073 0" fill-rule="evenodd"/><path stroke="#00e6ff" stroke-width="1.7979002624671916" stroke-linejoin="round" stroke-linecap="butt" stroke-opacity="0.81960785" d="m668.76 268.2l1.3200073 0" fill-rule="evenodd"/><path fill="#00e6ff" fill-opacity="0.81960785" stroke="#00e6ff" stroke-width="1.7979002624671916" stroke-linecap="butt" stroke-opacity="0.81960785" d="m670.08 271.16965l8.159058 -2.969635l-8.159058 -2.9696655z" fill-rule="evenodd"/><path fill="#000000" fill-opacity="0.0" d="m795.12 268.2l1.3200073 0" fill-rule="evenodd"/><path stroke="#7aa7ff" stroke-width="1.7979002624671916" stroke-linejoin="round" stroke-linecap="butt" stroke-opacity="0.81960785" d="m795.12 268.2l1.3199463 0" fill-rule="evenodd"/><path fill="#7aa7ff" fill-opacity="0.81960785" stroke="#7aa7ff" stroke-width="1.7979002624671916" stroke-linecap="butt" stroke-opacity="0.81960785" d="m796.43994 271.16965l8.159058 -2.969635l-8.159058 -2.9696655z" fill-rule="evenodd"/><path fill="#000000" fill-opacity="0.0" d="m39.6 512.64l880.56 0l0 21.599976l-880.56 0z" fill-rule="evenodd"/></g></svg>