<svg width="656" height="656" viewBox="0 0 656 656" fill="none" xmlns="http://www.w3.org/2000/svg">
<g clip-path="url(#clip0_12323_2432)">
<path d="M656 0H0V656H656V0Z" fill="white"/>
<path d="M72 224C76.4183 224 80 220.418 80 216C80 211.582 76.4183 208 72 208C67.5817 208 64 211.582 64 216C64 220.418 67.5817 224 72 224Z" fill="black"/>
<path d="M72 288C76.4183 288 80 284.418 80 280C80 275.582 76.4183 272 72 272C67.5817 272 64 275.582 64 280C64 284.418 67.5817 288 72 288Z" fill="black"/>
<path d="M72 304C76.4183 304 80 300.418 80 296C80 291.582 76.4183 288 72 288C67.5817 288 64 291.582 64 296C64 300.418 67.5817 304 72 304Z" fill="black"/>
<path d="M72 336C76.4183 336 80 332.418 80 328C80 323.582 76.4183 320 72 320C67.5817 320 64 323.582 64 328C64 332.418 67.5817 336 72 336Z" fill="black"/>
<path d="M72 384C76.4183 384 80 380.418 80 376C80 371.582 76.4183 368 72 368C67.5817 368 64 371.582 64 376C64 380.418 67.5817 384 72 384Z" fill="black"/>
<path d="M72 400C76.4183 400 80 396.418 80 392C80 387.582 76.4183 384 72 384C67.5817 384 64 387.582 64 392C64 396.418 67.5817 400 72 400Z" fill="black"/>
<path d="M72 416C76.4183 416 80 412.418 80 408C80 403.582 76.4183 400 72 400C67.5817 400 64 403.582 64 408C64 412.418 67.5817 416 72 416Z" fill="black"/>
<path d="M72 432C76.4183 432 80 428.418 80 424C80 419.582 76.4183 416 72 416C67.5817 416 64 419.582 64 424C64 428.418 67.5817 432 72 432Z" fill="black"/>
<path d="M72 448C76.4183 448 80 444.418 80 440C80 435.582 76.4183 432 72 432C67.5817 432 64 435.582 64 440C64 444.418 67.5817 448 72 448Z" fill="black"/>
<path d="M72 464C76.4183 464 80 460.418 80 456C80 451.582 76.4183 448 72 448C67.5817 448 64 451.582 64 456C64 460.418 67.5817 464 72 464Z" fill="black"/>
<path d="M88 224C92.4183 224 96 220.418 96 216C96 211.582 92.4183 208 88 208C83.5817 208 80 211.582 80 216C80 220.418 83.5817 224 88 224Z" fill="black"/>
<path d="M88 240C92.4183 240 96 236.418 96 232C96 227.582 92.4183 224 88 224C83.5817 224 80 227.582 80 232C80 236.418 83.5817 240 88 240Z" fill="black"/>
<path d="M88 256C92.4183 256 96 252.418 96 248C96 243.582 92.4183 240 88 240C83.5817 240 80 243.582 80 248C80 252.418 83.5817 256 88 256Z" fill="black"/>
<path d="M88 288C92.4183 288 96 284.418 96 280C96 275.582 92.4183 272 88 272C83.5817 272 80 275.582 80 280C80 284.418 83.5817 288 88 288Z" fill="black"/>
<path d="M88 304C92.4183 304 96 300.418 96 296C96 291.582 92.4183 288 88 288C83.5817 288 80 291.582 80 296C80 300.418 83.5817 304 88 304Z" fill="black"/>
<path d="M88 368C92.4183 368 96 364.418 96 360C96 355.582 92.4183 352 88 352C83.5817 352 80 355.582 80 360C80 364.418 83.5817 368 88 368Z" fill="black"/>
<path d="M88 416C92.4183 416 96 412.418 96 408C96 403.582 92.4183 400 88 400C83.5817 400 80 403.582 80 408C80 412.418 83.5817 416 88 416Z" fill="black"/>
<path d="M88 464C92.4183 464 96 460.418 96 456C96 451.582 92.4183 448 88 448C83.5817 448 80 451.582 80 456C80 460.418 83.5817 464 88 464Z" fill="black"/>
<path d="M104 256C108.418 256 112 252.418 112 248C112 243.582 108.418 240 104 240C99.5817 240 96 243.582 96 248C96 252.418 99.5817 256 104 256Z" fill="black"/>
<path d="M104 320C108.418 320 112 316.418 112 312C112 307.582 108.418 304 104 304C99.5817 304 96 307.582 96 312C96 316.418 99.5817 320 104 320Z" fill="black"/>
<path d="M104 368C108.418 368 112 364.418 112 360C112 355.582 108.418 352 104 352C99.5817 352 96 355.582 96 360C96 364.418 99.5817 368 104 368Z" fill="black"/>
<path d="M104 384C108.418 384 112 380.418 112 376C112 371.582 108.418 368 104 368C99.5817 368 96 371.582 96 376C96 380.418 99.5817 384 104 384Z" fill="black"/>
<path d="M104 400C108.418 400 112 396.418 112 392C112 387.582 108.418 384 104 384C99.5817 384 96 387.582 96 392C96 396.418 99.5817 400 104 400Z" fill="black"/>
<path d="M104 448C108.418 448 112 444.418 112 440C112 435.582 108.418 432 104 432C99.5817 432 96 435.582 96 440C96 444.418 99.5817 448 104 448Z" fill="black"/>
<path d="M104 464C108.418 464 112 460.418 112 456C112 451.582 108.418 448 104 448C99.5817 448 96 451.582 96 456C96 460.418 99.5817 464 104 464Z" fill="black"/>
<path d="M120 208C124.418 208 128 204.418 128 200C128 195.582 124.418 192 120 192C115.582 192 112 195.582 112 200C112 204.418 115.582 208 120 208Z" fill="black"/>
<path d="M120 224C124.418 224 128 220.418 128 216C128 211.582 124.418 208 120 208C115.582 208 112 211.582 112 216C112 220.418 115.582 224 120 224Z" fill="black"/>
<path d="M120 240C124.418 240 128 236.418 128 232C128 227.582 124.418 224 120 224C115.582 224 112 227.582 112 232C112 236.418 115.582 240 120 240Z" fill="black"/>
<path d="M120 256C124.418 256 128 252.418 128 248C128 243.582 124.418 240 120 240C115.582 240 112 243.582 112 248C112 252.418 115.582 256 120 256Z" fill="black"/>
<path d="M120 272C124.418 272 128 268.418 128 264C128 259.582 124.418 256 120 256C115.582 256 112 259.582 112 264C112 268.418 115.582 272 120 272Z" fill="black"/>
<path d="M120 288C124.418 288 128 284.418 128 280C128 275.582 124.418 272 120 272C115.582 272 112 275.582 112 280C112 284.418 115.582 288 120 288Z" fill="black"/>
<path d="M120 304C124.418 304 128 300.418 128 296C128 291.582 124.418 288 120 288C115.582 288 112 291.582 112 296C112 300.418 115.582 304 120 304Z" fill="black"/>
<path d="M120 400C124.418 400 128 396.418 128 392C128 387.582 124.418 384 120 384C115.582 384 112 387.582 112 392C112 396.418 115.582 400 120 400Z" fill="black"/>
<path d="M136 208C140.418 208 144 204.418 144 200C144 195.582 140.418 192 136 192C131.582 192 128 195.582 128 200C128 204.418 131.582 208 136 208Z" fill="black"/>
<path d="M136 224C140.418 224 144 220.418 144 216C144 211.582 140.418 208 136 208C131.582 208 128 211.582 128 216C128 220.418 131.582 224 136 224Z" fill="black"/>
<path d="M136 240C140.418 240 144 236.418 144 232C144 227.582 140.418 224 136 224C131.582 224 128 227.582 128 232C128 236.418 131.582 240 136 240Z" fill="black"/>
<path d="M136 272C140.418 272 144 268.418 144 264C144 259.582 140.418 256 136 256C131.582 256 128 259.582 128 264C128 268.418 131.582 272 136 272Z" fill="black"/>
<path d="M136 304C140.418 304 144 300.418 144 296C144 291.582 140.418 288 136 288C131.582 288 128 291.582 128 296C128 300.418 131.582 304 136 304Z" fill="black"/>
<path d="M136 320C140.418 320 144 316.418 144 312C144 307.582 140.418 304 136 304C131.582 304 128 307.582 128 312C128 316.418 131.582 320 136 320Z" fill="black"/>
<path d="M136 336C140.418 336 144 332.418 144 328C144 323.582 140.418 320 136 320C131.582 320 128 323.582 128 328C128 332.418 131.582 336 136 336Z" fill="black"/>
<path d="M136 352C140.418 352 144 348.418 144 344C144 339.582 140.418 336 136 336C131.582 336 128 339.582 128 344C128 348.418 131.582 352 136 352Z" fill="black"/>
<path d="M136 368C140.418 368 144 364.418 144 360C144 355.582 140.418 352 136 352C131.582 352 128 355.582 128 360C128 364.418 131.582 368 136 368Z" fill="black"/>
<path d="M136 384C140.418 384 144 380.418 144 376C144 371.582 140.418 368 136 368C131.582 368 128 371.582 128 376C128 380.418 131.582 384 136 384Z" fill="black"/>
<path d="M136 400C140.418 400 144 396.418 144 392C144 387.582 140.418 384 136 384C131.582 384 128 387.582 128 392C128 396.418 131.582 400 136 400Z" fill="black"/>
<path d="M136 448C140.418 448 144 444.418 144 440C144 435.582 140.418 432 136 432C131.582 432 128 435.582 128 440C128 444.418 131.582 448 136 448Z" fill="black"/>
<path d="M152 224C156.418 224 160 220.418 160 216C160 211.582 156.418 208 152 208C147.582 208 144 211.582 144 216C144 220.418 147.582 224 152 224Z" fill="black"/>
<path d="M152 288C156.418 288 160 284.418 160 280C160 275.582 156.418 272 152 272C147.582 272 144 275.582 144 280C144 284.418 147.582 288 152 288Z" fill="black"/>
<path d="M152 352C156.418 352 160 348.418 160 344C160 339.582 156.418 336 152 336C147.582 336 144 339.582 144 344C144 348.418 147.582 352 152 352Z" fill="black"/>
<path d="M152 400C156.418 400 160 396.418 160 392C160 387.582 156.418 384 152 384C147.582 384 144 387.582 144 392C144 396.418 147.582 400 152 400Z" fill="black"/>
<path d="M152 432C156.418 432 160 428.418 160 424C160 419.582 156.418 416 152 416C147.582 416 144 419.582 144 424C144 428.418 147.582 432 152 432Z" fill="black"/>
<path d="M152 464C156.418 464 160 460.418 160 456C160 451.582 156.418 448 152 448C147.582 448 144 451.582 144 456C144 460.418 147.582 464 152 464Z" fill="black"/>
<path d="M168 208C172.418 208 176 204.418 176 200C176 195.582 172.418 192 168 192C163.582 192 160 195.582 160 200C160 204.418 163.582 208 168 208Z" fill="black"/>
<path d="M168 240C172.418 240 176 236.418 176 232C176 227.582 172.418 224 168 224C163.582 224 160 227.582 160 232C160 236.418 163.582 240 168 240Z" fill="black"/>
<path d="M168 272C172.418 272 176 268.418 176 264C176 259.582 172.418 256 168 256C163.582 256 160 259.582 160 264C160 268.418 163.582 272 168 272Z" fill="black"/>
<path d="M168 304C172.418 304 176 300.418 176 296C176 291.582 172.418 288 168 288C163.582 288 160 291.582 160 296C160 300.418 163.582 304 168 304Z" fill="black"/>
<path d="M168 336C172.418 336 176 332.418 176 328C176 323.582 172.418 320 168 320C163.582 320 160 323.582 160 328C160 332.418 163.582 336 168 336Z" fill="black"/>
<path d="M168 368C172.418 368 176 364.418 176 360C176 355.582 172.418 352 168 352C163.582 352 160 355.582 160 360C160 364.418 163.582 368 168 368Z" fill="black"/>
<path d="M168 400C172.418 400 176 396.418 176 392C176 387.582 172.418 384 168 384C163.582 384 160 387.582 160 392C160 396.418 163.582 400 168 400Z" fill="black"/>
<path d="M168 432C172.418 432 176 428.418 176 424C176 419.582 172.418 416 168 416C163.582 416 160 419.582 160 424C160 428.418 163.582 432 168 432Z" fill="black"/>
<path d="M168 464C172.418 464 176 460.418 176 456C176 451.582 172.418 448 168 448C163.582 448 160 451.582 160 456C160 460.418 163.582 464 168 464Z" fill="black"/>
<path d="M184 208C188.418 208 192 204.418 192 200C192 195.582 188.418 192 184 192C179.582 192 176 195.582 176 200C176 204.418 179.582 208 184 208Z" fill="black"/>
<path d="M184 304C188.418 304 192 300.418 192 296C192 291.582 188.418 288 184 288C179.582 288 176 291.582 176 296C176 300.418 179.582 304 184 304Z" fill="black"/>
<path d="M184 320C188.418 320 192 316.418 192 312C192 307.582 188.418 304 184 304C179.582 304 176 307.582 176 312C176 316.418 179.582 320 184 320Z" fill="black"/>
<path d="M184 336C188.418 336 192 332.418 192 328C192 323.582 188.418 320 184 320C179.582 320 176 323.582 176 328C176 332.418 179.582 336 184 336Z" fill="black"/>
<path d="M184 384C188.418 384 192 380.418 192 376C192 371.582 188.418 368 184 368C179.582 368 176 371.582 176 376C176 380.418 179.582 384 184 384Z" fill="black"/>
<path d="M184 400C188.418 400 192 396.418 192 392C192 387.582 188.418 384 184 384C179.582 384 176 387.582 176 392C176 396.418 179.582 400 184 400Z" fill="black"/>
<path d="M184 432C188.418 432 192 428.418 192 424C192 419.582 188.418 416 184 416C179.582 416 176 419.582 176 424C176 428.418 179.582 432 184 432Z" fill="black"/>
<path d="M200 112C204.418 112 208 108.418 208 104C208 99.5817 204.418 96 200 96C195.582 96 192 99.5817 192 104C192 108.418 195.582 112 200 112Z" fill="black"/>
<path d="M200 128C204.418 128 208 124.418 208 120C208 115.582 204.418 112 200 112C195.582 112 192 115.582 192 120C192 124.418 195.582 128 200 128Z" fill="black"/>
<path d="M200 176C204.418 176 208 172.418 208 168C208 163.582 204.418 160 200 160C195.582 160 192 163.582 192 168C192 172.418 195.582 176 200 176Z" fill="black"/>
<path d="M200 224C204.418 224 208 220.418 208 216C208 211.582 204.418 208 200 208C195.582 208 192 211.582 192 216C192 220.418 195.582 224 200 224Z" fill="black"/>
<path d="M200 240C204.418 240 208 236.418 208 232C208 227.582 204.418 224 200 224C195.582 224 192 227.582 192 232C192 236.418 195.582 240 200 240Z" fill="black"/>
<path d="M200 272C204.418 272 208 268.418 208 264C208 259.582 204.418 256 200 256C195.582 256 192 259.582 192 264C192 268.418 195.582 272 200 272Z" fill="black"/>
<path d="M200 320C204.418 320 208 316.418 208 312C208 307.582 204.418 304 200 304C195.582 304 192 307.582 192 312C192 316.418 195.582 320 200 320Z" fill="black"/>
<path d="M200 336C204.418 336 208 332.418 208 328C208 323.582 204.418 320 200 320C195.582 320 192 323.582 192 328C192 332.418 195.582 336 200 336Z" fill="black"/>
<path d="M200 352C204.418 352 208 348.418 208 344C208 339.582 204.418 336 200 336C195.582 336 192 339.582 192 344C192 348.418 195.582 352 200 352Z" fill="black"/>
<path d="M200 368C204.418 368 208 364.418 208 360C208 355.582 204.418 352 200 352C195.582 352 192 355.582 192 360C192 364.418 195.582 368 200 368Z" fill="black"/>
<path d="M200 416C204.418 416 208 412.418 208 408C208 403.582 204.418 400 200 400C195.582 400 192 403.582 192 408C192 412.418 195.582 416 200 416Z" fill="black"/>
<path d="M200 464C204.418 464 208 460.418 208 456C208 451.582 204.418 448 200 448C195.582 448 192 451.582 192 456C192 460.418 195.582 464 200 464Z" fill="black"/>
<path d="M200 480C204.418 480 208 476.418 208 472C208 467.582 204.418 464 200 464C195.582 464 192 467.582 192 472C192 476.418 195.582 480 200 480Z" fill="black"/>
<path d="M200 496C204.418 496 208 492.418 208 488C208 483.582 204.418 480 200 480C195.582 480 192 483.582 192 488C192 492.418 195.582 496 200 496Z" fill="black"/>
<path d="M200 528C204.418 528 208 524.418 208 520C208 515.582 204.418 512 200 512C195.582 512 192 515.582 192 520C192 524.418 195.582 528 200 528Z" fill="black"/>
<path d="M200 544C204.418 544 208 540.418 208 536C208 531.582 204.418 528 200 528C195.582 528 192 531.582 192 536C192 540.418 195.582 544 200 544Z" fill="black"/>
<path d="M216 80C220.418 80 224 76.4183 224 72C224 67.5817 220.418 64 216 64C211.582 64 208 67.5817 208 72C208 76.4183 211.582 80 216 80Z" fill="black"/>
<path d="M216 96C220.418 96 224 92.4183 224 88C224 83.5817 220.418 80 216 80C211.582 80 208 83.5817 208 88C208 92.4183 211.582 96 216 96Z" fill="black"/>
<path d="M216 160C220.418 160 224 156.418 224 152C224 147.582 220.418 144 216 144C211.582 144 208 147.582 208 152C208 156.418 211.582 160 216 160Z" fill="black"/>
<path d="M216 192C220.418 192 224 188.418 224 184C224 179.582 220.418 176 216 176C211.582 176 208 179.582 208 184C208 188.418 211.582 192 216 192Z" fill="black"/>
<path d="M216 208C220.418 208 224 204.418 224 200C224 195.582 220.418 192 216 192C211.582 192 208 195.582 208 200C208 204.418 211.582 208 216 208Z" fill="black"/>
<path d="M216 224C220.418 224 224 220.418 224 216C224 211.582 220.418 208 216 208C211.582 208 208 211.582 208 216C208 220.418 211.582 224 216 224Z" fill="black"/>
<path d="M216 256C220.418 256 224 252.418 224 248C224 243.582 220.418 240 216 240C211.582 240 208 243.582 208 248C208 252.418 211.582 256 216 256Z" fill="black"/>
<path d="M216 272C220.418 272 224 268.418 224 264C224 259.582 220.418 256 216 256C211.582 256 208 259.582 208 264C208 268.418 211.582 272 216 272Z" fill="black"/>
<path d="M216 288C220.418 288 224 284.418 224 280C224 275.582 220.418 272 216 272C211.582 272 208 275.582 208 280C208 284.418 211.582 288 216 288Z" fill="black"/>
<path d="M216 320C220.418 320 224 316.418 224 312C224 307.582 220.418 304 216 304C211.582 304 208 307.582 208 312C208 316.418 211.582 320 216 320Z" fill="black"/>
<path d="M216 336C220.418 336 224 332.418 224 328C224 323.582 220.418 320 216 320C211.582 320 208 323.582 208 328C208 332.418 211.582 336 216 336Z" fill="black"/>
<path d="M216 352C220.418 352 224 348.418 224 344C224 339.582 220.418 336 216 336C211.582 336 208 339.582 208 344C208 348.418 211.582 352 216 352Z" fill="black"/>
<path d="M216 368C220.418 368 224 364.418 224 360C224 355.582 220.418 352 216 352C211.582 352 208 355.582 208 360C208 364.418 211.582 368 216 368Z" fill="black"/>
<path d="M216 384C220.418 384 224 380.418 224 376C224 371.582 220.418 368 216 368C211.582 368 208 371.582 208 376C208 380.418 211.582 384 216 384Z" fill="black"/>
<path d="M216 432C220.418 432 224 428.418 224 424C224 419.582 220.418 416 216 416C211.582 416 208 419.582 208 424C208 428.418 211.582 432 216 432Z" fill="black"/>
<path d="M216 464C220.418 464 224 460.418 224 456C224 451.582 220.418 448 216 448C211.582 448 208 451.582 208 456C208 460.418 211.582 464 216 464Z" fill="black"/>
<path d="M216 480C220.418 480 224 476.418 224 472C224 467.582 220.418 464 216 464C211.582 464 208 467.582 208 472C208 476.418 211.582 480 216 480Z" fill="black"/>
<path d="M216 496C220.418 496 224 492.418 224 488C224 483.582 220.418 480 216 480C211.582 480 208 483.582 208 488C208 492.418 211.582 496 216 496Z" fill="black"/>
<path d="M216 512C220.418 512 224 508.418 224 504C224 499.582 220.418 496 216 496C211.582 496 208 499.582 208 504C208 508.418 211.582 512 216 512Z" fill="black"/>
<path d="M216 544C220.418 544 224 540.418 224 536C224 531.582 220.418 528 216 528C211.582 528 208 531.582 208 536C208 540.418 211.582 544 216 544Z" fill="black"/>
<path d="M216 576C220.418 576 224 572.418 224 568C224 563.582 220.418 560 216 560C211.582 560 208 563.582 208 568C208 572.418 211.582 576 216 576Z" fill="black"/>
<path d="M216 592C220.418 592 224 588.418 224 584C224 579.582 220.418 576 216 576C211.582 576 208 579.582 208 584C208 588.418 211.582 592 216 592Z" fill="black"/>
<path d="M232 96C236.418 96 240 92.4183 240 88C240 83.5817 236.418 80 232 80C227.582 80 224 83.5817 224 88C224 92.4183 227.582 96 232 96Z" fill="black"/>
<path d="M232 112C236.418 112 240 108.418 240 104C240 99.5817 236.418 96 232 96C227.582 96 224 99.5817 224 104C224 108.418 227.582 112 232 112Z" fill="black"/>
<path d="M232 128C236.418 128 240 124.418 240 120C240 115.582 236.418 112 232 112C227.582 112 224 115.582 224 120C224 124.418 227.582 128 232 128Z" fill="black"/>
<path d="M232 176C236.418 176 240 172.418 240 168C240 163.582 236.418 160 232 160C227.582 160 224 163.582 224 168C224 172.418 227.582 176 232 176Z" fill="black"/>
<path d="M232 192C236.418 192 240 188.418 240 184C240 179.582 236.418 176 232 176C227.582 176 224 179.582 224 184C224 188.418 227.582 192 232 192Z" fill="black"/>
<path d="M232 208C236.418 208 240 204.418 240 200C240 195.582 236.418 192 232 192C227.582 192 224 195.582 224 200C224 204.418 227.582 208 232 208Z" fill="black"/>
<path d="M232 224C236.418 224 240 220.418 240 216C240 211.582 236.418 208 232 208C227.582 208 224 211.582 224 216C224 220.418 227.582 224 232 224Z" fill="black"/>
<path d="M232 240C236.418 240 240 236.418 240 232C240 227.582 236.418 224 232 224C227.582 224 224 227.582 224 232C224 236.418 227.582 240 232 240Z" fill="black"/>
<path d="M232 256C236.418 256 240 252.418 240 248C240 243.582 236.418 240 232 240C227.582 240 224 243.582 224 248C224 252.418 227.582 256 232 256Z" fill="black"/>
<path d="M232 288C236.418 288 240 284.418 240 280C240 275.582 236.418 272 232 272C227.582 272 224 275.582 224 280C224 284.418 227.582 288 232 288Z" fill="black"/>
<path d="M232 304C236.418 304 240 300.418 240 296C240 291.582 236.418 288 232 288C227.582 288 224 291.582 224 296C224 300.418 227.582 304 232 304Z" fill="black"/>
<path d="M232 336C236.418 336 240 332.418 240 328C240 323.582 236.418 320 232 320C227.582 320 224 323.582 224 328C224 332.418 227.582 336 232 336Z" fill="black"/>
<path d="M232 352C236.418 352 240 348.418 240 344C240 339.582 236.418 336 232 336C227.582 336 224 339.582 224 344C224 348.418 227.582 352 232 352Z" fill="black"/>
<path d="M232 384C236.418 384 240 380.418 240 376C240 371.582 236.418 368 232 368C227.582 368 224 371.582 224 376C224 380.418 227.582 384 232 384Z" fill="black"/>
<path d="M232 400C236.418 400 240 396.418 240 392C240 387.582 236.418 384 232 384C227.582 384 224 387.582 224 392C224 396.418 227.582 400 232 400Z" fill="black"/>
<path d="M232 448C236.418 448 240 444.418 240 440C240 435.582 236.418 432 232 432C227.582 432 224 435.582 224 440C224 444.418 227.582 448 232 448Z" fill="black"/>
<path d="M232 464C236.418 464 240 460.418 240 456C240 451.582 236.418 448 232 448C227.582 448 224 451.582 224 456C224 460.418 227.582 464 232 464Z" fill="black"/>
<path d="M232 480C236.418 480 240 476.418 240 472C240 467.582 236.418 464 232 464C227.582 464 224 467.582 224 472C224 476.418 227.582 480 232 480Z" fill="black"/>
<path d="M232 560C236.418 560 240 556.418 240 552C240 547.582 236.418 544 232 544C227.582 544 224 547.582 224 552C224 556.418 227.582 560 232 560Z" fill="black"/>
<path d="M232 592C236.418 592 240 588.418 240 584C240 579.582 236.418 576 232 576C227.582 576 224 579.582 224 584C224 588.418 227.582 592 232 592Z" fill="black"/>
<path d="M248 80C252.418 80 256 76.4183 256 72C256 67.5817 252.418 64 248 64C243.582 64 240 67.5817 240 72C240 76.4183 243.582 80 248 80Z" fill="black"/>
<path d="M248 96C252.418 96 256 92.4183 256 88C256 83.5817 252.418 80 248 80C243.582 80 240 83.5817 240 88C240 92.4183 243.582 96 248 96Z" fill="black"/>
<path d="M248 112C252.418 112 256 108.418 256 104C256 99.5817 252.418 96 248 96C243.582 96 240 99.5817 240 104C240 108.418 243.582 112 248 112Z" fill="black"/>
<path d="M248 192C252.418 192 256 188.418 256 184C256 179.582 252.418 176 248 176C243.582 176 240 179.582 240 184C240 188.418 243.582 192 248 192Z" fill="black"/>
<path d="M248 224C252.418 224 256 220.418 256 216C256 211.582 252.418 208 248 208C243.582 208 240 211.582 240 216C240 220.418 243.582 224 248 224Z" fill="black"/>
<path d="M248 448C252.418 448 256 444.418 256 440C256 435.582 252.418 432 248 432C243.582 432 240 435.582 240 440C240 444.418 243.582 448 248 448Z" fill="black"/>
<path d="M248 512C252.418 512 256 508.418 256 504C256 499.582 252.418 496 248 496C243.582 496 240 499.582 240 504C240 508.418 243.582 512 248 512Z" fill="black"/>
<path d="M248 544C252.418 544 256 540.418 256 536C256 531.582 252.418 528 248 528C243.582 528 240 531.582 240 536C240 540.418 243.582 544 248 544Z" fill="black"/>
<path d="M248 592C252.418 592 256 588.418 256 584C256 579.582 252.418 576 248 576C243.582 576 240 579.582 240 584C240 588.418 243.582 592 248 592Z" fill="black"/>
<path d="M264 112C268.418 112 272 108.418 272 104C272 99.5817 268.418 96 264 96C259.582 96 256 99.5817 256 104C256 108.418 259.582 112 264 112Z" fill="black"/>
<path d="M264 128C268.418 128 272 124.418 272 120C272 115.582 268.418 112 264 112C259.582 112 256 115.582 256 120C256 124.418 259.582 128 264 128Z" fill="black"/>
<path d="M264 160C268.418 160 272 156.418 272 152C272 147.582 268.418 144 264 144C259.582 144 256 147.582 256 152C256 156.418 259.582 160 264 160Z" fill="black"/>
<path d="M264 176C268.418 176 272 172.418 272 168C272 163.582 268.418 160 264 160C259.582 160 256 163.582 256 168C256 172.418 259.582 176 264 176Z" fill="black"/>
<path d="M264 224C268.418 224 272 220.418 272 216C272 211.582 268.418 208 264 208C259.582 208 256 211.582 256 216C256 220.418 259.582 224 264 224Z" fill="black"/>
<path d="M264 240C268.418 240 272 236.418 272 232C272 227.582 268.418 224 264 224C259.582 224 256 227.582 256 232C256 236.418 259.582 240 264 240Z" fill="black"/>
<path d="M264 432C268.418 432 272 428.418 272 424C272 419.582 268.418 416 264 416C259.582 416 256 419.582 256 424C256 428.418 259.582 432 264 432Z" fill="black"/>
<path d="M264 464C268.418 464 272 460.418 272 456C272 451.582 268.418 448 264 448C259.582 448 256 451.582 256 456C256 460.418 259.582 464 264 464Z" fill="black"/>
<path d="M264 480C268.418 480 272 476.418 272 472C272 467.582 268.418 464 264 464C259.582 464 256 467.582 256 472C256 476.418 259.582 480 264 480Z" fill="black"/>
<path d="M264 544C268.418 544 272 540.418 272 536C272 531.582 268.418 528 264 528C259.582 528 256 531.582 256 536C256 540.418 259.582 544 264 544Z" fill="black"/>
<path d="M264 560C268.418 560 272 556.418 272 552C272 547.582 268.418 544 264 544C259.582 544 256 547.582 256 552C256 556.418 259.582 560 264 560Z" fill="black"/>
<path d="M264 592C268.418 592 272 588.418 272 584C272 579.582 268.418 576 264 576C259.582 576 256 579.582 256 584C256 588.418 259.582 592 264 592Z" fill="black"/>
<path d="M280 80C284.418 80 288 76.4183 288 72C288 67.5817 284.418 64 280 64C275.582 64 272 67.5817 272 72C272 76.4183 275.582 80 280 80Z" fill="black"/>
<path d="M280 96C284.418 96 288 92.4183 288 88C288 83.5817 284.418 80 280 80C275.582 80 272 83.5817 272 88C272 92.4183 275.582 96 280 96Z" fill="black"/>
<path d="M280 112C284.418 112 288 108.418 288 104C288 99.5817 284.418 96 280 96C275.582 96 272 99.5817 272 104C272 108.418 275.582 112 280 112Z" fill="black"/>
<path d="M280 128C284.418 128 288 124.418 288 120C288 115.582 284.418 112 280 112C275.582 112 272 115.582 272 120C272 124.418 275.582 128 280 128Z" fill="black"/>
<path d="M280 224C284.418 224 288 220.418 288 216C288 211.582 284.418 208 280 208C275.582 208 272 211.582 272 216C272 220.418 275.582 224 280 224Z" fill="black"/>
<path d="M280 240C284.418 240 288 236.418 288 232C288 227.582 284.418 224 280 224C275.582 224 272 227.582 272 232C272 236.418 275.582 240 280 240Z" fill="black"/>
<path d="M280 432C284.418 432 288 428.418 288 424C288 419.582 284.418 416 280 416C275.582 416 272 419.582 272 424C272 428.418 275.582 432 280 432Z" fill="black"/>
<path d="M280 448C284.418 448 288 444.418 288 440C288 435.582 284.418 432 280 432C275.582 432 272 435.582 272 440C272 444.418 275.582 448 280 448Z" fill="black"/>
<path d="M280 464C284.418 464 288 460.418 288 456C288 451.582 284.418 448 280 448C275.582 448 272 451.582 272 456C272 460.418 275.582 464 280 464Z" fill="black"/>
<path d="M280 480C284.418 480 288 476.418 288 472C288 467.582 284.418 464 280 464C275.582 464 272 467.582 272 472C272 476.418 275.582 480 280 480Z" fill="black"/>
<path d="M280 496C284.418 496 288 492.418 288 488C288 483.582 284.418 480 280 480C275.582 480 272 483.582 272 488C272 492.418 275.582 496 280 496Z" fill="black"/>
<path d="M280 528C284.418 528 288 524.418 288 520C288 515.582 284.418 512 280 512C275.582 512 272 515.582 272 520C272 524.418 275.582 528 280 528Z" fill="black"/>
<path d="M280 576C284.418 576 288 572.418 288 568C288 563.582 284.418 560 280 560C275.582 560 272 563.582 272 568C272 572.418 275.582 576 280 576Z" fill="black"/>
<path d="M280 592C284.418 592 288 588.418 288 584C288 579.582 284.418 576 280 576C275.582 576 272 579.582 272 584C272 588.418 275.582 592 280 592Z" fill="black"/>
<path d="M296 144C300.418 144 304 140.418 304 136C304 131.582 300.418 128 296 128C291.582 128 288 131.582 288 136C288 140.418 291.582 144 296 144Z" fill="black"/>
<path d="M296 160C300.418 160 304 156.418 304 152C304 147.582 300.418 144 296 144C291.582 144 288 147.582 288 152C288 156.418 291.582 160 296 160Z" fill="black"/>
<path d="M296 176C300.418 176 304 172.418 304 168C304 163.582 300.418 160 296 160C291.582 160 288 163.582 288 168C288 172.418 291.582 176 296 176Z" fill="black"/>
<path d="M296 208C300.418 208 304 204.418 304 200C304 195.582 300.418 192 296 192C291.582 192 288 195.582 288 200C288 204.418 291.582 208 296 208Z" fill="black"/>
<path d="M296 432C300.418 432 304 428.418 304 424C304 419.582 300.418 416 296 416C291.582 416 288 419.582 288 424C288 428.418 291.582 432 296 432Z" fill="black"/>
<path d="M296 480C300.418 480 304 476.418 304 472C304 467.582 300.418 464 296 464C291.582 464 288 467.582 288 472C288 476.418 291.582 480 296 480Z" fill="black"/>
<path d="M296 496C300.418 496 304 492.418 304 488C304 483.582 300.418 480 296 480C291.582 480 288 483.582 288 488C288 492.418 291.582 496 296 496Z" fill="black"/>
<path d="M296 512C300.418 512 304 508.418 304 504C304 499.582 300.418 496 296 496C291.582 496 288 499.582 288 504C288 508.418 291.582 512 296 512Z" fill="black"/>
<path d="M296 528C300.418 528 304 524.418 304 520C304 515.582 300.418 512 296 512C291.582 512 288 515.582 288 520C288 524.418 291.582 528 296 528Z" fill="black"/>
<path d="M296 544C300.418 544 304 540.418 304 536C304 531.582 300.418 528 296 528C291.582 528 288 531.582 288 536C288 540.418 291.582 544 296 544Z" fill="black"/>
<path d="M296 560C300.418 560 304 556.418 304 552C304 547.582 300.418 544 296 544C291.582 544 288 547.582 288 552C288 556.418 291.582 560 296 560Z" fill="black"/>
<path d="M296 576C300.418 576 304 572.418 304 568C304 563.582 300.418 560 296 560C291.582 560 288 563.582 288 568C288 572.418 291.582 576 296 576Z" fill="black"/>
<path d="M296 592C300.418 592 304 588.418 304 584C304 579.582 300.418 576 296 576C291.582 576 288 579.582 288 584C288 588.418 291.582 592 296 592Z" fill="black"/>
<path d="M312 96C316.418 96 320 92.4183 320 88C320 83.5817 316.418 80 312 80C307.582 80 304 83.5817 304 88C304 92.4183 307.582 96 312 96Z" fill="black"/>
<path d="M312 112C316.418 112 320 108.418 320 104C320 99.5817 316.418 96 312 96C307.582 96 304 99.5817 304 104C304 108.418 307.582 112 312 112Z" fill="black"/>
<path d="M312 128C316.418 128 320 124.418 320 120C320 115.582 316.418 112 312 112C307.582 112 304 115.582 304 120C304 124.418 307.582 128 312 128Z" fill="black"/>
<path d="M312 144C316.418 144 320 140.418 320 136C320 131.582 316.418 128 312 128C307.582 128 304 131.582 304 136C304 140.418 307.582 144 312 144Z" fill="black"/>
<path d="M312 160C316.418 160 320 156.418 320 152C320 147.582 316.418 144 312 144C307.582 144 304 147.582 304 152C304 156.418 307.582 160 312 160Z" fill="black"/>
<path d="M312 192C316.418 192 320 188.418 320 184C320 179.582 316.418 176 312 176C307.582 176 304 179.582 304 184C304 188.418 307.582 192 312 192Z" fill="black"/>
<path d="M312 208C316.418 208 320 204.418 320 200C320 195.582 316.418 192 312 192C307.582 192 304 195.582 304 200C304 204.418 307.582 208 312 208Z" fill="black"/>
<path d="M312 240C316.418 240 320 236.418 320 232C320 227.582 316.418 224 312 224C307.582 224 304 227.582 304 232C304 236.418 307.582 240 312 240Z" fill="black"/>
<path d="M312 448C316.418 448 320 444.418 320 440C320 435.582 316.418 432 312 432C307.582 432 304 435.582 304 440C304 444.418 307.582 448 312 448Z" fill="black"/>
<path d="M312 496C316.418 496 320 492.418 320 488C320 483.582 316.418 480 312 480C307.582 480 304 483.582 304 488C304 492.418 307.582 496 312 496Z" fill="black"/>
<path d="M312 560C316.418 560 320 556.418 320 552C320 547.582 316.418 544 312 544C307.582 544 304 547.582 304 552C304 556.418 307.582 560 312 560Z" fill="black"/>
<path d="M312 592C316.418 592 320 588.418 320 584C320 579.582 316.418 576 312 576C307.582 576 304 579.582 304 584C304 588.418 307.582 592 312 592Z" fill="black"/>
<path d="M328 80C332.418 80 336 76.4183 336 72C336 67.5817 332.418 64 328 64C323.582 64 320 67.5817 320 72C320 76.4183 323.582 80 328 80Z" fill="black"/>
<path d="M328 96C332.418 96 336 92.4183 336 88C336 83.5817 332.418 80 328 80C323.582 80 320 83.5817 320 88C320 92.4183 323.582 96 328 96Z" fill="black"/>
<path d="M328 128C332.418 128 336 124.418 336 120C336 115.582 332.418 112 328 112C323.582 112 320 115.582 320 120C320 124.418 323.582 128 328 128Z" fill="black"/>
<path d="M328 160C332.418 160 336 156.418 336 152C336 147.582 332.418 144 328 144C323.582 144 320 147.582 320 152C320 156.418 323.582 160 328 160Z" fill="black"/>
<path d="M328 176C332.418 176 336 172.418 336 168C336 163.582 332.418 160 328 160C323.582 160 320 163.582 320 168C320 172.418 323.582 176 328 176Z" fill="black"/>
<path d="M328 224C332.418 224 336 220.418 336 216C336 211.582 332.418 208 328 208C323.582 208 320 211.582 320 216C320 220.418 323.582 224 328 224Z" fill="black"/>
<path d="M328 240C332.418 240 336 236.418 336 232C336 227.582 332.418 224 328 224C323.582 224 320 227.582 320 232C320 236.418 323.582 240 328 240Z" fill="black"/>
<path d="M328 448C332.418 448 336 444.418 336 440C336 435.582 332.418 432 328 432C323.582 432 320 435.582 320 440C320 444.418 323.582 448 328 448Z" fill="black"/>
<path d="M328 464C332.418 464 336 460.418 336 456C336 451.582 332.418 448 328 448C323.582 448 320 451.582 320 456C320 460.418 323.582 464 328 464Z" fill="black"/>
<path d="M328 480C332.418 480 336 476.418 336 472C336 467.582 332.418 464 328 464C323.582 464 320 467.582 320 472C320 476.418 323.582 480 328 480Z" fill="black"/>
<path d="M328 544C332.418 544 336 540.418 336 536C336 531.582 332.418 528 328 528C323.582 528 320 531.582 320 536C320 540.418 323.582 544 328 544Z" fill="black"/>
<path d="M344 80C348.418 80 352 76.4183 352 72C352 67.5817 348.418 64 344 64C339.582 64 336 67.5817 336 72C336 76.4183 339.582 80 344 80Z" fill="black"/>
<path d="M344 96C348.418 96 352 92.4183 352 88C352 83.5817 348.418 80 344 80C339.582 80 336 83.5817 336 88C336 92.4183 339.582 96 344 96Z" fill="black"/>
<path d="M344 112C348.418 112 352 108.418 352 104C352 99.5817 348.418 96 344 96C339.582 96 336 99.5817 336 104C336 108.418 339.582 112 344 112Z" fill="black"/>
<path d="M344 128C348.418 128 352 124.418 352 120C352 115.582 348.418 112 344 112C339.582 112 336 115.582 336 120C336 124.418 339.582 128 344 128Z" fill="black"/>
<path d="M344 160C348.418 160 352 156.418 352 152C352 147.582 348.418 144 344 144C339.582 144 336 147.582 336 152C336 156.418 339.582 160 344 160Z" fill="black"/>
<path d="M344 208C348.418 208 352 204.418 352 200C352 195.582 348.418 192 344 192C339.582 192 336 195.582 336 200C336 204.418 339.582 208 344 208Z" fill="black"/>
<path d="M344 224C348.418 224 352 220.418 352 216C352 211.582 348.418 208 344 208C339.582 208 336 211.582 336 216C336 220.418 339.582 224 344 224Z" fill="black"/>
<path d="M344 432C348.418 432 352 428.418 352 424C352 419.582 348.418 416 344 416C339.582 416 336 419.582 336 424C336 428.418 339.582 432 344 432Z" fill="black"/>
<path d="M344 448C348.418 448 352 444.418 352 440C352 435.582 348.418 432 344 432C339.582 432 336 435.582 336 440C336 444.418 339.582 448 344 448Z" fill="black"/>
<path d="M344 464C348.418 464 352 460.418 352 456C352 451.582 348.418 448 344 448C339.582 448 336 451.582 336 456C336 460.418 339.582 464 344 464Z" fill="black"/>
<path d="M344 496C348.418 496 352 492.418 352 488C352 483.582 348.418 480 344 480C339.582 480 336 483.582 336 488C336 492.418 339.582 496 344 496Z" fill="black"/>
<path d="M344 528C348.418 528 352 524.418 352 520C352 515.582 348.418 512 344 512C339.582 512 336 515.582 336 520C336 524.418 339.582 528 344 528Z" fill="black"/>
<path d="M344 544C348.418 544 352 540.418 352 536C352 531.582 348.418 528 344 528C339.582 528 336 531.582 336 536C336 540.418 339.582 544 344 544Z" fill="black"/>
<path d="M344 560C348.418 560 352 556.418 352 552C352 547.582 348.418 544 344 544C339.582 544 336 547.582 336 552C336 556.418 339.582 560 344 560Z" fill="black"/>
<path d="M344 576C348.418 576 352 572.418 352 568C352 563.582 348.418 560 344 560C339.582 560 336 563.582 336 568C336 572.418 339.582 576 344 576Z" fill="black"/>
<path d="M360 176C364.418 176 368 172.418 368 168C368 163.582 364.418 160 360 160C355.582 160 352 163.582 352 168C352 172.418 355.582 176 360 176Z" fill="black"/>
<path d="M360 192C364.418 192 368 188.418 368 184C368 179.582 364.418 176 360 176C355.582 176 352 179.582 352 184C352 188.418 355.582 192 360 192Z" fill="black"/>
<path d="M360 240C364.418 240 368 236.418 368 232C368 227.582 364.418 224 360 224C355.582 224 352 227.582 352 232C352 236.418 355.582 240 360 240Z" fill="black"/>
<path d="M360 432C364.418 432 368 428.418 368 424C368 419.582 364.418 416 360 416C355.582 416 352 419.582 352 424C352 428.418 355.582 432 360 432Z" fill="black"/>
<path d="M360 464C364.418 464 368 460.418 368 456C368 451.582 364.418 448 360 448C355.582 448 352 451.582 352 456C352 460.418 355.582 464 360 464Z" fill="black"/>
<path d="M360 496C364.418 496 368 492.418 368 488C368 483.582 364.418 480 360 480C355.582 480 352 483.582 352 488C352 492.418 355.582 496 360 496Z" fill="black"/>
<path d="M360 528C364.418 528 368 524.418 368 520C368 515.582 364.418 512 360 512C355.582 512 352 515.582 352 520C352 524.418 355.582 528 360 528Z" fill="black"/>
<path d="M360 576C364.418 576 368 572.418 368 568C368 563.582 364.418 560 360 560C355.582 560 352 563.582 352 568C352 572.418 355.582 576 360 576Z" fill="black"/>
<path d="M376 80C380.418 80 384 76.4183 384 72C384 67.5817 380.418 64 376 64C371.582 64 368 67.5817 368 72C368 76.4183 371.582 80 376 80Z" fill="black"/>
<path d="M376 112C380.418 112 384 108.418 384 104C384 99.5817 380.418 96 376 96C371.582 96 368 99.5817 368 104C368 108.418 371.582 112 376 112Z" fill="black"/>
<path d="M376 160C380.418 160 384 156.418 384 152C384 147.582 380.418 144 376 144C371.582 144 368 147.582 368 152C368 156.418 371.582 160 376 160Z" fill="black"/>
<path d="M376 208C380.418 208 384 204.418 384 200C384 195.582 380.418 192 376 192C371.582 192 368 195.582 368 200C368 204.418 371.582 208 376 208Z" fill="black"/>
<path d="M376 448C380.418 448 384 444.418 384 440C384 435.582 380.418 432 376 432C371.582 432 368 435.582 368 440C368 444.418 371.582 448 376 448Z" fill="black"/>
<path d="M376 496C380.418 496 384 492.418 384 488C384 483.582 380.418 480 376 480C371.582 480 368 483.582 368 488C368 492.418 371.582 496 376 496Z" fill="black"/>
<path d="M376 512C380.418 512 384 508.418 384 504C384 499.582 380.418 496 376 496C371.582 496 368 499.582 368 504C368 508.418 371.582 512 376 512Z" fill="black"/>
<path d="M376 528C380.418 528 384 524.418 384 520C384 515.582 380.418 512 376 512C371.582 512 368 515.582 368 520C368 524.418 371.582 528 376 528Z" fill="black"/>
<path d="M392 80C396.418 80 400 76.4183 400 72C400 67.5817 396.418 64 392 64C387.582 64 384 67.5817 384 72C384 76.4183 387.582 80 392 80Z" fill="black"/>
<path d="M392 96C396.418 96 400 92.4183 400 88C400 83.5817 396.418 80 392 80C387.582 80 384 83.5817 384 88C384 92.4183 387.582 96 392 96Z" fill="black"/>
<path d="M392 144C396.418 144 400 140.418 400 136C400 131.582 396.418 128 392 128C387.582 128 384 131.582 384 136C384 140.418 387.582 144 392 144Z" fill="black"/>
<path d="M392 176C396.418 176 400 172.418 400 168C400 163.582 396.418 160 392 160C387.582 160 384 163.582 384 168C384 172.418 387.582 176 392 176Z" fill="black"/>
<path d="M392 192C396.418 192 400 188.418 400 184C400 179.582 396.418 176 392 176C387.582 176 384 179.582 384 184C384 188.418 387.582 192 392 192Z" fill="black"/>
<path d="M392 208C396.418 208 400 204.418 400 200C400 195.582 396.418 192 392 192C387.582 192 384 195.582 384 200C384 204.418 387.582 208 392 208Z" fill="black"/>
<path d="M392 224C396.418 224 400 220.418 400 216C400 211.582 396.418 208 392 208C387.582 208 384 211.582 384 216C384 220.418 387.582 224 392 224Z" fill="black"/>
<path d="M392 240C396.418 240 400 236.418 400 232C400 227.582 396.418 224 392 224C387.582 224 384 227.582 384 232C384 236.418 387.582 240 392 240Z" fill="black"/>
<path d="M392 432C396.418 432 400 428.418 400 424C400 419.582 396.418 416 392 416C387.582 416 384 419.582 384 424C384 428.418 387.582 432 392 432Z" fill="black"/>
<path d="M392 448C396.418 448 400 444.418 400 440C400 435.582 396.418 432 392 432C387.582 432 384 435.582 384 440C384 444.418 387.582 448 392 448Z" fill="black"/>
<path d="M392 464C396.418 464 400 460.418 400 456C400 451.582 396.418 448 392 448C387.582 448 384 451.582 384 456C384 460.418 387.582 464 392 464Z" fill="black"/>
<path d="M392 496C396.418 496 400 492.418 400 488C400 483.582 396.418 480 392 480C387.582 480 384 483.582 384 488C384 492.418 387.582 496 392 496Z" fill="black"/>
<path d="M392 512C396.418 512 400 508.418 400 504C400 499.582 396.418 496 392 496C387.582 496 384 499.582 384 504C384 508.418 387.582 512 392 512Z" fill="black"/>
<path d="M392 592C396.418 592 400 588.418 400 584C400 579.582 396.418 576 392 576C387.582 576 384 579.582 384 584C384 588.418 387.582 592 392 592Z" fill="black"/>
<path d="M408 96C412.418 96 416 92.4183 416 88C416 83.5817 412.418 80 408 80C403.582 80 400 83.5817 400 88C400 92.4183 403.582 96 408 96Z" fill="black"/>
<path d="M408 112C412.418 112 416 108.418 416 104C416 99.5817 412.418 96 408 96C403.582 96 400 99.5817 400 104C400 108.418 403.582 112 408 112Z" fill="black"/>
<path d="M408 128C412.418 128 416 124.418 416 120C416 115.582 412.418 112 408 112C403.582 112 400 115.582 400 120C400 124.418 403.582 128 408 128Z" fill="black"/>
<path d="M408 144C412.418 144 416 140.418 416 136C416 131.582 412.418 128 408 128C403.582 128 400 131.582 400 136C400 140.418 403.582 144 408 144Z" fill="black"/>
<path d="M408 160C412.418 160 416 156.418 416 152C416 147.582 412.418 144 408 144C403.582 144 400 147.582 400 152C400 156.418 403.582 160 408 160Z" fill="black"/>
<path d="M408 240C412.418 240 416 236.418 416 232C416 227.582 412.418 224 408 224C403.582 224 400 227.582 400 232C400 236.418 403.582 240 408 240Z" fill="black"/>
<path d="M408 432C412.418 432 416 428.418 416 424C416 419.582 412.418 416 408 416C403.582 416 400 419.582 400 424C400 428.418 403.582 432 408 432Z" fill="black"/>
<path d="M408 480C412.418 480 416 476.418 416 472C416 467.582 412.418 464 408 464C403.582 464 400 467.582 400 472C400 476.418 403.582 480 408 480Z" fill="black"/>
<path d="M408 512C412.418 512 416 508.418 416 504C416 499.582 412.418 496 408 496C403.582 496 400 499.582 400 504C400 508.418 403.582 512 408 512Z" fill="black"/>
<path d="M408 528C412.418 528 416 524.418 416 520C416 515.582 412.418 512 408 512C403.582 512 400 515.582 400 520C400 524.418 403.582 528 408 528Z" fill="black"/>
<path d="M408 544C412.418 544 416 540.418 416 536C416 531.582 412.418 528 408 528C403.582 528 400 531.582 400 536C400 540.418 403.582 544 408 544Z" fill="black"/>
<path d="M424 80C428.418 80 432 76.4183 432 72C432 67.5817 428.418 64 424 64C419.582 64 416 67.5817 416 72C416 76.4183 419.582 80 424 80Z" fill="black"/>
<path d="M424 96C428.418 96 432 92.4183 432 88C432 83.5817 428.418 80 424 80C419.582 80 416 83.5817 416 88C416 92.4183 419.582 96 424 96Z" fill="black"/>
<path d="M424 128C428.418 128 432 124.418 432 120C432 115.582 428.418 112 424 112C419.582 112 416 115.582 416 120C416 124.418 419.582 128 424 128Z" fill="black"/>
<path d="M424 144C428.418 144 432 140.418 432 136C432 131.582 428.418 128 424 128C419.582 128 416 131.582 416 136C416 140.418 419.582 144 424 144Z" fill="black"/>
<path d="M424 160C428.418 160 432 156.418 432 152C432 147.582 428.418 144 424 144C419.582 144 416 147.582 416 152C416 156.418 419.582 160 424 160Z" fill="black"/>
<path d="M424 176C428.418 176 432 172.418 432 168C432 163.582 428.418 160 424 160C419.582 160 416 163.582 416 168C416 172.418 419.582 176 424 176Z" fill="black"/>
<path d="M424 208C428.418 208 432 204.418 432 200C432 195.582 428.418 192 424 192C419.582 192 416 195.582 416 200C416 204.418 419.582 208 424 208Z" fill="black"/>
<path d="M424 272C428.418 272 432 268.418 432 264C432 259.582 428.418 256 424 256C419.582 256 416 259.582 416 264C416 268.418 419.582 272 424 272Z" fill="black"/>
<path d="M424 288C428.418 288 432 284.418 432 280C432 275.582 428.418 272 424 272C419.582 272 416 275.582 416 280C416 284.418 419.582 288 424 288Z" fill="black"/>
<path d="M424 352C428.418 352 432 348.418 432 344C432 339.582 428.418 336 424 336C419.582 336 416 339.582 416 344C416 348.418 419.582 352 424 352Z" fill="black"/>
<path d="M424 416C428.418 416 432 412.418 432 408C432 403.582 428.418 400 424 400C419.582 400 416 403.582 416 408C416 412.418 419.582 416 424 416Z" fill="black"/>
<path d="M424 432C428.418 432 432 428.418 432 424C432 419.582 428.418 416 424 416C419.582 416 416 419.582 416 424C416 428.418 419.582 432 424 432Z" fill="black"/>
<path d="M424 480C428.418 480 432 476.418 432 472C432 467.582 428.418 464 424 464C419.582 464 416 467.582 416 472C416 476.418 419.582 480 424 480Z" fill="black"/>
<path d="M424 512C428.418 512 432 508.418 432 504C432 499.582 428.418 496 424 496C419.582 496 416 499.582 416 504C416 508.418 419.582 512 424 512Z" fill="black"/>
<path d="M424 528C428.418 528 432 524.418 432 520C432 515.582 428.418 512 424 512C419.582 512 416 515.582 416 520C416 524.418 419.582 528 424 528Z" fill="black"/>
<path d="M424 544C428.418 544 432 540.418 432 536C432 531.582 428.418 528 424 528C419.582 528 416 531.582 416 536C416 540.418 419.582 544 424 544Z" fill="black"/>
<path d="M424 576C428.418 576 432 572.418 432 568C432 563.582 428.418 560 424 560C419.582 560 416 563.582 416 568C416 572.418 419.582 576 424 576Z" fill="black"/>
<path d="M440 112C444.418 112 448 108.418 448 104C448 99.5817 444.418 96 440 96C435.582 96 432 99.5817 432 104C432 108.418 435.582 112 440 112Z" fill="black"/>
<path d="M440 128C444.418 128 448 124.418 448 120C448 115.582 444.418 112 440 112C435.582 112 432 115.582 432 120C432 124.418 435.582 128 440 128Z" fill="black"/>
<path d="M440 144C444.418 144 448 140.418 448 136C448 131.582 444.418 128 440 128C435.582 128 432 131.582 432 136C432 140.418 435.582 144 440 144Z" fill="black"/>
<path d="M440 192C444.418 192 448 188.418 448 184C448 179.582 444.418 176 440 176C435.582 176 432 179.582 432 184C432 188.418 435.582 192 440 192Z" fill="black"/>
<path d="M440 208C444.418 208 448 204.418 448 200C448 195.582 444.418 192 440 192C435.582 192 432 195.582 432 200C432 204.418 435.582 208 440 208Z" fill="black"/>
<path d="M440 224C444.418 224 448 220.418 448 216C448 211.582 444.418 208 440 208C435.582 208 432 211.582 432 216C432 220.418 435.582 224 440 224Z" fill="black"/>
<path d="M440 240C444.418 240 448 236.418 448 232C448 227.582 444.418 224 440 224C435.582 224 432 227.582 432 232C432 236.418 435.582 240 440 240Z" fill="black"/>
<path d="M440 288C444.418 288 448 284.418 448 280C448 275.582 444.418 272 440 272C435.582 272 432 275.582 432 280C432 284.418 435.582 288 440 288Z" fill="black"/>
<path d="M440 368C444.418 368 448 364.418 448 360C448 355.582 444.418 352 440 352C435.582 352 432 355.582 432 360C432 364.418 435.582 368 440 368Z" fill="black"/>
<path d="M440 384C444.418 384 448 380.418 448 376C448 371.582 444.418 368 440 368C435.582 368 432 371.582 432 376C432 380.418 435.582 384 440 384Z" fill="black"/>
<path d="M440 432C444.418 432 448 428.418 448 424C448 419.582 444.418 416 440 416C435.582 416 432 419.582 432 424C432 428.418 435.582 432 440 432Z" fill="black"/>
<path d="M440 448C444.418 448 448 444.418 448 440C448 435.582 444.418 432 440 432C435.582 432 432 435.582 432 440C432 444.418 435.582 448 440 448Z" fill="black"/>
<path d="M440 464C444.418 464 448 460.418 448 456C448 451.582 444.418 448 440 448C435.582 448 432 451.582 432 456C432 460.418 435.582 464 440 464Z" fill="black"/>
<path d="M440 480C444.418 480 448 476.418 448 472C448 467.582 444.418 464 440 464C435.582 464 432 467.582 432 472C432 476.418 435.582 480 440 480Z" fill="black"/>
<path d="M440 496C444.418 496 448 492.418 448 488C448 483.582 444.418 480 440 480C435.582 480 432 483.582 432 488C432 492.418 435.582 496 440 496Z" fill="black"/>
<path d="M440 528C444.418 528 448 524.418 448 520C448 515.582 444.418 512 440 512C435.582 512 432 515.582 432 520C432 524.418 435.582 528 440 528Z" fill="black"/>
<path d="M440 544C444.418 544 448 540.418 448 536C448 531.582 444.418 528 440 528C435.582 528 432 531.582 432 536C432 540.418 435.582 544 440 544Z" fill="black"/>
<path d="M440 560C444.418 560 448 556.418 448 552C448 547.582 444.418 544 440 544C435.582 544 432 547.582 432 552C432 556.418 435.582 560 440 560Z" fill="black"/>
<path d="M440 576C444.418 576 448 572.418 448 568C448 563.582 444.418 560 440 560C435.582 560 432 563.582 432 568C432 572.418 435.582 576 440 576Z" fill="black"/>
<path d="M440 592C444.418 592 448 588.418 448 584C448 579.582 444.418 576 440 576C435.582 576 432 579.582 432 584C432 588.418 435.582 592 440 592Z" fill="black"/>
<path d="M456 80C460.418 80 464 76.4183 464 72C464 67.5817 460.418 64 456 64C451.582 64 448 67.5817 448 72C448 76.4183 451.582 80 456 80Z" fill="black"/>
<path d="M456 96C460.418 96 464 92.4183 464 88C464 83.5817 460.418 80 456 80C451.582 80 448 83.5817 448 88C448 92.4183 451.582 96 456 96Z" fill="black"/>
<path d="M456 112C460.418 112 464 108.418 464 104C464 99.5817 460.418 96 456 96C451.582 96 448 99.5817 448 104C448 108.418 451.582 112 456 112Z" fill="black"/>
<path d="M456 128C460.418 128 464 124.418 464 120C464 115.582 460.418 112 456 112C451.582 112 448 115.582 448 120C448 124.418 451.582 128 456 128Z" fill="black"/>
<path d="M456 160C460.418 160 464 156.418 464 152C464 147.582 460.418 144 456 144C451.582 144 448 147.582 448 152C448 156.418 451.582 160 456 160Z" fill="black"/>
<path d="M456 176C460.418 176 464 172.418 464 168C464 163.582 460.418 160 456 160C451.582 160 448 163.582 448 168C448 172.418 451.582 176 456 176Z" fill="black"/>
<path d="M456 272C460.418 272 464 268.418 464 264C464 259.582 460.418 256 456 256C451.582 256 448 259.582 448 264C448 268.418 451.582 272 456 272Z" fill="black"/>
<path d="M456 288C460.418 288 464 284.418 464 280C464 275.582 460.418 272 456 272C451.582 272 448 275.582 448 280C448 284.418 451.582 288 456 288Z" fill="black"/>
<path d="M456 320C460.418 320 464 316.418 464 312C464 307.582 460.418 304 456 304C451.582 304 448 307.582 448 312C448 316.418 451.582 320 456 320Z" fill="black"/>
<path d="M456 352C460.418 352 464 348.418 464 344C464 339.582 460.418 336 456 336C451.582 336 448 339.582 448 344C448 348.418 451.582 352 456 352Z" fill="black"/>
<path d="M456 384C460.418 384 464 380.418 464 376C464 371.582 460.418 368 456 368C451.582 368 448 371.582 448 376C448 380.418 451.582 384 456 384Z" fill="black"/>
<path d="M456 416C460.418 416 464 412.418 464 408C464 403.582 460.418 400 456 400C451.582 400 448 403.582 448 408C448 412.418 451.582 416 456 416Z" fill="black"/>
<path d="M456 448C460.418 448 464 444.418 464 440C464 435.582 460.418 432 456 432C451.582 432 448 435.582 448 440C448 444.418 451.582 448 456 448Z" fill="black"/>
<path d="M456 464C460.418 464 464 460.418 464 456C464 451.582 460.418 448 456 448C451.582 448 448 451.582 448 456C448 460.418 451.582 464 456 464Z" fill="black"/>
<path d="M456 480C460.418 480 464 476.418 464 472C464 467.582 460.418 464 456 464C451.582 464 448 467.582 448 472C448 476.418 451.582 480 456 480Z" fill="black"/>
<path d="M456 496C460.418 496 464 492.418 464 488C464 483.582 460.418 480 456 480C451.582 480 448 483.582 448 488C448 492.418 451.582 496 456 496Z" fill="black"/>
<path d="M456 512C460.418 512 464 508.418 464 504C464 499.582 460.418 496 456 496C451.582 496 448 499.582 448 504C448 508.418 451.582 512 456 512Z" fill="black"/>
<path d="M456 528C460.418 528 464 524.418 464 520C464 515.582 460.418 512 456 512C451.582 512 448 515.582 448 520C448 524.418 451.582 528 456 528Z" fill="black"/>
<path d="M456 560C460.418 560 464 556.418 464 552C464 547.582 460.418 544 456 544C451.582 544 448 547.582 448 552C448 556.418 451.582 560 456 560Z" fill="black"/>
<path d="M456 592C460.418 592 464 588.418 464 584C464 579.582 460.418 576 456 576C451.582 576 448 579.582 448 584C448 588.418 451.582 592 456 592Z" fill="black"/>
<path d="M472 224C476.418 224 480 220.418 480 216C480 211.582 476.418 208 472 208C467.582 208 464 211.582 464 216C464 220.418 467.582 224 472 224Z" fill="black"/>
<path d="M472 240C476.418 240 480 236.418 480 232C480 227.582 476.418 224 472 224C467.582 224 464 227.582 464 232C464 236.418 467.582 240 472 240Z" fill="black"/>
<path d="M472 288C476.418 288 480 284.418 480 280C480 275.582 476.418 272 472 272C467.582 272 464 275.582 464 280C464 284.418 467.582 288 472 288Z" fill="black"/>
<path d="M472 320C476.418 320 480 316.418 480 312C480 307.582 476.418 304 472 304C467.582 304 464 307.582 464 312C464 316.418 467.582 320 472 320Z" fill="black"/>
<path d="M472 336C476.418 336 480 332.418 480 328C480 323.582 476.418 320 472 320C467.582 320 464 323.582 464 328C464 332.418 467.582 336 472 336Z" fill="black"/>
<path d="M472 384C476.418 384 480 380.418 480 376C480 371.582 476.418 368 472 368C467.582 368 464 371.582 464 376C464 380.418 467.582 384 472 384Z" fill="black"/>
<path d="M472 464C476.418 464 480 460.418 480 456C480 451.582 476.418 448 472 448C467.582 448 464 451.582 464 456C464 460.418 467.582 464 472 464Z" fill="black"/>
<path d="M472 528C476.418 528 480 524.418 480 520C480 515.582 476.418 512 472 512C467.582 512 464 515.582 464 520C464 524.418 467.582 528 472 528Z" fill="black"/>
<path d="M472 544C476.418 544 480 540.418 480 536C480 531.582 476.418 528 472 528C467.582 528 464 531.582 464 536C464 540.418 467.582 544 472 544Z" fill="black"/>
<path d="M472 592C476.418 592 480 588.418 480 584C480 579.582 476.418 576 472 576C467.582 576 464 579.582 464 584C464 588.418 467.582 592 472 592Z" fill="black"/>
<path d="M488 256C492.418 256 496 252.418 496 248C496 243.582 492.418 240 488 240C483.582 240 480 243.582 480 248C480 252.418 483.582 256 488 256Z" fill="black"/>
<path d="M488 272C492.418 272 496 268.418 496 264C496 259.582 492.418 256 488 256C483.582 256 480 259.582 480 264C480 268.418 483.582 272 488 272Z" fill="black"/>
<path d="M488 320C492.418 320 496 316.418 496 312C496 307.582 492.418 304 488 304C483.582 304 480 307.582 480 312C480 316.418 483.582 320 488 320Z" fill="black"/>
<path d="M488 336C492.418 336 496 332.418 496 328C496 323.582 492.418 320 488 320C483.582 320 480 323.582 480 328C480 332.418 483.582 336 488 336Z" fill="black"/>
<path d="M488 400C492.418 400 496 396.418 496 392C496 387.582 492.418 384 488 384C483.582 384 480 387.582 480 392C480 396.418 483.582 400 488 400Z" fill="black"/>
<path d="M488 416C492.418 416 496 412.418 496 408C496 403.582 492.418 400 488 400C483.582 400 480 403.582 480 408C480 412.418 483.582 416 488 416Z" fill="black"/>
<path d="M488 432C492.418 432 496 428.418 496 424C496 419.582 492.418 416 488 416C483.582 416 480 419.582 480 424C480 428.418 483.582 432 488 432Z" fill="black"/>
<path d="M488 464C492.418 464 496 460.418 496 456C496 451.582 492.418 448 488 448C483.582 448 480 451.582 480 456C480 460.418 483.582 464 488 464Z" fill="black"/>
<path d="M488 496C492.418 496 496 492.418 496 488C496 483.582 492.418 480 488 480C483.582 480 480 483.582 480 488C480 492.418 483.582 496 488 496Z" fill="black"/>
<path d="M488 528C492.418 528 496 524.418 496 520C496 515.582 492.418 512 488 512C483.582 512 480 515.582 480 520C480 524.418 483.582 528 488 528Z" fill="black"/>
<path d="M504 224C508.418 224 512 220.418 512 216C512 211.582 508.418 208 504 208C499.582 208 496 211.582 496 216C496 220.418 499.582 224 504 224Z" fill="black"/>
<path d="M504 240C508.418 240 512 236.418 512 232C512 227.582 508.418 224 504 224C499.582 224 496 227.582 496 232C496 236.418 499.582 240 504 240Z" fill="black"/>
<path d="M504 256C508.418 256 512 252.418 512 248C512 243.582 508.418 240 504 240C499.582 240 496 243.582 496 248C496 252.418 499.582 256 504 256Z" fill="black"/>
<path d="M504 336C508.418 336 512 332.418 512 328C512 323.582 508.418 320 504 320C499.582 320 496 323.582 496 328C496 332.418 499.582 336 504 336Z" fill="black"/>
<path d="M504 352C508.418 352 512 348.418 512 344C512 339.582 508.418 336 504 336C499.582 336 496 339.582 496 344C496 348.418 499.582 352 504 352Z" fill="black"/>
<path d="M504 368C508.418 368 512 364.418 512 360C512 355.582 508.418 352 504 352C499.582 352 496 355.582 496 360C496 364.418 499.582 368 504 368Z" fill="black"/>
<path d="M504 400C508.418 400 512 396.418 512 392C512 387.582 508.418 384 504 384C499.582 384 496 387.582 496 392C496 396.418 499.582 400 504 400Z" fill="black"/>
<path d="M504 432C508.418 432 512 428.418 512 424C512 419.582 508.418 416 504 416C499.582 416 496 419.582 496 424C496 428.418 499.582 432 504 432Z" fill="black"/>
<path d="M504 448C508.418 448 512 444.418 512 440C512 435.582 508.418 432 504 432C499.582 432 496 435.582 496 440C496 444.418 499.582 448 504 448Z" fill="black"/>
<path d="M504 464C508.418 464 512 460.418 512 456C512 451.582 508.418 448 504 448C499.582 448 496 451.582 496 456C496 460.418 499.582 464 504 464Z" fill="black"/>
<path d="M504 528C508.418 528 512 524.418 512 520C512 515.582 508.418 512 504 512C499.582 512 496 515.582 496 520C496 524.418 499.582 528 504 528Z" fill="black"/>
<path d="M504 544C508.418 544 512 540.418 512 536C512 531.582 508.418 528 504 528C499.582 528 496 531.582 496 536C496 540.418 499.582 544 504 544Z" fill="black"/>
<path d="M520 224C524.418 224 528 220.418 528 216C528 211.582 524.418 208 520 208C515.582 208 512 211.582 512 216C512 220.418 515.582 224 520 224Z" fill="black"/>
<path d="M520 256C524.418 256 528 252.418 528 248C528 243.582 524.418 240 520 240C515.582 240 512 243.582 512 248C512 252.418 515.582 256 520 256Z" fill="black"/>
<path d="M520 272C524.418 272 528 268.418 528 264C528 259.582 524.418 256 520 256C515.582 256 512 259.582 512 264C512 268.418 515.582 272 520 272Z" fill="black"/>
<path d="M520 304C524.418 304 528 300.418 528 296C528 291.582 524.418 288 520 288C515.582 288 512 291.582 512 296C512 300.418 515.582 304 520 304Z" fill="black"/>
<path d="M520 320C524.418 320 528 316.418 528 312C528 307.582 524.418 304 520 304C515.582 304 512 307.582 512 312C512 316.418 515.582 320 520 320Z" fill="black"/>
<path d="M520 352C524.418 352 528 348.418 528 344C528 339.582 524.418 336 520 336C515.582 336 512 339.582 512 344C512 348.418 515.582 352 520 352Z" fill="black"/>
<path d="M520 384C524.418 384 528 380.418 528 376C528 371.582 524.418 368 520 368C515.582 368 512 371.582 512 376C512 380.418 515.582 384 520 384Z" fill="black"/>
<path d="M520 416C524.418 416 528 412.418 528 408C528 403.582 524.418 400 520 400C515.582 400 512 403.582 512 408C512 412.418 515.582 416 520 416Z" fill="black"/>
<path d="M520 448C524.418 448 528 444.418 528 440C528 435.582 524.418 432 520 432C515.582 432 512 435.582 512 440C512 444.418 515.582 448 520 448Z" fill="black"/>
<path d="M520 464C524.418 464 528 460.418 528 456C528 451.582 524.418 448 520 448C515.582 448 512 451.582 512 456C512 460.418 515.582 464 520 464Z" fill="black"/>
<path d="M520 480C524.418 480 528 476.418 528 472C528 467.582 524.418 464 520 464C515.582 464 512 467.582 512 472C512 476.418 515.582 480 520 480Z" fill="black"/>
<path d="M520 496C524.418 496 528 492.418 528 488C528 483.582 524.418 480 520 480C515.582 480 512 483.582 512 488C512 492.418 515.582 496 520 496Z" fill="black"/>
<path d="M520 512C524.418 512 528 508.418 528 504C528 499.582 524.418 496 520 496C515.582 496 512 499.582 512 504C512 508.418 515.582 512 520 512Z" fill="black"/>
<path d="M520 528C524.418 528 528 524.418 528 520C528 515.582 524.418 512 520 512C515.582 512 512 515.582 512 520C512 524.418 515.582 528 520 528Z" fill="black"/>
<path d="M536 208C540.418 208 544 204.418 544 200C544 195.582 540.418 192 536 192C531.582 192 528 195.582 528 200C528 204.418 531.582 208 536 208Z" fill="black"/>
<path d="M536 224C540.418 224 544 220.418 544 216C544 211.582 540.418 208 536 208C531.582 208 528 211.582 528 216C528 220.418 531.582 224 536 224Z" fill="black"/>
<path d="M536 272C540.418 272 544 268.418 544 264C544 259.582 540.418 256 536 256C531.582 256 528 259.582 528 264C528 268.418 531.582 272 536 272Z" fill="black"/>
<path d="M536 336C540.418 336 544 332.418 544 328C544 323.582 540.418 320 536 320C531.582 320 528 323.582 528 328C528 332.418 531.582 336 536 336Z" fill="black"/>
<path d="M536 352C540.418 352 544 348.418 544 344C544 339.582 540.418 336 536 336C531.582 336 528 339.582 528 344C528 348.418 531.582 352 536 352Z" fill="black"/>
<path d="M536 368C540.418 368 544 364.418 544 360C544 355.582 540.418 352 536 352C531.582 352 528 355.582 528 360C528 364.418 531.582 368 536 368Z" fill="black"/>
<path d="M536 384C540.418 384 544 380.418 544 376C544 371.582 540.418 368 536 368C531.582 368 528 371.582 528 376C528 380.418 531.582 384 536 384Z" fill="black"/>
<path d="M536 400C540.418 400 544 396.418 544 392C544 387.582 540.418 384 536 384C531.582 384 528 387.582 528 392C528 396.418 531.582 400 536 400Z" fill="black"/>
<path d="M536 480C540.418 480 544 476.418 544 472C544 467.582 540.418 464 536 464C531.582 464 528 467.582 528 472C528 476.418 531.582 480 536 480Z" fill="black"/>
<path d="M536 512C540.418 512 544 508.418 544 504C544 499.582 540.418 496 536 496C531.582 496 528 499.582 528 504C528 508.418 531.582 512 536 512Z" fill="black"/>
<path d="M536 528C540.418 528 544 524.418 544 520C544 515.582 540.418 512 536 512C531.582 512 528 515.582 528 520C528 524.418 531.582 528 536 528Z" fill="black"/>
<path d="M552 208C556.418 208 560 204.418 560 200C560 195.582 556.418 192 552 192C547.582 192 544 195.582 544 200C544 204.418 547.582 208 552 208Z" fill="black"/>
<path d="M552 224C556.418 224 560 220.418 560 216C560 211.582 556.418 208 552 208C547.582 208 544 211.582 544 216C544 220.418 547.582 224 552 224Z" fill="black"/>
<path d="M552 240C556.418 240 560 236.418 560 232C560 227.582 556.418 224 552 224C547.582 224 544 227.582 544 232C544 236.418 547.582 240 552 240Z" fill="black"/>
<path d="M552 256C556.418 256 560 252.418 560 248C560 243.582 556.418 240 552 240C547.582 240 544 243.582 544 248C544 252.418 547.582 256 552 256Z" fill="black"/>
<path d="M552 288C556.418 288 560 284.418 560 280C560 275.582 556.418 272 552 272C547.582 272 544 275.582 544 280C544 284.418 547.582 288 552 288Z" fill="black"/>
<path d="M552 320C556.418 320 560 316.418 560 312C560 307.582 556.418 304 552 304C547.582 304 544 307.582 544 312C544 316.418 547.582 320 552 320Z" fill="black"/>
<path d="M552 336C556.418 336 560 332.418 560 328C560 323.582 556.418 320 552 320C547.582 320 544 323.582 544 328C544 332.418 547.582 336 552 336Z" fill="black"/>
<path d="M552 368C556.418 368 560 364.418 560 360C560 355.582 556.418 352 552 352C547.582 352 544 355.582 544 360C544 364.418 547.582 368 552 368Z" fill="black"/>
<path d="M552 384C556.418 384 560 380.418 560 376C560 371.582 556.418 368 552 368C547.582 368 544 371.582 544 376C544 380.418 547.582 384 552 384Z" fill="black"/>
<path d="M552 432C556.418 432 560 428.418 560 424C560 419.582 556.418 416 552 416C547.582 416 544 419.582 544 424C544 428.418 547.582 432 552 432Z" fill="black"/>
<path d="M552 448C556.418 448 560 444.418 560 440C560 435.582 556.418 432 552 432C547.582 432 544 435.582 544 440C544 444.418 547.582 448 552 448Z" fill="black"/>
<path d="M552 512C556.418 512 560 508.418 560 504C560 499.582 556.418 496 552 496C547.582 496 544 499.582 544 504C544 508.418 547.582 512 552 512Z" fill="black"/>
<path d="M552 528C556.418 528 560 524.418 560 520C560 515.582 556.418 512 552 512C547.582 512 544 515.582 544 520C544 524.418 547.582 528 552 528Z" fill="black"/>
<path d="M568 240C572.418 240 576 236.418 576 232C576 227.582 572.418 224 568 224C563.582 224 560 227.582 560 232C560 236.418 563.582 240 568 240Z" fill="black"/>
<path d="M568 272C572.418 272 576 268.418 576 264C576 259.582 572.418 256 568 256C563.582 256 560 259.582 560 264C560 268.418 563.582 272 568 272Z" fill="black"/>
<path d="M568 288C572.418 288 576 284.418 576 280C576 275.582 572.418 272 568 272C563.582 272 560 275.582 560 280C560 284.418 563.582 288 568 288Z" fill="black"/>
<path d="M568 320C572.418 320 576 316.418 576 312C576 307.582 572.418 304 568 304C563.582 304 560 307.582 560 312C560 316.418 563.582 320 568 320Z" fill="black"/>
<path d="M568 352C572.418 352 576 348.418 576 344C576 339.582 572.418 336 568 336C563.582 336 560 339.582 560 344C560 348.418 563.582 352 568 352Z" fill="black"/>
<path d="M568 400C572.418 400 576 396.418 576 392C576 387.582 572.418 384 568 384C563.582 384 560 387.582 560 392C560 396.418 563.582 400 568 400Z" fill="black"/>
<path d="M568 432C572.418 432 576 428.418 576 424C576 419.582 572.418 416 568 416C563.582 416 560 419.582 560 424C560 428.418 563.582 432 568 432Z" fill="black"/>
<path d="M568 480C572.418 480 576 476.418 576 472C576 467.582 572.418 464 568 464C563.582 464 560 467.582 560 472C560 476.418 563.582 480 568 480Z" fill="black"/>
<path d="M568 512C572.418 512 576 508.418 576 504C576 499.582 572.418 496 568 496C563.582 496 560 499.582 560 504C560 508.418 563.582 512 568 512Z" fill="black"/>
<path d="M568 528C572.418 528 576 524.418 576 520C576 515.582 572.418 512 568 512C563.582 512 560 515.582 560 520C560 524.418 563.582 528 568 528Z" fill="black"/>
<path d="M568 544C572.418 544 576 540.418 576 536C576 531.582 572.418 528 568 528C563.582 528 560 531.582 560 536C560 540.418 563.582 544 568 544Z" fill="black"/>
<path d="M584 240C588.418 240 592 236.418 592 232C592 227.582 588.418 224 584 224C579.582 224 576 227.582 576 232C576 236.418 579.582 240 584 240Z" fill="black"/>
<path d="M584 256C588.418 256 592 252.418 592 248C592 243.582 588.418 240 584 240C579.582 240 576 243.582 576 248C576 252.418 579.582 256 584 256Z" fill="black"/>
<path d="M584 272C588.418 272 592 268.418 592 264C592 259.582 588.418 256 584 256C579.582 256 576 259.582 576 264C576 268.418 579.582 272 584 272Z" fill="black"/>
<path d="M584 352C588.418 352 592 348.418 592 344C592 339.582 588.418 336 584 336C579.582 336 576 339.582 576 344C576 348.418 579.582 352 584 352Z" fill="black"/>
<path d="M584 368C588.418 368 592 364.418 592 360C592 355.582 588.418 352 584 352C579.582 352 576 355.582 576 360C576 364.418 579.582 368 584 368Z" fill="black"/>
<path d="M584 384C588.418 384 592 380.418 592 376C592 371.582 588.418 368 584 368C579.582 368 576 371.582 576 376C576 380.418 579.582 384 584 384Z" fill="black"/>
<path d="M584 416C588.418 416 592 412.418 592 408C592 403.582 588.418 400 584 400C579.582 400 576 403.582 576 408C576 412.418 579.582 416 584 416Z" fill="black"/>
<path d="M584 432C588.418 432 592 428.418 592 424C592 419.582 588.418 416 584 416C579.582 416 576 419.582 576 424C576 428.418 579.582 432 584 432Z" fill="black"/>
<path d="M159.984 64H75.2C69.04 64 64 69.04 64 75.2V164.8C64 170.96 69.04 176 75.2 176H164.8C170.96 176 176 170.96 176 164.8V75.2C176 69.04 170.96 64 164.8 64H159.984ZM159.984 95.976V148.784C159.984 155 155 159.984 148.784 159.984H91.216C85 159.984 80.016 155 80.016 148.784V91.216C80.016 85 85 80.016 91.216 80.016H148.784C155 80.016 159.984 85 159.984 91.216V95.976Z" fill="black"/>
<path d="M127.584 96H101.6C98.52 96 96 98.52 96 101.6V137.776C96 140.856 98.52 143.376 101.6 143.376H137.776C140.856 143.376 143.376 140.856 143.376 137.776V101.6C143.376 98.52 140.856 96 137.776 96H127.584Z" fill="black"/>
<path d="M575.984 64H491.2C485.04 64 480 69.04 480 75.2V164.8C480 170.96 485.04 176 491.2 176H580.8C586.96 176 592 170.96 592 164.8V75.2C592 69.04 586.96 64 580.8 64H575.984ZM575.984 95.976V148.784C575.984 155 571 159.984 564.784 159.984H507.216C501 159.984 496.016 155 496.016 148.784V91.216C496.016 85 501 80.016 507.216 80.016H564.784C571 80.016 575.984 85 575.984 91.216V95.976Z" fill="black"/>
<path d="M543.584 96H517.6C514.52 96 512 98.52 512 101.6V137.776C512 140.856 514.52 143.376 517.6 143.376H553.776C556.856 143.376 559.376 140.856 559.376 137.776V101.6C559.376 98.52 556.856 96 553.776 96H543.584Z" fill="black"/>
<path d="M159.984 480H75.2C69.04 480 64 485.04 64 491.2V580.8C64 586.96 69.04 592 75.2 592H164.8C170.96 592 176 586.96 176 580.8V491.2C176 485.04 170.96 480 164.8 480H159.984ZM159.984 511.976V564.784C159.984 571 155 575.984 148.784 575.984H91.216C85 575.984 80.016 571 80.016 564.784V507.216C80.016 501 85 496.016 91.216 496.016H148.784C155 496.016 159.984 501 159.984 507.216V511.976Z" fill="black"/>
<path d="M127.584 512H101.6C98.52 512 96 514.52 96 517.6V553.776C96 556.856 98.52 559.376 101.6 559.376H137.776C140.856 559.376 143.376 556.856 143.376 553.776V517.6C143.376 514.52 140.856 512 137.776 512H127.584Z" fill="black"/>
<path d="M578.52 576.336H586.726C587.432 576.336 588.072 576.511 588.647 576.86C589.229 577.202 589.691 577.66 590.032 578.235C590.382 578.809 590.556 579.45 590.556 580.155V581.705C590.556 582.411 590.385 583.047 590.043 583.615C589.709 584.182 589.25 584.633 588.668 584.968C588.086 585.303 587.435 585.47 586.715 585.47L591.342 591.854H588.537L583.91 585.47H582.132V583.178H586.726C587.155 583.178 587.519 583.033 587.817 582.742C588.115 582.443 588.265 582.087 588.265 581.672V580.155C588.265 579.733 588.115 579.373 587.817 579.075C587.519 578.777 587.155 578.628 586.726 578.628H580.822V591.854H578.52V576.336Z" fill="black"/>
<path d="M568.121 576.336H570.991L576.546 591.854H574.09L572.399 587.183H568.066L568.896 584.892H571.569L569.561 579.348L565.022 591.854H562.566L568.121 576.336Z" fill="black"/>
<path d="M553.441 589.562H556.213C556.788 589.562 557.279 589.362 557.686 588.962C558.094 588.562 558.298 588.078 558.298 587.511V576.336H560.589V587.543C560.589 588.336 560.393 589.06 560 589.715C559.607 590.362 559.08 590.883 558.418 591.275C557.756 591.661 557.021 591.854 556.213 591.854H553.441V589.562Z" fill="black"/>
<path d="M546.461 583.712C546.461 583.13 546.606 582.598 546.897 582.118C547.196 581.638 547.589 581.256 548.076 580.972C548.571 580.689 549.116 580.547 549.713 580.547H552.234V582.839H549.713C549.451 582.839 549.225 582.929 549.036 583.111C548.854 583.286 548.764 583.501 548.764 583.755V591.852H546.461V583.712Z" fill="black"/>
<path d="M533.559 582.882C533.559 582.235 533.795 581.685 534.268 581.234C534.741 580.776 535.308 580.547 535.97 580.547H540.685C541.288 580.547 541.834 580.696 542.322 580.994C542.816 581.285 543.209 581.682 543.5 582.184C543.798 582.678 543.948 583.228 543.948 583.832V584.148C543.948 584.745 543.798 585.29 543.5 585.785C543.209 586.272 542.816 586.665 542.322 586.964C541.834 587.255 541.288 587.4 540.685 587.4H537.171V585.108H540.706C540.968 585.108 541.19 585.014 541.372 584.825C541.561 584.636 541.656 584.406 541.656 584.137V583.832C541.656 583.555 541.561 583.322 541.372 583.133C541.19 582.944 540.968 582.849 540.706 582.849H535.861V588.655C535.861 588.902 535.945 589.113 536.112 589.288C536.28 589.463 536.483 589.55 536.723 589.55H543.151V591.852H536.723C536.141 591.852 535.61 591.711 535.13 591.427C534.65 591.136 534.268 590.75 533.984 590.27C533.7 589.783 533.559 589.248 533.559 588.666V582.882Z" fill="black"/>
<path d="M520.551 576.336H522.853V589.551H526.858C527.353 589.551 527.771 589.377 528.113 589.027C528.463 588.678 528.637 588.26 528.637 587.772V584.651C528.637 584.157 528.463 583.735 528.113 583.386C527.771 583.029 527.353 582.851 526.858 582.851H524.163V580.548H526.858C527.608 580.548 528.292 580.734 528.91 581.105C529.528 581.469 530.019 581.96 530.383 582.578C530.754 583.196 530.94 583.88 530.94 584.63V587.794C530.94 588.536 530.754 589.217 530.383 589.835C530.019 590.446 529.528 590.937 528.91 591.308C528.292 591.672 527.608 591.854 526.858 591.854H522.853C522.22 591.854 521.678 591.628 521.227 591.177C520.776 590.726 520.551 590.184 520.551 589.551V576.336Z" fill="black"/>
<path d="M510.206 580.547L513.142 588.382L516.143 580.547H518.685L512.683 596.108H510.163L511.919 591.481L507.762 580.547H510.206Z" fill="black"/>
<path d="M493.336 580.701C493.336 579.893 493.536 579.162 493.936 578.508C494.336 577.846 494.871 577.318 495.54 576.925C496.21 576.532 496.952 576.336 497.767 576.336H505.896V578.628H497.767C497.177 578.628 496.675 578.831 496.261 579.239C495.846 579.639 495.639 580.126 495.639 580.701V587.532C495.639 588.085 495.846 588.562 496.261 588.962C496.675 589.355 497.177 589.551 497.767 589.551H505.896V591.854H497.767C496.952 591.854 496.21 591.661 495.54 591.275C494.871 590.89 494.336 590.373 493.936 589.726C493.536 589.071 493.336 588.351 493.336 587.565V580.701Z" fill="black"/>
<path d="M590.556 581.704V580.155C590.556 579.449 590.381 578.809 590.032 578.234C589.69 577.659 589.228 577.201 588.646 576.859C588.071 576.51 587.431 576.335 586.725 576.335V576C587.487 576 588.187 576.189 588.816 576.57C589.446 576.94 589.949 577.439 590.32 578.063C590.702 578.692 590.891 579.392 590.891 580.155V581.704C590.891 582.466 590.706 583.162 590.331 583.784L590.331 583.784C589.967 584.403 589.466 584.895 588.835 585.258C588.374 585.523 587.875 585.69 587.341 585.763L591.998 592.188H588.366L583.739 585.804H581.796V582.842H586.725V583.178H582.131V585.469H583.91L588.537 591.853H591.341L586.714 585.469C587.435 585.469 588.086 585.302 588.668 584.967C589.25 584.633 589.708 584.181 590.043 583.614C590.385 583.047 590.556 582.41 590.556 581.704ZM587.929 581.672V580.155C587.929 579.822 587.815 579.547 587.579 579.311C587.345 579.077 587.067 578.962 586.725 578.962H581.157V592.188H578.184V576H586.725V576.335H578.519V591.853H580.821V578.627H586.725C587.154 578.627 587.518 578.776 587.816 579.074C588.115 579.373 588.264 579.733 588.264 580.155V581.672C588.264 582.086 588.115 582.443 587.816 582.741C587.518 583.032 587.154 583.178 586.725 583.178V582.842C587.069 582.842 587.348 582.729 587.581 582.502C587.817 582.266 587.929 581.995 587.929 581.672Z" fill="black"/>
<path d="M571.227 576L577.021 592.188H573.855L572.163 587.518H567.588L568.66 584.556H571.091L569.561 580.331L565.256 592.188H562.09L567.884 576H571.227ZM568.12 576.335L562.566 591.853H565.021L569.561 579.347L571.569 584.891H568.895L568.066 587.183H572.398L574.09 591.853H576.545L570.99 576.335H568.12Z" fill="black"/>
<path d="M560.592 587.543V576.335H558.301V587.51C558.301 588.077 558.097 588.561 557.69 588.961C557.282 589.361 556.791 589.561 556.216 589.561V589.226C556.704 589.226 557.11 589.06 557.455 588.722C557.798 588.385 557.966 587.987 557.966 587.51V576H560.928V587.543C560.928 588.394 560.716 589.178 560.291 589.887L560.29 589.887L560.29 589.888C559.868 590.583 559.3 591.143 558.592 591.563L558.591 591.564L558.59 591.565C557.873 591.982 557.08 592.188 556.216 592.188H553.109V589.226H556.216V589.561H553.445V591.853H556.216C557.024 591.853 557.759 591.66 558.421 591.275C559.083 590.882 559.61 590.362 560.003 589.714C560.396 589.059 560.592 588.336 560.592 587.543Z" fill="black"/>
<path d="M548.759 583.755C548.759 583.5 548.85 583.285 549.032 583.111C549.221 582.929 549.446 582.838 549.708 582.838H552.229V580.546H549.708V580.211H552.564V583.173H549.708C549.533 583.173 549.391 583.23 549.264 583.352L549.264 583.352C549.149 583.463 549.094 583.59 549.094 583.755V592.187H546.121V583.711C546.121 583.07 546.282 582.478 546.606 581.944L546.607 581.942L546.608 581.941C546.935 581.414 547.368 580.993 547.903 580.682L547.904 580.681L547.905 580.681C548.453 580.367 549.056 580.211 549.708 580.211V580.546C549.112 580.546 548.566 580.688 548.071 580.972C547.584 581.256 547.191 581.637 546.893 582.118C546.602 582.598 546.456 583.129 546.456 583.711V591.852H548.759V583.755Z" fill="black"/>
<path d="M533.223 588.665V582.882C533.223 582.142 533.497 581.506 534.034 580.993L534.084 580.945C534.61 580.457 535.244 580.211 535.97 580.211V580.546C535.308 580.546 534.74 580.775 534.267 581.234C533.794 581.685 533.558 582.234 533.558 582.882V588.665C533.558 589.247 533.7 589.782 533.983 590.269C534.267 590.75 534.649 591.135 535.129 591.426C535.609 591.71 536.141 591.852 536.723 591.852H543.15V589.549H536.723V589.214H543.485V592.187H536.723C536.083 592.187 535.493 592.03 534.959 591.715L534.957 591.714L534.956 591.713C534.428 591.393 534.007 590.968 533.695 590.44L533.694 590.438C533.379 589.898 533.223 589.305 533.223 588.665ZM543.947 584.147V583.831C543.947 583.227 543.798 582.678 543.499 582.183C543.208 581.681 542.816 581.285 542.321 580.994C541.833 580.695 541.288 580.546 540.684 580.546V580.211C541.344 580.211 541.949 580.374 542.491 580.705C543.034 581.024 543.467 581.461 543.787 582.01L543.817 582.062C544.128 582.597 544.282 583.19 544.282 583.831V584.147C544.282 584.802 544.117 585.408 543.787 585.956C543.467 586.492 543.035 586.924 542.494 587.25L542.493 587.251C541.95 587.575 541.344 587.735 540.684 587.735H536.835V584.772H540.706V585.108H537.17V587.399H540.684C541.288 587.399 541.833 587.254 542.321 586.963C542.816 586.665 543.208 586.272 543.499 585.784C543.798 585.29 543.947 584.744 543.947 584.147ZM541.32 584.136V583.831C541.32 583.64 541.258 583.493 541.134 583.37L541.132 583.367L541.13 583.365C541.011 583.241 540.876 583.184 540.706 583.184H536.196V588.654C536.196 588.817 536.248 588.945 536.354 589.055C536.458 589.164 536.575 589.214 536.723 589.214V589.549C536.483 589.549 536.279 589.462 536.111 589.287C535.944 589.113 535.86 588.902 535.86 588.654V582.849H540.706C540.968 582.849 541.19 582.943 541.371 583.132C541.561 583.322 541.655 583.554 541.655 583.831V584.136C541.655 584.406 541.561 584.635 541.371 584.824C541.19 585.013 540.968 585.108 540.706 585.108V584.772C540.876 584.772 541.011 584.715 541.13 584.592L541.132 584.589L541.134 584.587C541.26 584.461 541.32 584.317 541.32 584.136ZM540.684 580.211V580.546H535.97V580.211H540.684Z" fill="black"/>
<path d="M522.853 576.335H520.55V589.551C520.55 590.184 520.776 590.726 521.227 591.177C521.678 591.628 522.22 591.853 522.853 591.853H526.858C527.607 591.853 528.291 591.671 528.909 591.308C529.528 590.936 530.019 590.445 530.382 589.834C530.753 589.216 530.939 588.536 530.939 587.794V584.629C530.939 583.88 530.753 583.196 530.382 582.577C530.019 581.959 529.528 581.468 528.909 581.104C528.291 580.733 527.607 580.548 526.858 580.548V580.212C527.664 580.212 528.407 580.413 529.079 580.815C529.746 581.207 530.277 581.738 530.67 582.405C531.073 583.077 531.274 583.821 531.274 584.629V587.794C531.274 588.594 531.073 589.334 530.67 590.006L530.671 590.006C530.278 590.665 529.747 591.196 529.082 591.595L529.08 591.596L529.079 591.596C528.407 591.992 527.664 592.188 526.858 592.188H522.853C522.13 592.188 521.503 591.927 520.99 591.414C520.476 590.9 520.215 590.273 520.215 589.551V576H523.188V589.215H526.858V589.551H522.853V576.335ZM528.301 587.772V584.651C528.301 584.245 528.162 583.908 527.876 583.622L527.873 583.619L527.871 583.617C527.592 583.327 527.261 583.185 526.858 583.185H523.827V580.212H526.858V580.548H524.162V582.85H526.858C527.352 582.85 527.771 583.028 528.113 583.385C528.462 583.734 528.636 584.156 528.636 584.651V587.772C528.636 588.259 528.462 588.678 528.113 589.027C527.771 589.376 527.352 589.551 526.858 589.551V589.215C527.263 589.215 527.595 589.076 527.873 588.792L527.874 588.791L527.876 588.79C528.163 588.502 528.301 588.169 528.301 587.772Z" fill="black"/>
<path d="M510.436 580.211L513.143 587.435L515.91 580.211H519.172L512.911 596.443H509.674L511.559 591.481L507.273 580.211H510.436ZM507.76 580.546L511.917 591.481L510.16 596.108H512.681L518.683 580.546H516.141L513.14 588.382L510.204 580.546H507.76Z" fill="black"/>
<path d="M493 587.564V580.7C493 579.834 493.215 579.042 493.649 578.332C494.078 577.623 494.653 577.056 495.37 576.635C496.093 576.211 496.894 576 497.766 576V576.335C496.951 576.335 496.209 576.532 495.54 576.925C494.87 577.317 494.336 577.845 493.935 578.507C493.535 579.162 493.335 579.893 493.335 580.7V587.564C493.335 588.35 493.535 589.07 493.935 589.725C494.336 590.373 494.87 590.889 495.54 591.275C496.209 591.66 496.951 591.853 497.766 591.853H505.896V589.551H497.766V589.215H506.231V592.188H497.766C496.896 592.188 496.095 591.982 495.372 591.565C494.656 591.152 494.08 590.597 493.65 589.901L493.65 589.901L493.649 589.9C493.216 589.191 493 588.41 493 587.564ZM495.638 587.532V580.7C495.638 580.126 495.845 579.638 496.26 579.238C496.675 578.831 497.177 578.627 497.766 578.627H505.896V576.335H497.766V576H506.231V578.962H497.766C497.263 578.962 496.846 579.132 496.495 579.477L496.493 579.479C496.143 579.816 495.973 580.217 495.973 580.7V587.532C495.973 587.989 496.14 588.379 496.492 588.719C496.842 589.05 497.26 589.215 497.766 589.215V589.551C497.177 589.551 496.675 589.354 496.26 588.961C495.845 588.561 495.638 588.085 495.638 587.532Z" fill="black"/>
<path d="M389.655 302.721C389.021 300.459 387.786 298.411 386.081 296.795C384.328 295.129 382.179 293.938 379.837 293.333C371.075 291.023 335.967 291.023 335.967 291.023C321.332 290.857 306.699 291.589 292.153 293.216C289.812 293.866 287.667 295.084 285.91 296.762C284.184 298.423 282.933 300.472 282.28 302.716C280.711 311.17 279.948 319.754 280.003 328.351C279.947 336.942 280.707 345.522 282.28 353.987C282.919 356.222 284.165 358.261 285.896 359.908C287.627 361.555 289.783 362.745 292.153 363.375C301.033 365.68 335.967 365.68 335.967 365.68C350.622 365.847 365.273 365.114 379.837 363.487C382.179 362.882 384.328 361.69 386.081 360.025C387.785 358.409 389.019 356.361 389.65 354.099C391.26 345.648 392.043 337.061 391.988 328.459C392.109 319.82 391.327 311.192 389.655 302.716V302.721ZM324.806 344.328V312.38L354.016 328.356L324.806 344.328Z" fill="black"/>
</g>
<defs>
<clipPath id="clip0_12323_2432">
<rect width="656" height="656" fill="white"/>
</clipPath>
</defs>
</svg>
